<?xml version="1.0" standalone="no"?>
<!DOCTYPE svg PUBLIC "-//W3C//DTD SVG 1.1//EN" "http://www.w3.org/Graphics/SVG/1.1/DTD/svg11.dtd" >
<svg xmlns="http://www.w3.org/2000/svg" xmlns:xlink="http://www.w3.org/1999/xlink" version="1.1">
<metadata>
Created by FontForge 20161003 at Mon Jan  9 09:26:54 2017
 By www-data
Stephen Moye, Providence, RI, Version 1.1, February 1997
</metadata>
<defs>
<font id="PaddingtonRegular" horiz-adv-x="448" >
  <font-face 
    font-family="PaddingtonRegular"
    font-weight="400"
    font-stretch="normal"
    units-per-em="1000"
    panose-1="2 11 5 0 0 0 0 0 0 0"
    ascent="800"
    descent="-200"
    x-height="441"
    cap-height="646"
    bbox="-56 -243 918 714"
    underline-thickness="20"
    underline-position="-153"
    unicode-range="U+0020-203A"
  />
<missing-glyph horiz-adv-x="502" 
d="M-1 0h500v500h-500v-500zM9 10v480h480v-480h-480z" />
    <glyph glyph-name=".notdef" horiz-adv-x="502" 
d="M-1 0h500v500h-500v-500zM9 10v480h480v-480h-480z" />
    <glyph glyph-name=".null" horiz-adv-x="0" 
 />
    <glyph glyph-name="nonmarkingreturn" horiz-adv-x="333" 
 />
    <glyph glyph-name="space" unicode=" " horiz-adv-x="243" 
 />
    <glyph glyph-name="exclam" unicode="!" horiz-adv-x="226" 
d="M166 188v458h-97v-458h97zM191 52l-72 72h-8l-72 -72l72 -72h8z" />
    <glyph glyph-name="quotedbl" unicode="&#x22;" horiz-adv-x="251" 
d="M226 646h-85l10 -163h65zM109 646h-85l10 -163h65z" />
    <glyph glyph-name="dollar" unicode="$" horiz-adv-x="478" 
d="M445 193q0 41 -12 71.5t-33.5 53.5t-49 40t-67.5 37l-21 9v157q42 -13 67 -68l82 50q-18 47 -57.5 75.5t-91.5 34.5v61h-35v-60q-70 -2 -114.5 -48t-44.5 -114q0 -34 11.5 -60t30.5 -45.5t41.5 -34t55.5 -30.5l20 -10v-232q-34 7 -61 34.5t-48 67.5l-86 -42
q20 -65 72.5 -105t122.5 -46v-56h35v56q40 2 74 19.5t58.5 45.5t37.5 64t13 75zM227 421q-28 15 -44 33t-16 44q0 27 18 46.5t42 21.5v-145zM345 188q0 -39 -24 -70.5t-59 -38.5v215q40 -21 61.5 -45.5t21.5 -60.5z" />
    <glyph glyph-name="ampersand" unicode="&#x26;" horiz-adv-x="633" 
d="M612 1l-147 168q27 45 83 135l8 13q14 23 19 33h-110l-67 -105l-89 102q50 25 82 67t32 94q0 32 -13 60.5t-36 49.5t-53 32.5t-64 11.5q-74 0 -126 -42.5t-52 -111.5q0 -32 20.5 -63.5t54.5 -69.5q0 -1 1 -2q-59 -30 -95 -79t-36 -111q0 -44 17.5 -80t48 -60.5
t70.5 -37.5t85 -13q47 0 87.5 26.5t76.5 67.5l76 -85h127zM320 507q0 -28 -20.5 -49t-53.5 -38l-47 52q-5 7 -10.5 23t-5.5 24q0 26 25 41.5t49 15.5t43.5 -21t19.5 -48zM343 160q-26 -36 -50.5 -55t-58.5 -19q-41 0 -71.5 28.5t-30.5 71.5q0 39 23.5 66t64.5 48z" />
    <glyph glyph-name="quotesingle" unicode="'" horiz-adv-x="186" 
d="M139 646h-85l10 -163h65z" />
    <glyph glyph-name="parenleft" unicode="(" horiz-adv-x="239" 
d="M215 597l-28 95h-8q-62 -75 -93 -172t-31 -200q0 -104 31 -199t94 -166h8l27 91q-37 54 -54.5 125t-17.5 145q0 75 18 149.5t54 131.5z" />
    <glyph glyph-name="parenright" unicode=")" horiz-adv-x="282" 
d="M236 319q0 103 -31 200.5t-94 172.5h-8l-28 -95q36 -56 54 -130.5t18 -149.5t-17.5 -146t-54.5 -125l27 -91h8q63 72 94.5 167.5t31.5 196.5z" />
    <glyph glyph-name="comma" unicode="," horiz-adv-x="224" 
d="M189 13q0 14 -4 22.5t-14 18.5l-52 52h-8l-72 -72l58 -54q0 -37 -11.5 -66t-39.5 -47v-22q26 6 51.5 23.5t46.5 42.5t33 52t12 50z" />
    <glyph glyph-name="hyphen" unicode="-" horiz-adv-x="398" 
d="M314 212v83h-232v-83h232z" />
    <glyph glyph-name="period" unicode="." horiz-adv-x="239" 
d="M191 34l-72 72h-8l-72 -72l72 -71h8z" />
    <glyph glyph-name="slash" unicode="/" horiz-adv-x="339" 
d="M383 677h-100l-339 -706h100z" />
    <glyph glyph-name="zero" unicode="0" horiz-adv-x="504" 
d="M464 324q0 52 -11 108.5t-35.5 107t-66 82.5t-99.5 32q-57 0 -98.5 -32t-66 -83t-36 -107.5t-11.5 -107.5q0 -50 11.5 -107.5t36 -109t66 -84.5t98.5 -33t98.5 32.5t66.5 84.5t36 109t11 108zM367 324q0 -31 -5.5 -72.5t-18.5 -81.5t-35 -66.5t-54 -26.5t-54 26.5
t-35 66.5t-18.5 81.5t-5.5 72.5q0 47 9 93q4 22 12.5 47.5t21.5 49.5t31 39t39 15q30 0 52.5 -26.5t35.5 -66t19 -80.5t6 -71z" />
    <glyph glyph-name="one" unicode="1" horiz-adv-x="239" 
d="M171 1l-1 646h-100l1 -646h100z" />
    <glyph glyph-name="two" unicode="2" horiz-adv-x="522" 
d="M462 0v84h-231l180 287q14 20 20.5 51.5t6.5 55.5q0 87 -52 135t-143 48q-45 0 -92 -19.5t-85 -48.5v-127h8q32 43 77 71t92 28q34 0 61 -21t27 -57q0 -27 -11 -61t-30 -63l-230 -363h402z" />
    <glyph glyph-name="three" unicode="3" horiz-adv-x="520" 
d="M472 645h-415v-87h257l-131 -232q37 0 67.5 -6t53.5 -21t36 -41t13 -66q0 -44 -31 -73.5t-72 -29.5q-44 0 -76.5 24.5t-54.5 68.5h-8l-63 -68q4 -17 17 -34.5t32.5 -32.5t39.5 -26t38 -17q31 -11 66 -11q45 0 85 14.5t70.5 41.5t47.5 64t17 81q0 65 -35.5 124t-95.5 75z
" />
    <glyph glyph-name="four" unicode="4" horiz-adv-x="579" 
d="M559 269h-150v401h-8l-400 -491h309v-179h99v179h150v90zM308 269h-119l119 151v-151z" />
    <glyph glyph-name="five" unicode="5" horiz-adv-x="477" 
d="M428 206q0 49 -18 89.5t-50.5 68.5t-76 43.5t-93.5 16.5l15 136h179l41 86h-309l-41 -333q68 20 103 20q55 0 100 -36t45 -93q0 -48 -32.5 -84.5t-77.5 -36.5q-32 0 -61.5 20.5t-47.5 52.5h-8l-56 -73q29 -41 71 -66.5t92 -25.5q47 0 88.5 16t72 45t47.5 68.5t17 85.5z
" />
    <glyph glyph-name="six" unicode="6" horiz-adv-x="521" 
d="M476 198q0 40 -15 76t-41.5 64t-63 43.5t-78.5 15.5q-35 0 -62 -7t-54 -22q15 39 37 80.5t50 80t61.5 69.5t69.5 49h-128q-44 -31 -83 -78t-67.5 -102.5t-44.5 -114.5t-16 -113q0 -49 14 -94t41.5 -80t69 -55t94.5 -20q45 0 84.5 16t69 44t46 66.5t16.5 81.5zM374 191
q0 -46 -31 -78.5t-73 -32.5q-50 0 -88.5 34t-38.5 87q0 16 2.5 33t8.5 25q19 24 51.5 35.5t64.5 11.5q42 0 73 -35t31 -80z" />
    <glyph glyph-name="seven" unicode="7" horiz-adv-x="518" 
d="M493 646h-434v-91h272l-299 -555h108z" />
    <glyph glyph-name="eight" unicode="8" horiz-adv-x="470" 
d="M433 184q0 57 -30 98t-85 74q37 28 60 69.5t23 85.5q0 67 -47 106.5t-118 39.5q-72 0 -121.5 -38.5t-49.5 -105.5q0 -44 23 -84t61 -71q-52 -34 -82 -81.5t-30 -106.5q0 -86 54 -134t144 -48q40 0 76 16t63.5 43.5t43 63t15.5 73.5zM308 510q0 -29 -21.5 -59t-49.5 -48
q-32 20 -54.5 51t-22.5 64q0 30 23.5 49t51.5 19q27 0 50 -23t23 -53zM338 185q0 -20 -9 -40t-24.5 -35.5t-34.5 -24.5t-38 -9q-37 0 -67.5 29.5t-30.5 69.5q0 39 26.5 71.5t67.5 59.5q22 -14 39 -25.5t33.5 -26.5t27 -33t10.5 -36z" />
    <glyph glyph-name="nine" unicode="9" horiz-adv-x="511" 
d="M470 400q0 46 -12.5 92t-38.5 84t-65 60.5t-90 22.5q-45 0 -86 -15.5t-72.5 -44t-49 -67t-17.5 -82.5q0 -40 15 -76t43 -64t64.5 -43t78.5 -15q24 0 52.5 9t55.5 23q-11 -39 -35.5 -79t-56.5 -77t-68 -69.5t-72 -58.5h128q48 34 89.5 78.5t72 96.5t47.5 109.5t17 115.5z
M374 399q-38 -33 -65.5 -46t-68.5 -13q-42 0 -73 36.5t-31 83.5q0 48 37.5 78.5t83.5 30.5q29 0 51.5 -15.5t37 -41t21.5 -55t7 -58.5z" />
    <glyph glyph-name="colon" unicode=":" horiz-adv-x="239" 
d="M191 372l-72 72h-8l-72 -72l72 -72h8zM191 35l-72 72h-8l-72 -72l72 -72h8z" />
    <glyph glyph-name="semicolon" unicode=";" horiz-adv-x="224" 
d="M191 373l-72 72h-8l-72 -72l72 -72h8zM189 13q0 14 -4 23t-14 19l-52 52h-8l-72 -72l58 -55q0 -37 -11.5 -66t-39.5 -47v-22q26 6 51.5 23.5t46.5 42.5t33 52t12 50z" />
    <glyph glyph-name="question" unicode="?" horiz-adv-x="396" 
d="M378 508q0 33 -14.5 60.5t-39 47.5t-56 30.5t-65.5 10.5q-25 0 -52 -7t-50 -19t-37 -25.5t-14 -24.5v-109h8q34 45 70 73.5t75 28.5q29 0 57.5 -18t28.5 -48q0 -27 -23 -45.5t-71 -44.5q-30 -16 -50 -28t-38.5 -28.5t-29 -37t-10.5 -46.5q0 -51 38.5 -87t93.5 -36
q33 0 64.5 18t52.5 44l-41 83h-8q-11 -20 -32 -41.5t-36 -21.5q-14 0 -28.5 12t-14.5 28q0 15 17.5 28.5t57.5 34.5q31 17 54.5 31.5t45 34t34.5 45t13 57.5zM275 47l-73 72h-8l-72 -72l72 -73h8z" />
    <glyph glyph-name="at" unicode="@" horiz-adv-x="699" 
d="M663 268q0 53 -20 100t-59 83.5t-96.5 57.5t-130.5 21q-67 0 -126.5 -25t-103.5 -68t-68 -97t-24 -110q1 -76 20.5 -128.5t62.5 -94.5h78q-53 47 -73.5 102t-20.5 121q0 49 22.5 94t59.5 80t82.5 54.5t90.5 19.5t87.5 -14t77.5 -41t55.5 -66.5t20.5 -88.5
q0 -37 -6.5 -71.5t-18.5 -61.5t-28 -42.5t-33 -15.5h-29l33 313h-70l-7 -12q-32 26 -81 26q-43 0 -79 -17.5t-60.5 -47.5t-37.5 -68.5t-13 -79.5q0 -72 38.5 -118t111.5 -46q22 0 42.5 7.5t41.5 19.5l-6 -21q16 -2 48.5 -5t64.5 -3q36 0 65 19.5t48.5 53.5t30 78t10.5 92z
M425 265q0 -4 -1 -6l-10 -103q-3 -22 -29.5 -35t-55.5 -13q-35 0 -54.5 26t-19.5 67q0 53 26.5 89t73.5 36q29 0 49.5 -14.5t20.5 -46.5z" />
    <glyph glyph-name="A" unicode="A" horiz-adv-x="711" 
d="M672 0l-256 646h-113l-263 -646h106l65 163h289l64 -163h108zM464 253h-217l109 272z" />
    <glyph glyph-name="B" unicode="B" horiz-adv-x="525" 
d="M479 185q0 67 -35 120.5t-98 69.5q28 20 43.5 56t15.5 73q0 67 -46.5 104.5t-118.5 37.5h-202v-646h222q97 0 158 47t61 138zM294 482q0 -33 -21.5 -60.5t-50.5 -27.5h-85v167h62q40 0 67.5 -18.5t27.5 -60.5zM370 195q0 -53 -34 -78.5t-85 -25.5h-114v213h113
q52 0 86 -27.5t34 -81.5z" />
    <glyph glyph-name="C" unicode="C" horiz-adv-x="671" 
d="M624 34v118h-8q-56 -41 -109 -62t-113 -21q-49 0 -93.5 19.5t-79 54.5t-54 81t-19.5 96q0 51 20 97t55.5 80.5t80.5 53.5t94 19q61 0 118.5 -21t99.5 -63h8v114q-44 37 -102 52.5t-128 15.5q-73 0 -137.5 -27t-113 -75.5t-75.5 -111.5t-27 -134t27 -135t75.5 -112.5
t113 -75.5t137.5 -27q61 0 124.5 17t105.5 47z" />
    <glyph glyph-name="D" unicode="D" horiz-adv-x="691" 
d="M643 326q0 72 -25.5 131.5t-72.5 101.5t-110 64.5t-136 22.5h-240v-646h227q162 0 259.5 85t97.5 241zM533 330q0 -65 -20 -110.5t-57 -73t-86.5 -40t-110.5 -12.5h-101v458h94q56 0 105.5 -11.5t89.5 -37.5t63 -69t23 -104z" />
    <glyph glyph-name="E" unicode="E" horiz-adv-x="493" 
d="M461 0v89h-318v206h230v90h-230v172h299v89h-398v-646h417z" />
    <glyph glyph-name="F" unicode="F" horiz-adv-x="467" 
d="M456 646h-398v-646h99v295h230v90h-230v173h299v88z" />
    <glyph glyph-name="G" unicode="G" horiz-adv-x="677" 
d="M635 38v306h-207v-89h107v-152q-29 -15 -69.5 -22.5t-75.5 -7.5q-52 0 -97 20t-78 55.5t-51 83t-18 100.5t19 97.5t53 76t79 48.5t95 17q63 0 126 -20t99 -61h8v117q-43 25 -108.5 41t-122.5 16q-74 0 -139 -25t-113 -70.5t-75 -108t-27 -135.5q0 -72 25.5 -135.5
t72.5 -111t111 -74t137 -26.5q27 0 59.5 5t66.5 14t65 19.5t58 21.5z" />
    <glyph glyph-name="H" unicode="H" horiz-adv-x="641" 
d="M584 0v646h-99v-261h-329v261h-99v-646h99v294h329v-294h99z" />
    <glyph glyph-name="I" unicode="I" horiz-adv-x="219" 
d="M160 0v646h-99v-646h99z" />
    <glyph glyph-name="J" unicode="J" horiz-adv-x="419" 
d="M357 138v508h-94v-490q0 -30 -22.5 -54t-49.5 -24q-23 0 -46.5 24.5t-41.5 56.5l-82 -41q18 -59 65.5 -95t110.5 -36q32 0 61.5 11.5t51.5 32.5t34.5 48.5t12.5 58.5z" />
    <glyph glyph-name="K" unicode="K" horiz-adv-x="575" 
d="M552 0l-327 352l289 294h-120l-238 -243h-7v243h-92v-646h93v298l275 -298h127z" />
    <glyph glyph-name="L" unicode="L" horiz-adv-x="468" 
d="M426 85h-278v561h-92v-646h370v85z" />
    <glyph glyph-name="M" unicode="M" horiz-adv-x="756" 
d="M698 0v646h-98l-230 -267l-219 267h-92v-646h100v491l212 -261h8l219 262v-492h100z" />
    <glyph glyph-name="N" unicode="N" horiz-adv-x="701" 
d="M643 0v646h-98v-484l-397 484h-81v-646h98v467l382 -467h96z" />
    <glyph glyph-name="O" unicode="O" horiz-adv-x="794" 
d="M750 326q0 71 -27 135t-75.5 112.5t-113 75.5t-137.5 27t-137.5 -27t-113 -75.5t-75.5 -112t-27 -134.5t27 -134.5t75.5 -112t113 -75.5t137.5 -27t137.5 27t113 75t75.5 111.5t27 134.5zM644 328q0 -51 -19.5 -96.5t-53.5 -80.5t-79 -54.5t-94 -19.5t-94 19.5t-79 54.5
t-53.5 80.5t-19.5 96.5t20 96.5t55 80t80.5 53.5t94.5 19t93 -19t78 -53.5t52.5 -80t18.5 -96.5z" />
    <glyph glyph-name="P" unicode="P" horiz-adv-x="510" 
d="M480 442q0 57 -18.5 96.5t-52.5 63t-79.5 34t-102.5 10.5h-164v-646h97v253h67q52 0 97 9.5t80.5 31t55.5 58.5t20 90zM372 448q0 -30 -13 -50t-34.5 -31t-46 -15t-51.5 -4h-67v202h67q30 0 54.5 -3.5t45 -14t33 -31t12.5 -53.5z" />
    <glyph glyph-name="Q" unicode="Q" horiz-adv-x="785" 
d="M743 322q0 70 -26.5 134t-74.5 112.5t-112.5 75.5t-137.5 27t-137 -27t-112.5 -75.5t-75 -112.5t-26.5 -134q0 -71 26.5 -134.5t74.5 -112t112.5 -75.5t137.5 -27q59 0 113 18t99 51l72 -60h8l58 75l-68 56q34 45 51.5 99t17.5 110zM637 324q0 -78 -43 -143l-67 55h-8
l-57 -75l60 -50q-30 -19 -63.5 -29.5t-66.5 -10.5q-49 0 -93.5 19.5t-78.5 54.5t-53 81t-19 97t19.5 96.5t54.5 80.5t80 54.5t94 19.5t93 -19.5t77.5 -54t52 -80.5t18.5 -96z" />
    <glyph glyph-name="R" unicode="R" horiz-adv-x="513" 
d="M528 0l-196 295q51 25 83.5 72t32.5 102q0 42 -18.5 75.5t-50 56t-71 34t-81.5 11.5h-169v-646h99v279h71l184 -279h116zM342 470q0 -49 -34 -76t-81 -27h-70v188h93q32 0 62 -25.5t30 -59.5z" />
    <glyph glyph-name="S" unicode="S" horiz-adv-x="478" 
d="M445 193q0 41 -12 71.5t-33.5 53.5t-49 40t-67.5 37q-8 4 -23 10q-44 20 -68.5 39.5t-24.5 53.5q0 29 20 48.5t45 19.5q63 0 97 -73l82 50q-21 53 -68 82.5t-108 29.5q-73 0 -120 -46.5t-47 -116.5q0 -34 11.5 -60t30.5 -45.5t41.5 -34t55.5 -30.5l13 -6q63 -31 94 -57.5
t31 -70.5q0 -43 -29 -76.5t-68 -33.5q-41 0 -73.5 28.5t-56.5 75.5l-86 -42q22 -69 80.5 -110.5t135.5 -41.5q43 0 79.5 16t63 45t40.5 66t14 78z" />
    <glyph glyph-name="T" unicode="T" horiz-adv-x="563" 
d="M532 557v89h-501v-89h197v-557h99v557h205z" />
    <glyph glyph-name="U" unicode="U" horiz-adv-x="675" 
d="M631 273v373h-99v-208v-103q0 -55 -10.5 -101.5t-34 -81.5t-63 -54.5t-95.5 -19.5q-51 0 -87.5 21.5t-58 58t-30.5 81.5t-9 96v311h-99v-373q0 -63 19 -116t55.5 -93t89 -61.5t117.5 -21.5q68 0 124 20.5t97 59t62.5 92.5t21.5 120z" />
    <glyph glyph-name="V" unicode="V" horiz-adv-x="634" 
d="M619 646h-106l-200 -523l-192 523h-108l240 -646h114z" />
    <glyph glyph-name="W" unicode="W" horiz-adv-x="933" 
d="M918 646h-106l-151 -466l-147 459h-100l-146 -459l-148 466h-106l105 -323l72 -222l24 -73l6 -20q1 -2 2 -5l1 -2q0 -1 4 -1h84l151 471l157 -471h87z" />
    <glyph glyph-name="X" unicode="X" horiz-adv-x="697" 
d="M655 0l-247 342l226 304h-124l-163 -218l-158 218h-128l221 -305l-255 -341h128l189 255l184 -255h127z" />
    <glyph glyph-name="Y" unicode="Y" horiz-adv-x="546" 
d="M521 646h-115l-141 -235l-126 235h-115l188 -344v-302h103v309z" />
    <glyph glyph-name="Z" unicode="Z" horiz-adv-x="644" 
d="M616 646h-563v-88h381l-388 -543l15 -15h546v96h-380z" />
    <glyph glyph-name="grave" unicode="`" horiz-adv-x="347" 
d="M296 534l-130 112h-114l154 -112h90z" />
    <glyph glyph-name="a" unicode="a" 
d="M383 0v323q0 71 -49 110t-113 39q-62 0 -109.5 -17t-53.5 -45l-25 -113h8q44 42 88 65t87 23q23 0 44 -19.5t21 -42.5v-32q-48 -4 -92.5 -15.5t-81.5 -31.5t-59.5 -51t-22.5 -74q0 -55 42.5 -93.5t102.5 -38.5q27 0 60.5 12.5t58.5 25.5v-25h94zM289 119q-2 -2 -15 -9.5
t-32.5 -17.5t-38.5 -17t-33 -7q-18 0 -32 15t-14 36q0 20 19.5 35t47 24.5t53.5 15t45 7.5v-82z" />
    <glyph glyph-name="b" unicode="b" horiz-adv-x="515" 
d="M489 226q0 51 -17 93.5t-49 73.5t-76 48t-96 17q-57 0 -114 -33v221h-94v-646h94v25q45 -36 114 -36q50 0 94 18.5t76.5 51t50 76t17.5 91.5zM387 226q0 -28 -11 -53.5t-30.5 -45t-44 -30.5t-50.5 -11q-16 0 -35.5 5t-37.5 13t-29.5 19t-11.5 24v168q0 12 11.5 21.5
t29.5 15t37.5 8.5t35.5 3q26 0 50.5 -10.5t44 -29.5t30.5 -44t11 -53z" />
    <glyph glyph-name="c" unicode="c" horiz-adv-x="435" 
d="M396 24v111h-8q-23 -24 -54.5 -37.5t-61.5 -13.5q-58 0 -101.5 39t-43.5 100q0 28 11.5 54.5t31.5 46.5t45.5 31.5t52.5 11.5q28 0 63 -12.5t57 -31.5h8v108q-26 14 -66 20.5t-78 6.5q-108 0 -169 -65t-61 -169q0 -49 17 -92.5t49 -76t76 -50.5t97 -18q43 0 76.5 8
t58.5 29z" />
    <glyph glyph-name="d" unicode="d" horiz-adv-x="495" 
d="M454 0v646h-94v-220q-46 32 -114 32q-50 0 -91.5 -18.5t-70 -51.5t-43.5 -75.5t-15 -89.5t15 -90t43.5 -75.5t70 -51t91.5 -18.5q27 0 57.5 10.5t56.5 26.5v-25h94zM360 148q0 -14 -11 -25.5t-29 -19.5t-37.5 -12t-36.5 -4q-52 0 -83.5 41t-31.5 97q0 60 33 99t88 39
q42 0 75 -21t33 -64v-130z" />
    <glyph glyph-name="e" unicode="e" horiz-adv-x="516" 
d="M487 212q0 49 -13.5 94.5t-41.5 80.5t-69.5 55t-94.5 20q-105 0 -169.5 -64t-64.5 -167q0 -109 64.5 -176.5t175.5 -67.5q50 0 97.5 16.5t85.5 45.5v104h-8q-47 -37 -85 -55t-86 -18q-59 0 -97 36t-43 96h349zM376 294h-227q15 37 45 58t71 21q40 0 68.5 -21.5
t42.5 -57.5z" />
    <glyph glyph-name="f" unicode="f" horiz-adv-x="382" 
d="M353 441h-147v58q0 32 13 51.5t40 19.5q22 0 45.5 -14t40.5 -35h8v98q-49 36 -118 36q-34 0 -58 -13t-38 -35t-20.5 -50t-6.5 -58v-58h-84v-82h84v-359h94v359h147v82z" />
    <glyph glyph-name="g" unicode="g" horiz-adv-x="451" 
d="M434 -87q0 32 -10.5 55t-29.5 39t-41 26t-51 17q-20 6 -58 13q-27 6 -33 7q-20 5 -30.5 11.5t-10.5 16.5q0 12 20 22q18 -2 30 -2q36 0 67.5 13t54.5 36t36 53.5t13 64.5q0 23 -9 54h35v86h-102q-41 27 -95 27q-36 0 -67.5 -13t-54.5 -36t-36 -53.5t-13 -64.5
q0 -35 14 -66.5t38 -55.5q-34 -27 -34 -74q0 -22 5.5 -34.5t21.5 -30.5q-35 -25 -57.5 -62t-22.5 -77q0 -39 20 -64.5t53 -39.5t70 -19t75 -5q36 0 72 10.5t65.5 30.5t47 49.5t17.5 65.5zM292 287q0 -32 -23 -55t-51 -23q-29 0 -52 23t-23 55t23 55t52 23t51.5 -23t22.5 -55
zM342 -93q0 -21 -12.5 -34.5t-32 -21t-39.5 -10.5t-38 -3t-35.5 2t-34 8t-28 18t-11.5 32q0 29 22.5 50t56.5 39l13 -2q14 -3 24 -5q4 -1 11 -3q28 -6 41 -11q29 -11 46 -25.5t17 -33.5z" />
    <glyph glyph-name="h" unicode="h" horiz-adv-x="487" 
d="M446 0v293q0 35 -16 64.5t-43.5 51t-62 33.5t-69.5 12q-72 0 -121 -46v239h-94v-647h94v269q0 19 11.5 35t29 28t36.5 18t34 6q48 0 77.5 -35t29.5 -87v-234h94z" />
    <glyph glyph-name="i" unicode="i" horiz-adv-x="230" 
d="M192 578l-72 72h-8l-72 -72l72 -72h8zM160 0v441h-94v-441h94z" />
    <glyph glyph-name="j" unicode="j" horiz-adv-x="243" 
d="M203 575l-72 73h-8l-72 -73l72 -72h8zM171 -46v487h-94v-456q0 -57 -23.5 -79t-82.5 -22v-85q46 0 82.5 7.5t61.5 24.5q56 37 56 123z" />
    <glyph glyph-name="k" unicode="k" horiz-adv-x="445" 
d="M435 0l-218 251l193 190h-109l-161 -146l-5 1v350h-94v-646h94v209h10l179 -209h111z" />
    <glyph glyph-name="l" unicode="l" horiz-adv-x="300" 
d="M291 18v85h-8q-15 -14 -34.5 -24.5t-33.5 -10.5q-28 0 -54 17.5t-26 46.5v514h-94v-547q0 -25 13.5 -46t36 -36.5t49 -23.5t51.5 -8q23 0 50.5 10t49.5 23z" />
    <glyph glyph-name="m" unicode="m" horiz-adv-x="760" 
d="M724 0v310q0 73 -51.5 111.5t-129.5 38.5q-46 0 -89.5 -17.5t-73.5 -47.5q-23 29 -58.5 47t-73.5 18q-64 0 -117 -40v21h-94v-441l94 -1v281q0 42 32.5 64t72.5 22t68.5 -22t28.5 -64v-280h94v280q0 42 30.5 64t72.5 22q43 0 71.5 -21t28.5 -65v-280h94z" />
    <glyph glyph-name="n" unicode="n" horiz-adv-x="480" 
d="M438 0v300q0 75 -55.5 117.5t-136.5 42.5q-71 0 -110 -38v19h-94v-441h94v280q0 41 33.5 63.5t74.5 22.5q40 0 70 -22t30 -64v-280h94z" />
    <glyph glyph-name="o" unicode="o" horiz-adv-x="517" 
d="M495 222q0 47 -18 89.5t-50.5 75t-75.5 50.5t-92 18t-92 -18t-75.5 -50.5t-50.5 -75t-18 -89.5t18 -89t50 -74.5t75.5 -50.5t92.5 -18t92 18t75.5 50t50.5 74.5t18 89.5zM392 223q0 -27 -10.5 -52t-29.5 -44q-39 -39 -92 -39t-92 39q-19 19 -29.5 44t-10.5 52
q0 28 10.5 52.5t29.5 43.5t43 29.5t49 10.5q26 0 50 -10.5t42.5 -29.5t29 -44t10.5 -52z" />
    <glyph glyph-name="p" unicode="p" horiz-adv-x="518" 
d="M489 227q0 48 -17.5 89.5t-49.5 72t-75 47t-92 16.5q-72 0 -125 -42v31h-94v-652h94v236q51 -35 125 -35q49 0 91.5 19t75 52.5t50 76.5t17.5 89zM381 219q0 -27 -11.5 -51t-31 -42.5t-44 -28.5t-49.5 -10q-16 0 -35.5 4t-38 12t-30 18.5t-11.5 23.5v140q0 13 10.5 26
t28 23.5t38 16.5t39.5 6q24 0 48.5 -11t44 -31t31 -44.5t11.5 -51.5z" />
    <glyph glyph-name="q" unicode="q" horiz-adv-x="490" 
d="M450 441h-94v-31q-26 21 -53 31.5t-63 10.5q-49 0 -89 -19t-68 -51.5t-42.5 -75t-14.5 -88.5q0 -44 15.5 -85.5t44 -73.5t68.5 -50.5t86 -18.5q35 0 62.5 8.5t53.5 26.5v-236h94v652zM356 141q0 -11 -11 -22.5t-28.5 -21t-36.5 -15t-34 -5.5q-24 0 -45.5 12.5t-38.5 34
t-26 46.5t-9 49q0 58 33.5 99.5t86.5 41.5q17 0 35.5 -6t35.5 -16.5t27.5 -24.5t10.5 -30v-142z" />
    <glyph glyph-name="r" unicode="r" horiz-adv-x="346" 
d="M328 317v110q-24 14 -44.5 19t-54.5 5q-27 0 -49 -11.5t-45 -31.5v33h-94v-441h94v248q0 49 24.5 80t71.5 31q23 0 44.5 -11t44.5 -31h8z" />
    <glyph glyph-name="s" unicode="s" horiz-adv-x="395" 
d="M375 144q0 32 -10 54.5t-27.5 37t-38.5 23.5t-48 16q-7 2 -27 6l-18 4q-28 6 -39 10q-18 6 -28.5 16t-10.5 25q0 23 23 33t47 10q70 0 130 -55h8v103q-27 19 -63 26t-79 7q-70 0 -119 -34.5t-49 -98.5q0 -30 10 -50.5t27 -33t37.5 -19.5t47.5 -13l45 -9q26 -6 38 -11
q19 -7 28.5 -18.5t9.5 -30.5q0 -30 -25.5 -46.5t-54.5 -16.5q-39 0 -79.5 18t-75.5 48h-8v-100q70 -56 159 -56q36 0 70.5 10.5t61.5 30.5t42.5 49t15.5 65z" />
    <glyph glyph-name="t" unicode="t" horiz-adv-x="414" 
d="M397 121h-8q-25 -15 -54.5 -27t-50.5 -12q-31 0 -50 18.5t-19 51.5v204h180v85h-180v90h-94v-90h-100v-85h100v-224q0 -64 36.5 -103.5t102.5 -39.5q28 0 62 11.5t64 27.5z" />
    <glyph glyph-name="u" unicode="u" horiz-adv-x="476" 
d="M435 0v441h-94v-256q0 -44 -33 -75.5t-75 -31.5q-40 0 -67.5 31.5t-27.5 75.5v256h-94v-276q0 -75 49.5 -125.5t127.5 -50.5q68 0 120 36v-25h94z" />
    <glyph glyph-name="v" unicode="v" horiz-adv-x="514" 
d="M497 441h-109l-139 -324l-128 324h-103l172 -441h112z" />
    <glyph glyph-name="w" unicode="w" horiz-adv-x="740" 
d="M719 441h-93l-116 -314l-105 288h-65l-99 -288l-116 314h-93l160 -441h98l84 243l87 -243h98z" />
    <glyph glyph-name="x" unicode="x" horiz-adv-x="507" 
d="M482 0l-166 240l146 201h-110l-91 -123l-85 123h-110l136 -203l-176 -238h115l115 158l107 -158h119z" />
    <glyph glyph-name="y" unicode="y" horiz-adv-x="500" 
d="M488 441h-110l-119 -258l-131 258h-113l191 -382q-5 -12 -10 -25q-17 -41 -30 -66.5t-30 -44.5q-20 -23 -44.5 -32t-59.5 -9v-82q50 0 86 11t61 32.5t44 51t41 75.5z" />
    <glyph glyph-name="z" unicode="z" horiz-adv-x="489" 
d="M444 0v93h-238l236 348h-396v-86h228l-247 -355h417z" />
    <glyph glyph-name="nbspace" unicode="&#xa0;" horiz-adv-x="243" 
 />
    <glyph glyph-name="cent" unicode="&#xa2;" horiz-adv-x="435" 
d="M396 114v111h-8q-18 -19 -42 -31.5t-50 -16.5v277q26 -5 50.5 -15.5t41.5 -25.5l8 1v107q-19 10 -45 16.5t-55 8.5v72h-84v-73q-89 -11 -139.5 -74t-50.5 -157q0 -89 52.5 -153.5t137.5 -79.5v-67h84v64q62 5 100 36zM212 187q-39 16 -62 49t-23 77q0 42 23.5 78t61.5 53
v-257z" />
    <glyph glyph-name="sterling" unicode="&#xa3;" horiz-adv-x="669" 
d="M623 82h-388q15 41 20.5 83.5t8.5 99.5h152l34 76h-180q0 3 2 26q2 38 5.5 64.5t9.5 52.5q11 43 30 68.5t48 25.5q21 0 42 -26t34 -55h8l49 82q-22 33 -58.5 55t-76.5 22q-47 0 -80.5 -17.5t-54 -47.5t-31.5 -66t-19 -82q-7 -51 -12 -102h-52l-36 -76h83q-2 -38 -4 -57
q-3 -36 -11.5 -68t-23.5 -59q-13 -23 -33.5 -42t-47.5 -38h540z" />
    <glyph glyph-name="currency" unicode="&#xa4;" horiz-adv-x="481" 
d="M437 0v78h-118q51 42 80 91t29 108q0 87 -52 135t-143 48q-46 0 -93 -19.5t-85 -48.5v-128h8q32 44 77 72.5t93 28.5q34 0 60 -22.5t26 -59.5q0 -36 -25 -76.5t-64 -78.5t-80.5 -68.5t-75.5 -49.5l5 -10h358z" />
    <glyph glyph-name="section" unicode="&#xa7;" horiz-adv-x="618" 
d="M612 1l-144 165l7 14q28 56 43 82q5 9 13 25q12 24 20.5 38t21.5 26h-110q-12 -11 -26 -38t-33 -67l-2 -4l-93 105l16 9q42 22 69.5 64.5t27.5 89.5q0 65 -46.5 109t-113.5 44q-76 0 -129.5 -41.5t-53.5 -112.5q0 -32 20.5 -63.5t54.5 -69.5q0 -1 1 -2q-59 -30 -95 -78.5
t-36 -110.5q0 -44 17 -80.5t48 -62.5t71 -39.5t85 -13.5q49 0 92 25.5t78 65.5l70 -79h127zM317 508q0 -29 -20 -50t-51 -38l-47 53q-5 6 -10 22.5t-5 24.5q0 27 26 41t52 14q21 0 38 -21.5t17 -45.5zM346 158q-27 -36 -52.5 -55t-59.5 -19q-41 0 -70.5 28t-29.5 72
q0 40 23 68t63 49z" />
    <glyph glyph-name="dieresis" unicode="&#xa8;" horiz-adv-x="321" 
d="M295 538l-51 51h-8l-50 -51l50 -50h8zM128 538l-50 51h-8l-51 -51l51 -50h8z" />
    <glyph glyph-name="degree" unicode="&#xb0;" horiz-adv-x="454" 
d="M427 187q0 57 -29.5 96t-84.5 73q37 28 59.5 68.5t22.5 83.5q0 67 -46.5 106.5t-118.5 39.5t-121.5 -38.5t-49.5 -105.5q0 -44 23 -82.5t62 -69.5q-52 -34 -82 -80t-30 -105q0 -86 54 -134t143 -48q40 0 76.5 16t63.5 43.5t42.5 63t15.5 73.5zM303 507q0 -29 -21.5 -57
t-50.5 -47q-32 20 -54 49.5t-22 62.5q0 30 23 49t51 19q27 0 50.5 -23t23.5 -53zM332 188q0 -20 -9 -40t-24.5 -35.5t-34.5 -24.5t-38 -9q-37 0 -67.5 29.5t-30.5 69.5q0 39 26.5 70t68.5 58l1 -1q48 -29 78 -56t30 -61z" />
    <glyph glyph-name="acute" unicode="&#xb4;" horiz-adv-x="347" 
d="M307 646h-114l-130 -112h90z" />
    <glyph glyph-name="periodcentered" unicode="&#xb7;" horiz-adv-x="482" 
d="M456 197q0 46 -12.5 92t-38.5 83.5t-65.5 59.5t-90.5 22q-45 0 -86 -15.5t-72.5 -44t-49 -67t-17.5 -82.5q0 -40 15.5 -76t42.5 -63t64 -42t79 -15q24 0 52 9.5t56 23.5q-11 -39 -34.5 -79.5t-56 -78t-68 -69.5t-70.5 -58h125q48 34 89.5 78.5t72.5 96.5t48 109.5
t17 115.5zM359 197q-37 -33 -65 -46t-69 -13q-42 0 -73 35t-31 81q0 48 37.5 79t83.5 31q29 0 51.5 -15t36.5 -40t21.5 -54t7.5 -58z" />
    <glyph glyph-name="periodcentered" unicode="&#x2219;" horiz-adv-x="482" 
d="M456 197q0 46 -12.5 92t-38.5 83.5t-65.5 59.5t-90.5 22q-45 0 -86 -15.5t-72.5 -44t-49 -67t-17.5 -82.5q0 -40 15.5 -76t42.5 -63t64 -42t79 -15q24 0 52 9.5t56 23.5q-11 -39 -34.5 -79.5t-56 -78t-68 -69.5t-70.5 -58h125q48 34 89.5 78.5t72.5 96.5t48 109.5
t17 115.5zM359 197q-37 -33 -65 -46t-69 -13q-42 0 -73 35t-31 81q0 48 37.5 79t83.5 31q29 0 51.5 -15t36.5 -40t21.5 -54t7.5 -58z" />
    <glyph glyph-name="agrave" unicode="&#xe0;" 
d="M383 0v323q0 71 -49 110t-113 39q-62 0 -109.5 -17t-53.5 -45l-25 -113h8q44 42 88 65t87 23q23 0 44 -19.5t21 -42.5v-32q-48 -4 -92.5 -15.5t-81.5 -31.5t-59.5 -51t-22.5 -74q0 -55 42.5 -93.5t102.5 -38.5q27 0 60.5 12.5t58.5 25.5v-25h94zM289 119q-2 -2 -15 -9.5
t-32.5 -17.5t-38.5 -17t-33 -7q-18 0 -32 15t-14 36q0 20 19.5 35t47 24.5t53.5 15t45 7.5v-82zM326 534l-130 112h-114l154 -112h90z" />
    <glyph glyph-name="aacute" unicode="&#xe1;" 
d="M383 0v323q0 71 -49 110t-113 39q-62 0 -109.5 -17t-53.5 -45l-25 -113h8q44 42 88 65t87 23q23 0 44 -19.5t21 -42.5v-32q-48 -4 -92.5 -15.5t-81.5 -31.5t-59.5 -51t-22.5 -74q0 -55 42.5 -93.5t102.5 -38.5q27 0 60.5 12.5t58.5 25.5v-25h94zM289 119q-2 -2 -15 -9.5
t-32.5 -17.5t-38.5 -17t-33 -7q-18 0 -32 15t-14 36q0 20 19.5 35t47 24.5t53.5 15t45 7.5v-82zM346 646h-114l-130 -112h90z" />
    <glyph glyph-name="acircumflex" unicode="&#xe2;" 
d="M383 0v323q0 71 -49 110t-113 39q-62 0 -109.5 -17t-53.5 -45l-25 -113h8q44 42 88 65t87 23q23 0 44 -19.5t21 -42.5v-32q-48 -4 -92.5 -15.5t-81.5 -31.5t-59.5 -51t-22.5 -74q0 -55 42.5 -93.5t102.5 -38.5q27 0 60.5 12.5t58.5 25.5v-25h94zM289 119q-2 -2 -15 -9.5
t-32.5 -17.5t-38.5 -17t-33 -7q-18 0 -32 15t-14 36q0 20 19.5 35t47 24.5t53.5 15t45 7.5v-82zM386 534l-111 112h-123l-108 -112h68l102 76l102 -76h70z" />
    <glyph glyph-name="adieresis" unicode="&#xe4;" 
d="M383 0v323q0 71 -49 110t-113 39q-62 0 -109.5 -17t-53.5 -45l-25 -113h8q44 42 88 65t87 23q23 0 44 -19.5t21 -42.5v-32q-48 -4 -92.5 -15.5t-81.5 -31.5t-59.5 -51t-22.5 -74q0 -55 42.5 -93.5t102.5 -38.5q27 0 60.5 12.5t58.5 25.5v-25h94zM289 119q-2 -2 -15 -9.5
t-32.5 -17.5t-38.5 -17t-33 -7q-18 0 -32 15t-14 36q0 20 19.5 35t47 24.5t53.5 15t45 7.5v-82zM345 598l-51 51h-8l-50 -51l50 -50h8zM178 598l-50 51h-8l-51 -51l51 -50h8z" />
    <glyph glyph-name="egrave" unicode="&#xe8;" horiz-adv-x="516" 
d="M487 212q0 49 -13.5 94.5t-41.5 80.5t-69.5 55t-94.5 20q-105 0 -169.5 -64t-64.5 -167q0 -109 64.5 -176.5t175.5 -67.5q50 0 97.5 16.5t85.5 45.5v104h-8q-47 -37 -85 -55t-86 -18q-59 0 -97 36t-43 96h349zM376 294h-227q15 37 45 58t71 21q40 0 68.5 -21.5
t42.5 -57.5zM386 534l-130 112h-114l154 -112h90z" />
    <glyph glyph-name="eacute" unicode="&#xe9;" horiz-adv-x="516" 
d="M487 212q0 49 -13.5 94.5t-41.5 80.5t-69.5 55t-94.5 20q-105 0 -169.5 -64t-64.5 -167q0 -109 64.5 -176.5t175.5 -67.5q50 0 97.5 16.5t85.5 45.5v104h-8q-47 -37 -85 -55t-86 -18q-59 0 -97 36t-43 96h349zM376 294h-227q15 37 45 58t71 21q40 0 68.5 -21.5
t42.5 -57.5zM416 646h-114l-130 -112h90z" />
    <glyph glyph-name="ecircumflex" unicode="&#xea;" horiz-adv-x="516" 
d="M487 212q0 49 -13.5 94.5t-41.5 80.5t-69.5 55t-94.5 20q-105 0 -169.5 -64t-64.5 -167q0 -109 64.5 -176.5t175.5 -67.5q50 0 97.5 16.5t85.5 45.5v104h-8q-47 -37 -85 -55t-86 -18q-59 0 -97 36t-43 96h349zM376 294h-227q15 37 45 58t71 21q40 0 68.5 -21.5
t42.5 -57.5zM446 534l-111 112h-123l-108 -112h68l102 76l102 -76h70z" />
    <glyph glyph-name="edieresis" unicode="&#xeb;" horiz-adv-x="516" 
d="M487 212q0 49 -13.5 94.5t-41.5 80.5t-69.5 55t-94.5 20q-105 0 -169.5 -64t-64.5 -167q0 -109 64.5 -176.5t175.5 -67.5q50 0 97.5 16.5t85.5 45.5v104h-8q-47 -37 -85 -55t-86 -18q-59 0 -97 36t-43 96h349zM376 294h-227q15 37 45 58t71 21q40 0 68.5 -21.5
t42.5 -57.5zM405 598l-51 51h-8l-50 -51l50 -50h8zM238 598l-50 51h-8l-51 -51l51 -50h8z" />
    <glyph glyph-name="igrave" unicode="&#xec;" horiz-adv-x="230" 
d="M159 0v441h-94v-441h94zM236 534l-130 112h-114l154 -112h90z" />
    <glyph glyph-name="iacute" unicode="&#xed;" horiz-adv-x="230" 
d="M159 0v441h-94v-441h94zM246 646h-114l-130 -112h90z" />
    <glyph glyph-name="icircumflex" unicode="&#xee;" horiz-adv-x="230" 
d="M160 0v441h-94v-441h94zM287 534l-111 112h-123l-108 -112h68l102 76l102 -76h70z" />
    <glyph glyph-name="idieresis" unicode="&#xef;" horiz-adv-x="230" 
d="M160 0v441h-94v-441h94zM266 598l-51 51h-8l-50 -51l50 -50h8zM99 598l-50 51h-8l-51 -51l51 -50h8z" />
    <glyph glyph-name="ograve" unicode="&#xf2;" horiz-adv-x="517" 
d="M495 222q0 47 -18 89.5t-50.5 75t-75.5 50.5t-92 18t-92 -18t-75.5 -50.5t-50.5 -75t-18 -89.5t18 -89t50 -74.5t75.5 -50.5t92.5 -18t92 18t75.5 50t50.5 74.5t18 89.5zM392 223q0 -27 -10.5 -52t-29.5 -44q-39 -39 -92 -39t-92 39q-19 19 -29.5 44t-10.5 52
q0 28 10.5 52.5t29.5 43.5t43 29.5t49 10.5q26 0 50 -10.5t42.5 -29.5t29 -44t10.5 -52zM376 534l-130 112h-114l154 -112h90z" />
    <glyph glyph-name="oacute" unicode="&#xf3;" horiz-adv-x="517" 
d="M495 222q0 47 -18 89.5t-50.5 75t-75.5 50.5t-92 18t-92 -18t-75.5 -50.5t-50.5 -75t-18 -89.5t18 -89t50 -74.5t75.5 -50.5t92.5 -18t92 18t75.5 50t50.5 74.5t18 89.5zM392 223q0 -27 -10.5 -52t-29.5 -44q-39 -39 -92 -39t-92 39q-19 19 -29.5 44t-10.5 52
q0 28 10.5 52.5t29.5 43.5t43 29.5t49 10.5q26 0 50 -10.5t42.5 -29.5t29 -44t10.5 -52zM426 646h-114l-130 -112h90z" />
    <glyph glyph-name="ocircumflex" unicode="&#xf4;" horiz-adv-x="517" 
d="M495 222q0 47 -18 89.5t-50.5 75t-75.5 50.5t-92 18t-92 -18t-75.5 -50.5t-50.5 -75t-18 -89.5t18 -89t50 -74.5t75.5 -50.5t92.5 -18t92 18t75.5 50t50.5 74.5t18 89.5zM392 223q0 -27 -10.5 -52t-29.5 -44q-39 -39 -92 -39t-92 39q-19 19 -29.5 44t-10.5 52
q0 28 10.5 52.5t29.5 43.5t43 29.5t49 10.5q26 0 50 -10.5t42.5 -29.5t29 -44t10.5 -52zM426 534l-111 112h-123l-108 -112h68l102 76l102 -76h70z" />
    <glyph glyph-name="odieresis" unicode="&#xf6;" horiz-adv-x="517" 
d="M495 222q0 47 -18 89.5t-50.5 75t-75.5 50.5t-92 18t-92 -18t-75.5 -50.5t-50.5 -75t-18 -89.5t18 -89t50 -74.5t75.5 -50.5t92.5 -18t92 18t75.5 50t50.5 74.5t18 89.5zM392 223q0 -27 -10.5 -52t-29.5 -44q-39 -39 -92 -39t-92 39q-19 19 -29.5 44t-10.5 52
q0 28 10.5 52.5t29.5 43.5t43 29.5t49 10.5q26 0 50 -10.5t42.5 -29.5t29 -44t10.5 -52zM395 598l-51 51h-8l-50 -51l50 -50h8zM228 598l-50 51h-8l-51 -51l51 -50h8z" />
    <glyph glyph-name="ugrave" unicode="&#xf9;" horiz-adv-x="476" 
d="M435 0v441h-94v-256q0 -44 -33 -75.5t-75 -31.5q-40 0 -67.5 31.5t-27.5 75.5v256h-94v-276q0 -75 49.5 -125.5t127.5 -50.5q68 0 120 36v-25h94zM345 534l-130 112h-114l154 -112h90z" />
    <glyph glyph-name="uacute" unicode="&#xfa;" horiz-adv-x="476" 
d="M435 0v441h-94v-256q0 -44 -33 -75.5t-75 -31.5q-40 0 -67.5 31.5t-27.5 75.5v256h-94v-276q0 -75 49.5 -125.5t127.5 -50.5q68 0 120 36v-25h94zM397 646h-114l-130 -112h89z" />
    <glyph glyph-name="ucircumflex" unicode="&#xfb;" horiz-adv-x="476" 
d="M435 0v441h-94v-256q0 -44 -33 -75.5t-75 -31.5q-40 0 -67.5 31.5t-27.5 75.5v256h-94v-276q0 -75 49.5 -125.5t127.5 -50.5q68 0 120 36v-25h94zM409 534l-110 112h-123l-109 -112h68l102 76l102 -76h70z" />
    <glyph glyph-name="udieresis" unicode="&#xfc;" horiz-adv-x="476" 
d="M435 0v441h-94v-256q0 -44 -33 -75.5t-75 -31.5q-40 0 -67.5 31.5t-27.5 75.5v256h-94v-276q0 -75 49.5 -125.5t127.5 -50.5q68 0 120 36v-25h94zM376 596l-51 50h-8l-50 -50l50 -50h8zM210 596l-51 50h-8l-50 -50l50 -50h8z" />
    <glyph glyph-name="circumflex" unicode="&#x2c6;" horiz-adv-x="347" 
d="M346 534l-111 112h-123l-108 -112h68l102 76l102 -76h70z" />
    <glyph glyph-name="endash" unicode="&#x2013;" horiz-adv-x="367" 
d="M345 212v83h-328v-83h328z" />
    <glyph glyph-name="emdash" unicode="&#x2014;" horiz-adv-x="520" 
d="M503 212v83h-489v-83h489z" />
    <glyph glyph-name="quoteleft" unicode="&#x2018;" horiz-adv-x="186" 
d="M176 646h-76l-107 -171h101z" />
    <glyph glyph-name="quoteright" unicode="&#x2019;" horiz-adv-x="186" 
d="M176 646h-100l-83 -171h77z" />
    <glyph glyph-name="quotesinglbase" unicode="&#x201a;" horiz-adv-x="512" 
d="M468 220q0 48 -14.5 90.5t-42.5 74t-67.5 49t-88.5 17.5q-47 0 -86.5 -17.5t-67.5 -49.5t-42.5 -74t-14.5 -89q0 -48 14.5 -90t42.5 -74t67 -49.5t87 -17.5t87.5 17.5t67.5 49.5t43 74t15 89zM370 219q0 -61 -29 -103t-83 -42t-83 42t-29 104q0 61 29.5 104t82.5 43
q54 0 83 -43t29 -105z" />
    <glyph glyph-name="quotedblleft" unicode="&#x201c;" horiz-adv-x="324" 
d="M317 646h-76l-107 -171h100zM176 646h-76l-107 -171h101z" />
    <glyph glyph-name="quotedblright" unicode="&#x201d;" horiz-adv-x="324" 
d="M317 646h-101l-82 -171h76zM176 646h-100l-83 -171h77z" />
    <glyph glyph-name="daggerdbl" unicode="&#x2021;" horiz-adv-x="495" 
d="M474 441h-433v-91h271l-298 -554h107z" />
    <glyph glyph-name="bullet" unicode="&#x2022;" horiz-adv-x="259" 
d="M242 357l-109 107h-7l-109 -107l109 -108h7z" />
    <glyph glyph-name="guilsinglleft" unicode="&#x2039;" horiz-adv-x="482" 
d="M448 441h-415v-87h257l-131 -232q37 0 67.5 -6t53.5 -21t36 -41t13 -66q0 -44 -31 -73.5t-72 -29.5q-44 0 -76.5 24.5t-54.5 68.5h-8l-63 -68q4 -18 17 -35t32.5 -32t39.5 -26t38 -17q31 -11 66 -11q45 0 85 14.5t70.5 41.5t47.5 64t17 81q0 65 -35.5 124t-95.5 75z" />
    <glyph glyph-name="guilsinglright" unicode="&#x203a;" horiz-adv-x="581" 
d="M541 0v89h-150v378h-8l-400 -467h309v-223l99 43v180h150zM290 89h-115l115 133v-133z" />
    </font>
</defs>
</svg>
