<?xml version="1.0" standalone="no"?>
<!DOCTYPE svg PUBLIC "-//W3C//DTD SVG 1.1//EN" "http://www.w3.org/Graphics/SVG/1.1/DTD/svg11.dtd" >
<svg xmlns="http://www.w3.org/2000/svg" xmlns:xlink="http://www.w3.org/1999/xlink" version="1.1">
<metadata>
Created by FontForge 20161003 at Tue May  9 06:08:52 2017
 By www-data
Copyright (c) May,3.05   Manfred Klein rev.1
</metadata>
<defs>
<font id="PetitaLight" horiz-adv-x="490" >
  <font-face 
    font-family="PetitaLight"
    font-weight="500"
    font-stretch="normal"
    units-per-em="1000"
    panose-1="2 0 6 6 4 0 0 2 0 3"
    ascent="800"
    descent="-200"
    x-height="449"
    cap-height="682"
    bbox="-215 -304 1035 917"
    underline-thickness="50"
    underline-position="-175"
    unicode-range="U+0005-E061"
  />
<missing-glyph horiz-adv-x="500" 
 />
    <glyph glyph-name=".notdef" horiz-adv-x="500" 
 />
    <glyph glyph-name=".null" horiz-adv-x="0" 
 />
    <glyph glyph-name="nonmarkingreturn" unicode="&#xe001;" horiz-adv-x="278" 
 />
    <glyph glyph-name="breve" horiz-adv-x="333" 
d="M303 647h-41q-17 -35 -41 -51q-25 -16 -55 -16q-29 0 -55 17q-24 16 -40 50h-41q17 -51 56 -83q37 -31 80 -31q44 0 81 31t56 83z" />
    <glyph glyph-name="dotaccent" horiz-adv-x="333" 
d="M210 548v88h-88v-88h88z" />
    <glyph glyph-name="ring" horiz-adv-x="333" 
d="M253 592q0 35 -26 61q-25 25 -61 25t-61 -25t-25 -61t25 -61t61 -25q37 0 62 25t25 61zM226 592q0 -26 -18 -42q-17 -17 -42 -17t-42 17t-17 42t17 42t42 17q24 0 43 -17q17 -17 17 -42z" />
    <glyph glyph-name="hungarumlaut" unicode="&#xa;" horiz-adv-x="333" 
d="M384 677h-81l-104 -156h34q19 21 37.5 40.5t36.5 37.5l37.5 37.5t39.5 40.5zM251 677h-81l-104 -156h34z" />
    <glyph glyph-name="ogonek" horiz-adv-x="333" 
d="M233 -165v38l-18 -1q-14 -1 -25.5 3t-21.5 11q-19 12 -19 43q0 23 19 45q19 24 34 36h-33q-33 -13 -54 -40q-18 -26 -18 -56q0 -40 28 -62q26 -22 67 -22z" />
    <glyph glyph-name="caron" horiz-adv-x="333" 
d="M304 676h-38l-100 -108l-99 108h-38l108 -164h58z" />
    <glyph glyph-name="dotlessi" unicode="&#xd;" horiz-adv-x="188" 
d="M118 0v449h-48v-449h48z" />
    <glyph glyph-name="fraction" horiz-adv-x="135" 
d="M350 691h-40l-525 -718h39z" />
    <glyph glyph-name="fi" horiz-adv-x="479" 
d="M409 0v449h-48v-449h48zM409 565q-6 69 -48 97q-43 29 -106 29q-74 0 -118 -47q-43 -46 -43 -131v-64h-83v-39h83v-410h48v410h94v39h-94v64q0 69 29 104q28 34 82 34q50 0 77 -21q27 -22 31 -65h37h11z" />
    <glyph glyph-name="fl" horiz-adv-x="479" 
d="M409 0v682h-48v-682h48zM314 629v47l-21 8q-18 7 -44 7q-67 0 -111 -44q-42 -44 -42 -115v-83h-83v-39h83v-410h48v410h93v39h-93v82q0 48 25 80q25 33 75 33q23 0 43 -7q11 -3 17.5 -5t9.5 -3z" />
    <glyph glyph-name="Lslash" horiz-adv-x="469" 
d="M469 0v44h-337v258l167 136v52l-167 -136v328h-53v-371l-121 -99v-52l121 99v-259h390z" />
    <glyph glyph-name="lslash" horiz-adv-x="188" 
d="M218 411v48l-100 -83v306h-48v-346l-97 -81v-48l97 81v-288h48v328z" />
    <glyph glyph-name="Zcaron" horiz-adv-x="635" 
d="M455 894h-38l-100 -108l-99 108h-38l108 -164h58zM611 0v44h-515l512 619l-5 19h-571v-44h488l-511 -623l5 -15h597z" />
    <glyph glyph-name="zcaron" horiz-adv-x="396" 
d="M338 676h-38l-100 -108l-99 108h-38l108 -164h58zM385 0v44h-295l295 390l-4 15h-355v-44h281l-297 -390l5 -15h370z" />
    <glyph glyph-name="space" unicode=" " horiz-adv-x="278" 
 />
    <glyph glyph-name="exclam" unicode="!" horiz-adv-x="177" 
d="M121 682h-65l17 -490h31zM121 0v97h-65v-97h65z" />
    <glyph glyph-name="quotedbl" unicode="&#x22;" horiz-adv-x="278" 
d="M241 570v114h-66v-113l12 -121h42zM104 570v114h-66v-113l12 -121h42z" />
    <glyph glyph-name="numbersign" unicode="#" horiz-adv-x="660" 
d="M583 210v46h-131l39 191h92v46h-82l42 205h-47l-42 -205h-188l42 205h-47l-42 -205h-142v-46h132l-39 -191h-93v-46h83l-43 -210h47l43 210h188l-43 -210h47l43 210h141zM444 447l-39 -191h-188l39 191h188z" />
    <glyph glyph-name="dollar" unicode="$" horiz-adv-x="521" 
d="M476 165q0 76 -47 117t-165 77q-85 26 -127 56q-40 27 -40 79t46 86q47 35 112 35q63 0 112 -23q23 -11 43 -22.5t36 -24.5v55q-29 23 -76 42q-34 14 -87 19l1 80h-48l-1 -80q-74 -6 -128 -51q-62 -50 -62 -122q0 -73 46 -110q45 -36 144 -65q94 -28 143 -60
q47 -32 47 -89q0 -53 -47 -91q-46 -37 -115 -37q-46 0 -106 23q-29 11 -58.5 28t-58.5 39v-55q33 -31 92 -57q23 -11 49 -16.5t55 -7.5v-107h48v107q75 7 129 51q63 52 63 124z" />
    <glyph glyph-name="percent" unicode="%" horiz-adv-x="698" 
d="M341 531q0 66 -47 113t-114 47q-65 0 -114 -47q-47 -47 -47 -113q0 -65 47 -114q47 -47 114 -47q66 0 114 48q47 47 47 113zM298 529q0 -47 -35 -82q-34 -34 -82 -34q-49 0 -84 35t-35 84q0 47 35 82q34 34 85 34q47 0 82 -35q34 -34 34 -84zM646 687h-51l-550 -698h51z
M680 147q0 66 -48 113q-47 47 -114 47q-65 0 -114 -47q-47 -47 -47 -113t48 -112q47 -47 113 -47t115 47q47 47 47 112zM637 145q0 -46 -35 -81q-35 -33 -83 -33q-49 0 -84 35q-35 33 -35 82q0 47 36 82q34 34 84 34q48 0 83 -35q34 -36 34 -84z" />
    <glyph glyph-name="ampersand" unicode="&#x26;" horiz-adv-x="615" 
d="M609 0l-141 148q25 33 48 78q28 55 48 114h-56q-10 -29 -21 -54t-22 -46q-7 -13 -15 -27t-18 -28l-154 162q58 28 97 69q46 46 46 113q0 66 -46 103q-44 37 -106 37q-64 0 -111 -43q-48 -42 -48 -103q0 -44 22 -81q22 -39 54 -71l10 -10q-71 -27 -120 -81
q-50 -56 -50 -126q0 -65 45 -114t133 -49q79 0 140 35q49 29 94 83l104 -109h67zM372 524q0 -44 -37 -83q-32 -32 -92 -57l-10 10q-14 14 -27 30t-24 33q-21 34 -21 67q0 45 34 70q35 26 75 26t72 -27q30 -26 30 -69zM403 145q-42 -52 -86 -78q-47 -27 -104 -27
q-59 0 -94 31q-36 31 -36 92q0 57 42 96t106 66z" />
    <glyph glyph-name="quotesingle" unicode="'" horiz-adv-x="222" 
d="M144 570v114h-66v-113l12 -121h42z" />
    <glyph glyph-name="parenleft" unicode="(" horiz-adv-x="333" 
d="M325 -220q-78 67 -136 185q-58 117 -58 266q0 146 59 266q59 119 135 185h-51q-68 -63 -132 -179q-62 -116 -62 -272q0 -158 63 -273q61 -114 131 -178h51z" />
    <glyph glyph-name="parenright" unicode=")" horiz-adv-x="333" 
d="M253 231q0 157 -63 273q-63 115 -133 178h-51q78 -66 137 -185q59 -120 59 -266t-59 -266q-59 -119 -137 -185h51q69 62 133 179q63 115 63 272z" />
    <glyph glyph-name="asterisk" unicode="*" horiz-adv-x="469" 
d="M422 409q-22 9 -38 16t-32.5 15.5t-37.5 19.5t-54 28q33 17 54 28t37.5 19.5t32.5 15.5t38 16l-25 45q-19 -15 -33 -25t-30 -20t-36.5 -23t-51.5 -33q2 37 3 60.5t2.5 42.5t3 36t4.5 41h-50q3 -24 4.5 -41t3 -36t2.5 -42.5t3 -60.5q-31 20 -51.5 33t-36.5 23t-30 20
t-33 25l-25 -45q22 -9 38 -16t32.5 -15.5t37.5 -19.5t54 -28q-33 -17 -54 -28t-37.5 -19.5t-32.5 -15.5t-38 -16l25 -45q19 15 33 25t30 20t36.5 23t51.5 33q-2 -37 -3 -60.5t-2.5 -42.5t-3 -36t-4.5 -41h50q-3 24 -4.5 41t-3 36t-2.5 42.5t-3 60.5q31 -20 51.5 -33
t36.5 -23t30 -20t33 -25z" />
    <glyph glyph-name="plus" unicode="+" horiz-adv-x="660" 
d="M592 331v44h-240v237h-44v-237h-240v-44h240v-240h44v240h240z" />
    <glyph glyph-name="comma" unicode="," horiz-adv-x="177" 
d="M121 17v80h-65v-97h21q0 -36 -7 -53q-3 -9 -11.5 -16.5t-12.5 -12.5v-35q14 11 31 25t26 33q18 37 18 76z" />
    <glyph glyph-name="hyphen" unicode="-" horiz-adv-x="313" 
d="M275 226v47h-237v-47h237z" />
    <glyph glyph-name="period" unicode="." horiz-adv-x="177" 
d="M120 0v98h-64v-98h64z" />
    <glyph glyph-name="slash" unicode="/" horiz-adv-x="281" 
d="M270 691h-47l-220 -700h47z" />
    <glyph glyph-name="zero" unicode="0" horiz-adv-x="500" 
d="M469 338v6q0 152 -59 250q-58 97 -159 97q-100 0 -160 -97q-59 -98 -59 -250v-6q0 -152 59 -250q58 -97 159 -97q100 0 160 97q59 98 59 250zM417 337q0 -127 -47 -213q-46 -85 -119 -85q-75 0 -121 85t-46 213v8q0 127 47 213q46 85 119 85q75 0 121 -85q46 -87 46 -213
v-8z" />
    <glyph glyph-name="one" unicode="1" horiz-adv-x="335" 
d="M257 0v682h-52v-52l-186 -185l35 -36l151 151v-560h52z" />
    <glyph glyph-name="two" unicode="2" horiz-adv-x="500" 
d="M470 0v47h-317q22 25 42.5 49.5t40.5 49.5q19 25 37 50.5t37 51.5q14 20 30 47.5t33 62.5q32 72 32 135q0 84 -58 141q-57 57 -143 57q-57 0 -97 -22q-43 -22 -62 -40v-61q34 32 70 54q37 21 85 21q66 0 109 -43q44 -44 44 -108q0 -59 -25 -115q-13 -29 -28 -57.5
t-35 -57.5q-50 -73 -101 -129q-24 -27 -51.5 -57t-59.5 -62v-14h417z" />
    <glyph glyph-name="three" unicode="3" horiz-adv-x="500" 
d="M429 192q0 59 -35 105q-35 44 -99 65q68 23 97 65q29 43 29 90q0 76 -56 126q-56 48 -142 48q-59 0 -98 -17q-38 -17 -51 -27v-49q7 5 19 11.5t31 15.5q37 18 92 18q67 0 111 -38q43 -37 43 -91q0 -57 -48 -94q-47 -37 -114 -37h-6v-48h10q40 0 70.5 -11.5t52.5 -31.5
q43 -40 43 -108q0 -65 -45 -105q-43 -40 -115 -40q-49 0 -90 11q-19 5 -34 11t-26 11v-47q18 -9 63 -22q43 -12 92 -12q91 0 149 55q57 55 57 146z" />
    <glyph glyph-name="four" unicode="4" horiz-adv-x="500" 
d="M471 263v41h-94v387h-20l-343 -411v-17h312v-263h51v263h94zM326 304h-241l241 291v-291z" />
    <glyph glyph-name="five" unicode="5" horiz-adv-x="500" 
d="M425 212q0 96 -61 154q-31 29 -70.5 44t-90.5 13l-58 -3v215h241v47h-289v-318q10 3 20.5 5.5t21.5 4.5q20 4 47 4q87 0 138 -45t51 -123q0 -75 -48 -123q-47 -48 -121 -48q-52 0 -98 21q-23 10 -39.5 18.5t-27.5 16.5v-59q21 -13 66 -29q44 -16 102 -16q94 0 156 62
q60 61 60 159z" />
    <glyph glyph-name="six" unicode="6" horiz-adv-x="500" 
d="M462 176q0 87 -54 140q-53 53 -140 53q-44 0 -84 -17q-37 -15 -65 -38q19 85 64 151q73 107 192 190l-30 36q-111 -77 -197 -195q-87 -119 -87 -263q0 -117 60 -180q59 -62 147 -62q82 0 138 53t56 132zM411 174q0 -58 -42 -97q-43 -38 -104 -38q-63 0 -110 50
q-45 49 -45 137v15q0 8 1 15q15 17 54 40q41 25 99 25q64 0 106 -42q41 -41 41 -105z" />
    <glyph glyph-name="seven" unicode="7" horiz-adv-x="500" 
d="M474 682h-445v-47h372l-282 -625l43 -19z" />
    <glyph glyph-name="eight" unicode="8" horiz-adv-x="500" 
d="M445 187q0 57 -29 101q-29 43 -72 66q45 33 66 70q21 36 21 86q0 74 -52 127q-53 54 -124 54q-79 0 -132 -53t-53 -131q0 -40 20 -80q19 -38 69 -73q-46 -24 -75 -68q-28 -43 -28 -101q0 -81 57 -138q56 -56 137 -56q83 0 139 56t56 140zM380 507q0 -54 -38 -92t-91 -38
q-52 0 -92 38q-38 38 -38 89q0 62 36 100t94 38q55 0 93 -38q36 -38 36 -97zM394 185q0 -61 -41 -104q-41 -42 -101 -42q-62 0 -104 42q-41 41 -41 103q0 63 41 104t104 41q59 0 101 -42q41 -43 41 -102z" />
    <glyph glyph-name="nine" unicode="9" horiz-adv-x="500" 
d="M435 444q0 122 -60 185q-59 62 -152 62q-82 0 -137 -54q-54 -54 -54 -137q0 -78 55 -132q56 -53 136 -53q47 0 93 20q34 16 59 33q-10 -45 -26.5 -84t-42.5 -74q-38 -52 -85.5 -97t-104.5 -85l28 -37q157 115 225 228q66 112 66 225zM382 450v-12q0 -5 -1 -10
q-19 -20 -57 -41q-44 -24 -99 -24q-58 0 -101 41q-41 41 -41 96q0 61 41 102t101 41q73 0 115 -47t42 -146z" />
    <glyph glyph-name="colon" unicode=":" horiz-adv-x="177" 
d="M120 352v98h-64v-98h64zM120 0v98h-64v-98h64z" />
    <glyph glyph-name="semicolon" unicode=";" horiz-adv-x="177" 
d="M120 352v98h-64v-98h64zM121 17v80h-65v-97h21q0 -36 -7 -53q-3 -9 -11.5 -16.5t-12.5 -12.5v-35q14 11 31 25t26 33q18 37 18 76z" />
    <glyph glyph-name="less" unicode="&#x3c;" horiz-adv-x="660" 
d="M592 110v49l-464 192l464 192v49l-524 -220v-42z" />
    <glyph glyph-name="equal" unicode="=" horiz-adv-x="660" 
d="M592 450v44h-524v-44h524zM592 208v44h-524v-44h524z" />
    <glyph glyph-name="greater" unicode="&#x3e;" horiz-adv-x="660" 
d="M592 330v42l-524 220v-49l463 -192l-463 -192v-49z" />
    <glyph glyph-name="question" unicode="?" horiz-adv-x="281" 
d="M241 550q0 57 -31 100q-32 42 -95 42q-24 0 -41 -7q-5 -2 -17 -7.5t-20.5 -9.5t-9.5 -5l17 -43q2 1 14 7.5t29 14t27 7.5q33 0 55 -28q21 -27 21 -66q0 -44 -20 -86q-20 -41 -54 -96q-24 -39 -34 -66q-8 -27 -8 -55q0 -23 13 -48q11 -23 26 -39l17 15q-7 13 -10.5 22.5
t-5.5 14.5q-1 5 -1.5 11t-0.5 12q0 23 7 44q7 22 30 55q50 72 71 113q21 42 21 98zM150 0v97h-65v-97h65z" />
    <glyph glyph-name="at" unicode="@" horiz-adv-x="800" 
d="M708 87h-38q-29 -44 -101 -81q-72 -36 -162 -36q-111 0 -198 83q-88 82 -88 212q0 126 85 212q86 86 202 86q109 0 183 -72t74 -167q0 -90 -51 -156q-51 -65 -97 -65q-4 0 -11 11q-3 4 -3 16q0 9 3 24l62 290h-47l-12 -61q-14 38 -49 57q-34 19 -63 19q-88 0 -142 -73
q-53 -74 -53 -155q0 -79 40 -120q39 -42 92 -42q40 0 75 23q33 22 49 46q6 -41 18 -56q13 -15 26 -15q69 0 131 76q62 74 62 179q0 110 -81 191t-208 81q-132 0 -225 -98q-92 -98 -92 -227q0 -132 90 -231t234 -99q102 0 185 49q83 48 110 99zM491 312q0 -26 -11 -58.5
t-31 -70.5q-42 -78 -106 -78q-33 0 -63 31q-30 30 -30 92q0 72 40 134q43 64 103 64q45 0 71 -33q27 -33 27 -81z" />
    <glyph glyph-name="A" unicode="A" horiz-adv-x="667" 
d="M662 0l-314 687h-29l-315 -687h55l108 236h333l108 -236h54zM480 280h-293l146 321z" />
    <glyph glyph-name="B" unicode="B" horiz-adv-x="531" 
d="M508 185q0 71 -45 115q-43 42 -113 54q51 27 75 64t24 86q0 85 -59 132q-58 46 -162 46h-148v-682h199q107 0 168 49q61 48 61 136zM392 499q0 -65 -47 -100q-47 -33 -132 -33h-80v272h77q90 0 136 -34t46 -105zM452 180q0 -65 -49 -101q-50 -35 -134 -35h-136v278h119
q96 0 149 -35q51 -35 51 -107z" />
    <glyph glyph-name="C" unicode="C" horiz-adv-x="677" 
d="M655 56v55q-23 -13 -49.5 -25.5t-58.5 -23.5q-62 -22 -135 -22q-136 0 -221 84t-85 217q0 129 87 215q86 86 216 86q66 0 126 -19q64 -20 112 -48v59q-50 26 -113 42q-63 15 -116 15q-158 0 -264 -100q-105 -101 -105 -250q0 -155 105 -252q104 -98 267 -98q59 0 122 19
q32 10 60.5 21t51.5 25z" />
    <glyph glyph-name="D" unicode="D" horiz-adv-x="740" 
d="M689 340q0 159 -99 251q-99 91 -268 91h-243v-682h250q170 0 265 95t95 245zM632 340q0 -134 -87 -215t-230 -81h-183v594h185q143 0 229 -82q86 -83 86 -216z" />
    <glyph glyph-name="E" unicode="E" 
d="M460 0v44h-327v277l311 1v43h-311v273h320v44h-373v-682h380z" />
    <glyph glyph-name="F" unicode="F" horiz-adv-x="438" 
d="M431 638v44h-353v-682h53v335h269v44h-269v259h300z" />
    <glyph glyph-name="G" unicode="G" horiz-adv-x="719" 
d="M662 49v261h-196v-44h144v-184q-26 -15 -76 -29q-48 -13 -106 -13q-144 0 -233 83q-88 82 -88 219q0 129 87 215q88 85 217 85q64 0 124 -19q59 -17 115 -50v60q-28 16 -95 37q-66 21 -144 21q-155 0 -258 -100q-103 -99 -103 -248q0 -152 106 -252q104 -100 265 -100
q67 0 132 17q62 17 109 41z" />
    <glyph glyph-name="H" unicode="H" horiz-adv-x="719" 
d="M639 0v682h-53v-315h-454v315h-53v-682h53v323h454v-323h53z" />
    <glyph glyph-name="I" unicode="I" horiz-adv-x="208" 
d="M130 0v682h-52v-682h52z" />
    <glyph glyph-name="J" unicode="J" horiz-adv-x="208" 
d="M136 -7v689h-53v-678q0 -75 -24 -115q-22 -40 -72 -40l-32 4l5 -50l34 -2q31 -2 56.5 11t45.5 36q40 46 40 145z" />
    <glyph glyph-name="K" unicode="K" horiz-adv-x="531" 
d="M129 0v342l357 -342h67l-356 342l325 340h-66l-327 -340v340h-53v-682h53z" />
    <glyph glyph-name="L" unicode="L" horiz-adv-x="469" 
d="M469 0v44h-337v638h-53v-682h390z" />
    <glyph glyph-name="M" unicode="M" horiz-adv-x="781" 
d="M702 0v682h-53l-259 -317l-260 317h-53v-682h53v607l260 -321l259 321v-607h53z" />
    <glyph glyph-name="N" unicode="N" horiz-adv-x="771" 
d="M694 0v682h-53v-598q-65 78 -129 152t-130 147t-130 147t-129 152h-45v-682h53v596l518 -596h45z" />
    <glyph glyph-name="O" unicode="O" horiz-adv-x="823" 
d="M773 341q0 149 -104 250q-105 100 -257 100q-154 0 -258 -101q-103 -100 -103 -249t104 -250q103 -100 257 -100q153 0 257 101t104 249zM716 341q0 -124 -89 -213q-88 -88 -215 -88q-128 0 -216 88t-88 213q0 124 89 213q88 88 215 88t215 -88q89 -89 89 -213z" />
    <glyph glyph-name="P" unicode="P" horiz-adv-x="510" 
d="M488 500q0 89 -57 136q-57 46 -160 46h-193v-682h53v319h135q104 0 163 47t59 134zM432 501q0 -67 -45 -103q-44 -35 -125 -35h-131v275h137q76 0 120 -37q44 -36 44 -100z" />
    <glyph glyph-name="Q" unicode="Q" horiz-adv-x="823" 
d="M773 341q0 150 -104 250q-51 51 -115.5 75.5t-141.5 24.5q-154 0 -258 -101q-103 -100 -103 -249q0 -150 103 -250q86 -84 220 -98q81 -72 173 -103q97 -33 137 -33l-4 54l-14 1.5t-34.5 4.5t-43 8t-38.5 12q-28 11 -53.5 25t-48.5 30q133 14 221 99q104 101 104 250z
M716 341q0 -124 -89 -213q-88 -88 -215 -88q-128 0 -216 88t-88 213q0 124 89 213q88 88 215 88t215 -88q89 -89 89 -213z" />
    <glyph glyph-name="R" unicode="R" horiz-adv-x="573" 
d="M595 0l-128 196l-28 42t-30 43q-31 42 -58 59q50 16 90 58q39 40 39 106q0 86 -60 133q-60 45 -169 45h-172v-682h53v327h104q70 0 106 -41q18 -20 35.5 -45t35.5 -54l120 -187h62zM423 505q0 -65 -47 -100q-46 -34 -131 -34h-113v267h118q80 0 127 -35q46 -34 46 -98z
" />
    <glyph glyph-name="S" unicode="S" horiz-adv-x="469" 
d="M427 173q0 78 -38 121q-37 41 -141 79q-78 29 -112 58q-33 28 -33 84q0 52 42 90q40 37 101 37q51 0 90 -19q20 -10 36.5 -18t27.5 -15l-1 58q-5 4 -19 10.5t-37 15.5q-46 17 -103 17q-78 0 -137 -53q-57 -53 -57 -125q0 -74 39 -113q38 -39 122 -68q82 -28 124 -62
q40 -33 40 -94q0 -58 -42 -97t-104 -39q-39 0 -79 18q-20 9 -43 22.5t-48 32.5v-62q11 -8 28.5 -17.5t42.5 -20.5q48 -22 108 -22q79 0 136 54t57 128z" />
    <glyph glyph-name="T" unicode="T" horiz-adv-x="573" 
d="M569 638v44h-565v-44h256v-638h53v638h256z" />
    <glyph glyph-name="U" unicode="U" horiz-adv-x="698" 
d="M635 296v386h-53v-382q0 -119 -63 -189q-62 -71 -168 -71q-107 0 -171 69q-63 69 -63 186v387h-53v-391q0 -132 80 -217q80 -83 206 -83t206 86q79 87 79 219z" />
    <glyph glyph-name="V" unicode="V" horiz-adv-x="594" 
d="M593 682h-55l-240 -577l-242 577h-53l287 -689h15z" />
    <glyph glyph-name="W" unicode="W" horiz-adv-x="1031" 
d="M1031 682h-53l-226 -566l-228 566h-16l-229 -565l-226 565h-54l274 -689h14l229 576l229 -576h13z" />
    <glyph glyph-name="X" unicode="X" horiz-adv-x="688" 
d="M689 0l-311 349l293 333h-68l-259 -294l-260 294h-68l293 -333l-309 -349h68l276 312l276 -312h69z" />
    <glyph glyph-name="Y" unicode="Y" horiz-adv-x="583" 
d="M583 682h-64l-227 -270l-228 270h-64l265 -316v-366h53v366z" />
    <glyph glyph-name="Z" unicode="Z" horiz-adv-x="635" 
d="M611 0v44h-515l512 619l-5 19h-571v-44h488l-511 -623l5 -15h597z" />
    <glyph glyph-name="bracketleft" unicode="[" horiz-adv-x="302" 
d="M295 -220v47h-178v808h178v47h-226v-902h226z" />
    <glyph glyph-name="backslash" unicode="\" horiz-adv-x="281" 
d="M278 -9l-219 700h-46l219 -700h46z" />
    <glyph glyph-name="bracketright" unicode="]" horiz-adv-x="302" 
d="M233 -220v902h-226v-47h178v-808h-178v-47h226z" />
    <glyph glyph-name="asciicircum" unicode="^" horiz-adv-x="660" 
d="M550 430l-217 258h-6l-216 -258l31 -28l188 225l189 -225z" />
    <glyph glyph-name="underscore" unicode="_" horiz-adv-x="500" 
d="M507 -304v50h-513v-50h513z" />
    <glyph glyph-name="grave" unicode="`" horiz-adv-x="333" 
d="M262 521l-104 156h-81l153 -156h32z" />
    <glyph glyph-name="a" unicode="a" horiz-adv-x="510" 
d="M446 -2v451h-47v-31q-32 19 -68 30q-33 10 -67 10q-100 0 -164 -69q-63 -69 -63 -177q0 -97 61 -159q62 -62 156 -62q43 0 77 10q37 10 67 24v-27h48zM399 75q-22 -14 -57 -28q-33 -12 -79 -12q-79 0 -127 49q-48 48 -48 129q0 86 53 142t133 56q42 0 77 -15
q35 -16 48 -25v-296z" />
    <glyph glyph-name="b" unicode="b" horiz-adv-x="510" 
d="M471 236q0 101 -55 162q-56 60 -147 60q-43 0 -83 -18q-40 -16 -76 -57v299h-48l1 -657q31 -14 73 -25q39 -9 80 -9q119 0 187 68t68 177zM421 234q0 -83 -57 -140q-58 -56 -141 -56q-40 0 -72 8q-29 7 -41 14v273q11 13 26.5 26.5t35.5 28.5q40 30 96 30q67 0 110 -52
q43 -54 43 -132z" />
    <glyph glyph-name="c" unicode="c" horiz-adv-x="417" 
d="M387 14v50q-18 -8 -49 -17q-32 -9 -69 -9q-83 0 -129 51q-47 50 -47 135q0 82 47 135q46 52 123 52q40 0 67 -10q14 -5 26.5 -9t22.5 -9v53q-14 5 -27.5 8.5t-27.5 7.5q-29 6 -62 6q-101 0 -161 -69q-59 -68 -59 -165q0 -107 60 -170t165 -63q38 0 73 9q17 5 28.5 8.5
t18.5 5.5z" />
    <glyph glyph-name="d" unicode="d" horiz-adv-x="510" 
d="M450 0v682h-48v-260q-19 12 -57 25q-36 11 -69 11q-105 0 -170 -65t-65 -169q0 -99 66 -166t162 -67q39 0 69 10q30 11 64 34v-35h48zM401 79q-5 -4 -15 -10.5t-26 -14.5q-29 -16 -80 -16q-81 0 -135 54q-53 53 -53 132q0 82 51 135q49 52 130 52q44 0 77 -15
q35 -16 51 -28v-289z" />
    <glyph glyph-name="e" unicode="e" horiz-adv-x="479" 
d="M446 241q0 94 -56 156q-55 61 -143 61q-91 0 -149 -66q-58 -65 -58 -161q0 -105 65 -173q64 -67 166 -67q53 0 98 20q22 10 38.5 20t29.5 20v54q-10 -9 -26 -19.5t-38 -23.5q-44 -24 -98 -24q-79 0 -132 53q-53 51 -53 130v11t1 9h355zM387 280h-291q14 49 37 78
q43 53 115 53q60 0 95 -35q33 -33 44 -96z" />
    <glyph glyph-name="f" unicode="f" horiz-adv-x="240" 
d="M332 627v45q-5 4 -29 11q-26 8 -52 8q-69 0 -113 -47t-44 -121v-74h-83v-39h83v-410h48v410h87v39h-87v59q0 70 27 103t79 33q28 0 55 -8q12 -4 19.5 -6t9.5 -3z" />
    <glyph glyph-name="g" unicode="g" horiz-adv-x="510" 
d="M447 -92h-1v541h-47v-31q-32 19 -68 30q-33 10 -67 10q-100 0 -164 -69q-63 -69 -63 -177q0 -97 61 -159q62 -62 156 -62q43 0 77 10q37 10 67 24v-117q0 -16 -12.5 -30.5t-30.5 -26t-38 -18t-34 -6.5q-35 0 -66 20q-14 10 -25.5 26t-21.5 36l-50 -1q21 -62 66 -100
q44 -37 97 -37q24 0 52.5 11.5t53.5 31t41.5 44t16.5 50.5zM399 75q-22 -14 -57 -28q-33 -12 -79 -12q-79 0 -127 49q-48 48 -48 129q0 86 53 142t133 56q42 0 77 -15q35 -16 48 -25v-296z" />
    <glyph glyph-name="h" unicode="h" 
d="M428 0v271q0 88 -46 137q-47 50 -125 50q-44 0 -79 -20q-34 -19 -68 -71v315h-48v-682h48v317q25 38 58 66q34 28 89 28q60 0 92 -41q31 -42 31 -114v-256h48z" />
    <glyph glyph-name="i" unicode="i" horiz-adv-x="188" 
d="M118 600v82h-48v-82h48zM118 0v449h-48v-449h48z" />
    <glyph glyph-name="j" unicode="j" horiz-adv-x="188" 
d="M116 600v82h-48v-82h48zM116 -32v481h-48v-496q0 -80 -24 -111q-25 -31 -68 -31h-4l13 -41q47 0 89 42q42 40 42 156z" />
    <glyph glyph-name="k" unicode="k" horiz-adv-x="427" 
d="M463 0l-284 236l246 213h-63l-248 -213l284 -236h65zM107 0v236v446h-48v-682h48z" />
    <glyph glyph-name="l" unicode="l" horiz-adv-x="188" 
d="M118 0v682h-48v-682h48z" />
    <glyph glyph-name="m" unicode="m" horiz-adv-x="771" 
d="M709 0v271q0 83 -40 135q-39 52 -105 52h-12q-58 0 -96 -35q-39 -36 -58 -72q-28 63 -63 85q-34 22 -72 22h-12q-43 0 -78 -20q-34 -20 -66 -71v82h-47v-449h48v316q12 19 25.5 36t29.5 31q33 28 82 28q57 0 87 -41q29 -41 29 -114v-256h48v306q22 36 55 71q33 34 77 34
q57 0 89 -41q31 -40 31 -114v-256h48z" />
    <glyph glyph-name="n" unicode="n" 
d="M428 0v271q0 88 -46 137q-47 50 -125 50q-45 0 -80 -20q-34 -19 -68 -71v82h-47v-449h48v317q25 38 58 66q34 28 89 28q60 0 92 -41q31 -42 31 -114v-256h48z" />
    <glyph glyph-name="o" unicode="o" horiz-adv-x="542" 
d="M500 224q0 99 -66 167q-64 67 -163 67q-98 0 -164 -67q-65 -68 -65 -167t66 -166q64 -67 163 -67q98 0 164 67q65 68 65 166zM449 224q0 -77 -52 -132q-53 -54 -126 -54q-74 0 -126 55q-52 53 -52 131t52 133q52 54 126 54t126 -55q52 -53 52 -132z" />
    <glyph glyph-name="p" unicode="p" horiz-adv-x="510" 
d="M469 225q0 103 -64 168q-65 65 -164 65q-32 0 -66 -9q-36 -9 -63 -25v25h-49v-679h48v255q17 -8 33.5 -14.5t33.5 -11.5q35 -8 73 -8q90 0 154 70t64 164zM416 224q0 -81 -50 -134q-49 -52 -131 -52q-43 0 -74 12q-29 10 -50 21v308q7 4 18 9t27 11q30 12 73 12
q80 0 134 -54q53 -53 53 -133z" />
    <glyph glyph-name="q" unicode="q" horiz-adv-x="510" 
d="M446 -230v679h-47v-31q-32 19 -68 30q-33 10 -67 10q-100 0 -164 -69q-63 -69 -63 -177q0 -97 61 -159q62 -62 156 -62q43 0 77 10q37 10 67 24v-255h48zM399 75q-22 -14 -57 -28q-33 -12 -79 -12q-79 0 -127 49q-48 48 -48 129q0 86 53 142t133 56q42 0 77 -15
q35 -16 48 -25v-296z" />
    <glyph glyph-name="r" unicode="r" horiz-adv-x="333" 
d="M373 404q-7 9 -38 31q-32 23 -65 23q-20 0 -40.5 -4t-41.5 -21q-20 -17 -39.5 -36t-37.5 -49v101h-48v-449h48v283q20 36 61 81q42 47 84 47q19 0 42 -14q11 -7 22.5 -16t24.5 -21z" />
    <glyph glyph-name="s" unicode="s" horiz-adv-x="354" 
d="M323 116q0 54 -37 84q-39 31 -95 50q-44 16 -74 36q-27 19 -27 52q0 31 27 54q25 22 72 22q32 0 65 -14q16 -7 29.5 -15t25.5 -17v51q-15 13 -48 26q-17 6 -35.5 9.5t-40.5 3.5q-54 0 -98 -35q-43 -34 -43 -86q0 -48 30 -76q31 -30 86 -49q73 -27 96 -48q21 -21 21 -47
q0 -36 -28 -58q-29 -21 -71 -21q-35 0 -73 13q-38 12 -64 29v-48q18 -11 52 -27q36 -15 85 -15q62 0 103 37q42 37 42 89z" />
    <glyph glyph-name="t" unicode="t" horiz-adv-x="302" 
d="M293 13v47q-21 -10 -41 -16t-38 -6q-43 0 -57 17q-13 16 -13 69v286h126v39h-126v149h-15l-33 -22v-127h-121v-39h121v-319q0 -47 28 -74q29 -26 77 -26q26 0 47 6q11 3 22 7t23 9z" />
    <glyph glyph-name="u" unicode="u" 
d="M428 0v449h-48v-314q-17 -33 -56 -65q-38 -32 -90 -32q-59 0 -92 38q-32 38 -32 106v267h-48v-277q0 -88 47 -135q46 -46 131 -46q37 0 74 20q35 19 66 67v-78h48z" />
    <glyph glyph-name="v" unicode="v" horiz-adv-x="427" 
d="M427 449h-47l-162 -378l-169 378h-49l204 -458h30z" />
    <glyph glyph-name="w" unicode="w" horiz-adv-x="708" 
d="M707 449h-47l-156 -366l-141 366h-22l-141 -366l-153 366h-47l192 -458h22l139 365l138 -365h23z" />
    <glyph glyph-name="x" unicode="x" horiz-adv-x="479" 
d="M482 449h-62l-176 -186l-176 186h-62l205 -219l-205 -230h62l176 197l176 -197h61l-205 230z" />
    <glyph glyph-name="y" unicode="y" horiz-adv-x="417" 
d="M422 449h-49l-154 -314l-162 314h-52l190 -363l-157 -316h49z" />
    <glyph glyph-name="z" unicode="z" horiz-adv-x="396" 
d="M385 0v44h-295l295 390l-4 15h-355v-44h281l-297 -390l5 -15h370z" />
    <glyph glyph-name="braceleft" unicode="{" horiz-adv-x="333" 
d="M287 -220v54h-16q-33 0 -53 20q-19 18 -19 70v126q0 79 -27 123q-27 41 -69 58q43 17 69 59q27 42 27 122v126q0 51 20 71q21 19 52 19h16v54h-13q-74 0 -103 -44q-28 -43 -28 -106v-145q0 -56 -23 -88q-22 -30 -70 -38v-60q48 -8 70 -38q23 -32 23 -88v-145
q0 -62 29 -106t102 -44h13z" />
    <glyph glyph-name="bar" unicode="|" horiz-adv-x="222" 
d="M134 -250v1000h-48v-1000h48z" />
    <glyph glyph-name="braceright" unicode="}" horiz-adv-x="333" 
d="M284 201v60q-48 8 -71 38q-23 32 -23 88v145q0 62 -29 106t-102 44h-13v-54h16q33 0 53 -20q19 -18 19 -70v-126q0 -80 28 -123q27 -41 69 -58q-42 -17 -70 -59q-27 -42 -27 -122v-126q0 -51 -20 -71q-21 -19 -52 -19h-16v-54h13q74 0 103 44q28 45 28 106v145
q0 56 24 88q22 30 70 38z" />
    <glyph glyph-name="asciitilde" unicode="~" horiz-adv-x="660" 
d="M594 392q-16 -11 -32.5 -22t-35.5 -22q-37 -23 -70 -23q-41 0 -122 40q-83 39 -130 39q-49 0 -89 -27q-20 -13 -32 -21t-16 -11v-55q13 11 28.5 22t35.5 22q40 23 74 23q41 0 122 -40q82 -39 130 -39q47 0 88 27q20 13 32 21t16 11z" />
    <glyph glyph-name="exclamdown" unicode="&#xa1;" horiz-adv-x="177" 
d="M121 364v97h-65v-97h65zM121 -221l-17 490h-31l-17 -490h65z" />
    <glyph glyph-name="cent" unicode="&#xa2;" horiz-adv-x="417" 
d="M410 638h-44l-65 -183q-17 3 -39 3q-101 0 -161 -69q-59 -68 -59 -165q0 -107 60 -170q18 -18 45 -35l-73 -208h44l68 192q28 -12 81 -12q38 0 73 9q17 5 28.5 8.5t18.5 5.5v50q-18 -8 -49 -17q-32 -9 -69 -9q-42 0 -67 11l125 353q1 -1 3 -1q14 -5 26.5 -9t22.5 -9v53
l-18 6t-19 5zM285 410l-121 -343q-15 12 -24 21q-47 50 -47 136q0 82 47 135q46 52 123 52h12t10 -1z" />
    <glyph glyph-name="sterling" unicode="&#xa3;" horiz-adv-x="552" 
d="M539 13v53q-13 -7 -25 -11.5t-23 -8.5q-20 -7 -49 -7q-11 0 -30.5 3t-48.5 8t-54 8.5t-47 1.5l-103 -7l67 254h120v47h-106l36 101q29 82 79 135q25 26 55.5 41t67.5 12l26 -2l27 -6l-24 47l-45 9q-91 0 -152 -76q-31 -38 -51 -76.5t-33 -76.5l-36 -108h-96v-47h84
q-2 0 -39 -142q-38 -141 -45 -147v-23q17 3 34.5 6t36.5 6q19 2 40 3.5t45 1.5q44 0 108 -11q59 -10 83 -10q34 0 58 7t40 15z" />
    <glyph glyph-name="currency" unicode="&#xa4;" horiz-adv-x="677" 
d="M665 56v55q-23 -13 -49.5 -25.5t-58.5 -23.5q-62 -22 -135 -22q-136 0 -221 84q-43 43 -65 99h496v40h-508q-8 38 -8 78q0 57 16 102h500v40h-483q19 40 54 73q86 86 216 86q66 0 126 -19q64 -20 112 -48v59q-50 26 -113 42q-63 15 -116 15q-158 0 -264 -100
q-51 -50 -76 -108h-80v-40h65q-14 -50 -14 -102q0 -20 1.5 -40t5.5 -38h-58v-40h69q26 -77 87 -134q104 -98 267 -98q59 0 122 19q32 10 60.5 21t51.5 25z" />
    <glyph glyph-name="currency" unicode="&#x20ac;" horiz-adv-x="677" 
d="M665 56v55q-23 -13 -49.5 -25.5t-58.5 -23.5q-62 -22 -135 -22q-136 0 -221 84q-43 43 -65 99h496v40h-508q-8 38 -8 78q0 57 16 102h500v40h-483q19 40 54 73q86 86 216 86q66 0 126 -19q64 -20 112 -48v59q-50 26 -113 42q-63 15 -116 15q-158 0 -264 -100
q-51 -50 -76 -108h-80v-40h65q-14 -50 -14 -102q0 -20 1.5 -40t5.5 -38h-58v-40h69q26 -77 87 -134q104 -98 267 -98q59 0 122 19q32 10 60.5 21t51.5 25z" />
    <glyph glyph-name="yen" unicode="&#xa5;" horiz-adv-x="556" 
d="M555 716h-70l-204 -354l-207 354h-72l213 -354h-184v-47h212l4 -7v-69h-216v-47h216v-192h64v192h212v47h-212v69l4 7h208v47h-180z" />
    <glyph glyph-name="brokenbar" unicode="&#xa6;" horiz-adv-x="222" 
d="M134 325v425h-48v-425h48zM134 -250v425h-48v-425h48z" />
    <glyph glyph-name="section" unicode="&#xa7;" horiz-adv-x="396" 
d="M370 178q0 49 -25 90q-23 41 -69 82l-93 83q-37 34 -56 66q-19 31 -19 62q0 43 31 65q29 22 63 22q28 0 53 -17q24 -18 31 -50h51q-10 59 -50 85q-37 25 -80 25q-63 0 -106 -35q-41 -35 -41 -98q0 -32 14 -63t37 -57q-38 -34 -63 -77q-23 -43 -23 -78q0 -49 25 -90
q12 -21 29.5 -41.5t40.5 -40.5l92 -83q37 -34 56 -66q20 -32 20 -62q0 -43 -31 -65t-64 -22q-28 0 -53 17q-23 17 -30 50h-51q10 -60 49 -85q37 -25 81 -25q63 0 106 35q41 35 41 98q0 32 -14 63t-37 57q38 35 62 77q23 43 23 78zM320 178q0 -30 -13 -57q-7 -14 -20 -30.5
t-33 -34.5l-125 114q-8 8 -16.5 19.5t-18.5 26.5q-19 28 -19 69q0 30 13 57q7 14 20 30.5t33 34.5l125 -114q8 -8 16.5 -19.5t18.5 -26.5q19 -28 19 -69z" />
    <glyph glyph-name="dieresis" unicode="&#xa8;" horiz-adv-x="333" 
d="M269 558v68h-68v-68h68zM132 558v68h-68v-68h68z" />
    <glyph glyph-name="copyright" unicode="&#xa9;" horiz-adv-x="800" 
d="M772 356q0 154 -109 263t-264 109q-154 0 -263 -109t-109 -264q0 -154 109 -263t264 -109q154 0 263 109t109 264zM725 355q0 -134 -96 -230q-95 -95 -230 -95q-134 0 -230 96q-95 95 -95 230q0 134 96 230q95 95 230 95q134 0 230 -96q95 -95 95 -230zM566 270l-44 16
q-13 -44 -45 -73q-32 -27 -75 -27q-67 0 -101 51q-35 52 -35 126q0 66 37 110q36 45 104 45q38 0 66 -22q28 -23 42 -59l47 12q-22 49 -61 79q-40 31 -92 31q-88 0 -142 -58q-53 -58 -53 -143q0 -97 55 -156q54 -60 136 -60q56 0 100 35q45 36 61 93z" />
    <glyph glyph-name="ordfeminine" unicode="&#xaa;" horiz-adv-x="281" 
d="M277 435v24q-5 -3 -10 -6.5t-12 -7.5q-14 -9 -22 -10l-6 12v170q0 36 -25 55q-23 19 -68 19q-32 0 -60 -12q-28 -11 -35 -18v-29q5 4 13.5 9.5t21.5 12.5q26 13 57 13t48 -13q17 -14 17 -44v-34q-40 -1 -61 -6q-10 -2 -19.5 -4.5t-19.5 -5.5q-30 -10 -52 -32
q-21 -20 -21 -55q0 -28 24 -47q23 -20 60 -20q21 0 48 11q23 9 41 25q0 -16 5 -26q4 -9 16 -9q14 0 33 11q9 5 15.5 9t11.5 8zM196 466q-7 -5 -15.5 -11t-19.5 -13q-21 -12 -48 -12t-44 14q-15 12 -15 31q0 25 19 41q21 18 45 25q15 5 27 7t20 3t16 1h15v-86z" />
    <glyph glyph-name="guillemotleft" unicode="&#xab;" horiz-adv-x="500" 
d="M482 6l-189 225l187 225h-61l-187 -225l189 -225h61zM270 6l-189 225l187 225h-61l-187 -225l189 -225h61z" />
    <glyph glyph-name="logicalnot" unicode="&#xac;" horiz-adv-x="672" 
d="M455 490q-14 5 -23.5 9.5l-19 9t-21 10.5t-27.5 15q16 8 27.5 14t21 10.5l19 9t23.5 9.5l-19 34q-14 -11 -23 -17t-17 -11q-8 -6 -18.5 -12.5t-25.5 -15.5q1 18 1.5 30.5t1.5 23t1.5 21t2.5 25.5h-37q2 -15 3 -25.5t1.5 -21t0.5 -23.5q0 -12 1 -30q-15 9 -25.5 15.5
t-18.5 12.5q-8 5 -17 11t-23 17l-18 -34q13 -5 23 -9.5t19 -9t20 -10.5t28 -14q-17 -9 -28 -15t-20 -10.5t-19 -9t-23 -9.5l18 -35q14 11 22.5 17t17.5 12q8 5 18.5 11.5t25.5 16.5q-1 -19 -1 -32q0 -12 -0.5 -22.5t-1.5 -20.5t-3 -25h37q-2 15 -2.5 25t-1.5 20.5t-1.5 23
t-1.5 31.5q15 -10 25.5 -16.5t18.5 -11.5q9 -6 17.5 -12t22.5 -17zM645 -44h-303l-2 276l198 243v-475h50v551h-48l-204 -250l-205 250h-49v-551h51v475l197 -241l-26 -25v-275l-138 142l-28 -27l290 -302l29 28l-139 144l290 1z" />
    <glyph glyph-name="registered" unicode="&#xae;" horiz-adv-x="800" 
d="M772 356q0 154 -109 263t-264 109q-154 0 -263 -109t-109 -264q0 -154 109 -263t264 -109q154 0 263 109t109 264zM725 355q0 -134 -96 -230q-95 -95 -230 -95q-134 0 -230 96q-95 95 -95 230q0 134 96 230q95 95 230 95q134 0 230 -96q95 -95 95 -230zM560 155l-28 63
q-8 17 -15.5 33t-18.5 32q-19 31 -65 51q54 6 82 36q29 29 29 73q0 45 -32 75q-32 29 -111 29h-151v-392h48v172h38q60 0 93 -40t71 -132h60zM488 440q0 -36 -25 -55q-23 -19 -93 -19h-72v142h84q49 0 78 -15q28 -13 28 -53z" />
    <glyph glyph-name="macron" unicode="&#xaf;" horiz-adv-x="333" 
d="M299 572v51h-266v-51h266z" />
    <glyph glyph-name="degree" unicode="&#xb0;" horiz-adv-x="400" 
d="M340 552q0 57 -41 98t-99 41q-57 0 -98 -41t-41 -99q0 -57 41 -98t99 -41q57 0 98 41t41 99zM300 551q0 -41 -29 -70t-71 -29q-41 0 -70 29t-29 71q0 41 29 70t71 29q41 0 70 -29t29 -71z" />
    <glyph glyph-name="plusminus" unicode="&#xb1;" horiz-adv-x="660" 
d="M592 329v44h-240v240h-44v-240h-240v-44h240v-240h44v240h240zM592 0v44h-524v-44h524z" />
    <glyph glyph-name="twosuperior" unicode="&#xb2;" horiz-adv-x="313" 
d="M302 332v24h-203q14 13 27 26l26 26q12 13 24 25.5t23 27.5q10 11 20 24.5t21 32.5q20 38 20 70q0 44 -37 74q-37 29 -91 29q-35 0 -63 -11q-26 -11 -39 -21v-32q11 8 22 15.5t23 12.5q24 11 54 11q42 0 70 -22t28 -56q0 -31 -16 -60q-8 -15 -18 -30t-22 -30
q-17 -20 -33 -36.5t-32 -30.5t-33.5 -29.5t-37.5 -32.5v-7h267z" />
    <glyph glyph-name="threesuperior" unicode="&#xb3;" horiz-adv-x="313" 
d="M271 432q0 31 -23 54q-24 24 -63 34q43 12 62 34q18 22 18 47q0 39 -36 65q-34 25 -90 25q-39 0 -63 -9q-23 -7 -33 -14v-25q5 2 13 5.5t20 8.5q22 9 58 9q42 0 71 -20q28 -19 28 -47q0 -30 -31 -49t-73 -19h-4v-25h7q48 0 78 -22q28 -21 28 -56q0 -34 -29 -55t-73 -21
q-33 0 -58 6q-12 3 -21.5 6t-16.5 5v-24q13 -5 40 -12q28 -6 59 -6q57 0 95 29q37 28 37 76z" />
    <glyph glyph-name="acute" unicode="&#xb4;" horiz-adv-x="333" 
d="M338 677h-81l-104 -156h32z" />
    <glyph glyph-name="mu" unicode="&#xb5;" horiz-adv-x="556" 
d="M460 0v449h-48v-314q-16 -32 -55 -65q-38 -32 -87 -32q-58 0 -90 38q-31 37 -31 106v267h-48v-626h48v228q19 -27 52 -43q36 -17 78 -17q35 0 70 20q34 19 63 67v-78h48z" />
    <glyph glyph-name="paragraph" unicode="&#xb6;" horiz-adv-x="650" 
d="M621 648v68h-340q-105 0 -169 -56q-63 -56 -63 -150q0 -95 60 -150q58 -55 160 -55v-504h64v847h129v-847h64v847h95z" />
    <glyph glyph-name="periodcentered" unicode="&#xb7;" horiz-adv-x="281" 
d="M120 297v98h-64v-98h64z" />
    <glyph glyph-name="periodcentered" unicode="&#x2219;" horiz-adv-x="281" 
d="M120 297v98h-64v-98h64z" />
    <glyph glyph-name="cedilla" unicode="&#xb8;" horiz-adv-x="333" 
d="M248 -101q0 27 -18 47q-18 19 -44 19l12 43h-30l-21 -70q30 0 46 -10t16 -30t-17 -29q-19 -10 -48 -9l-33 2l-5 -32l45 -5q43 0 70 21q27 19 27 53z" />
    <glyph glyph-name="onesuperior" unicode="&#xb9;" horiz-adv-x="313" 
d="M173 332l-1 355h-33l1 -355h33z" />
    <glyph glyph-name="ordmasculine" unicode="&#xba;" horiz-adv-x="354" 
d="M328 549q0 62 -43 102q-45 40 -108 40q-64 0 -108 -41q-43 -40 -43 -101q0 -62 43 -102t108 -40q64 0 108 41q43 40 43 101zM294 549q0 -47 -34 -81q-35 -33 -83 -33q-50 0 -84 34q-34 33 -34 80q0 46 35 81q34 33 83 33t83 -34q34 -33 34 -80z" />
    <glyph glyph-name="guillemotright" unicode="&#xbb;" horiz-adv-x="500" 
d="M480 231l-187 225h-61l187 -225l-189 -225h61zM268 231l-187 225h-61l187 -225l-189 -225h61z" />
    <glyph glyph-name="onequarter" unicode="&#xbc;" horiz-adv-x="833" 
d="M600 309v-151h-155zM692 137v21h-60v201h-13l-219 -213v-9h200v-137h32v137h60zM627 691h-40l-525 -718h39zM179 332l-1 355h-33l1 -355h33z" />
    <glyph glyph-name="onehalf" unicode="&#xbd;" horiz-adv-x="833" 
d="M746 0v24h-203q14 13 27 26l26 26q12 13 24 25.5t23 27.5q10 11 20 24.5t21 32.5q20 38 20 70q0 44 -37 74q-37 29 -91 29q-35 0 -63 -11q-26 -11 -39 -21v-32q11 8 22 15.5t23 12.5q24 11 54 11q42 0 70 -22t28 -56q0 -31 -16 -60q-8 -15 -18 -30t-22 -30
q-17 -20 -33 -36.5t-32 -30.5t-33.5 -29.5t-37.5 -32.5v-7h267zM627 691h-40l-525 -718h39zM179 332l-1 355h-33l1 -355h33z" />
    <glyph glyph-name="threequarters" unicode="&#xbe;" horiz-adv-x="833" 
d="M657 309v-151h-155zM749 137v21h-60v201h-13l-219 -213v-9h200v-137h32v137h60zM678 691h-40l-525 -718h39zM289 432q0 31 -23 54q-24 24 -63 34q43 12 62 34q18 22 18 47q0 39 -36 65q-34 25 -90 25q-39 0 -63 -9q-23 -7 -33 -14v-25q5 2 13 5.5t20 8.5q22 9 58 9
q42 0 71 -20q28 -19 28 -47q0 -30 -31 -49t-73 -19h-4v-25h7q48 0 78 -22q28 -21 28 -56q0 -34 -29 -55t-73 -21q-33 0 -58 6q-12 3 -21.5 6t-16.5 5v-24q13 -5 40 -12q28 -6 59 -6q57 0 95 29q37 28 37 76z" />
    <glyph glyph-name="questiondown" unicode="&#xbf;" horiz-adv-x="281" 
d="M183 375v97h-65v-97h65zM241 -191l-17 43q-2 -1 -14 -7.5t-29 -14t-27 -7.5q-33 0 -55 28q-21 27 -21 66q0 44 20 86q19 40 54 96q24 39 34 66q8 27 8 55q0 23 -13 48q-11 23 -26 39l-17 -15q7 -13 10.5 -22.5t5.5 -14.5q1 -5 1.5 -11t0.5 -12q0 -23 -7 -44
q-7 -22 -30 -55q-50 -72 -71 -113q-21 -42 -21 -98q0 -57 31 -100q31 -42 95 -42q24 0 41 7q5 2 17 7.5t20.5 9.5t9.5 5z" />
    <glyph glyph-name="Agrave" unicode="&#xc0;" horiz-adv-x="667" 
d="M429 739l-104 156h-81l153 -156h32zM662 0l-314 687h-29l-315 -687h55l108 236h333l108 -236h54zM480 280h-293l146 321z" />
    <glyph glyph-name="Aacute" unicode="&#xc1;" horiz-adv-x="667" 
d="M505 895h-81l-104 -156h32zM662 0l-314 687h-29l-315 -687h55l108 236h333l108 -236h54zM480 280h-293l146 321z" />
    <glyph glyph-name="Acircumflex" unicode="&#xc2;" horiz-adv-x="667" 
d="M471 730l-109 164h-58l-108 -164h38l99 108l100 -108h38zM662 0l-314 687h-29l-315 -687h55l108 236h333l108 -236h54zM480 280h-293l146 321z" />
    <glyph glyph-name="Atilde" unicode="&#xc3;" horiz-adv-x="667" 
d="M496 860h-31q-5 -28 -17 -38q-11 -10 -25 -10q-25 0 -82 25q-57 24 -89 24q-41 0 -62 -28q-20 -29 -20 -67h32q3 28 16 38t26 10q24 0 81 -25q57 -24 89 -24q43 0 62 28q20 29 20 67zM662 0l-314 687h-29l-315 -687h55l108 236h333l108 -236h54zM480 280h-293l146 321z
" />
    <glyph glyph-name="Adieresis" unicode="&#xc4;" horiz-adv-x="667" 
d="M437 776v68h-68v-68h68zM300 776v68h-68v-68h68zM662 0l-314 687h-29l-315 -687h55l108 236h333l108 -236h54zM480 280h-293l146 321z" />
    <glyph glyph-name="Aring" unicode="&#xc5;" horiz-adv-x="667" 
d="M421 810q0 35 -26 61q-25 25 -61 25t-61 -25t-25 -61t25 -61t61 -25q37 0 62 25t25 61zM394 810q0 -26 -18 -42q-17 -17 -42 -17t-42 17t-17 42t17 42t42 17q24 0 43 -17q17 -17 17 -42zM662 0l-314 687h-29l-315 -687h55l108 236h333l108 -236h54zM480 280h-293l146 321
z" />
    <glyph glyph-name="AE" unicode="&#xc6;" horiz-adv-x="865" 
d="M824 0v44h-327v277l311 1v43h-311v273h320v44h-405l-426 -682h57l201 322h200v-322h380zM444 366h-171l171 278v-278z" />
    <glyph glyph-name="Ccedilla" unicode="&#xc7;" horiz-adv-x="677" 
d="M443 -101q0 27 -18 47q-18 19 -44 19l8 27q8 -1 16 -1h16q59 0 122 19q32 10 60.5 21t51.5 25v55q-23 -13 -49.5 -25.5t-58.5 -23.5q-62 -22 -135 -22q-136 0 -221 84t-85 217q0 129 87 215q86 86 216 86q66 0 126 -19q64 -20 112 -48v59q-50 26 -113 42q-63 15 -116 15
q-158 0 -264 -100q-105 -101 -105 -250q0 -155 105 -252q85 -79 205 -94l-17 -57q30 0 46 -10t16 -30t-17 -29q-19 -10 -48 -9l-33 2l-5 -32l45 -5q43 0 70 21q27 19 27 53z" />
    <glyph glyph-name="Egrave" unicode="&#xc8;" 
d="M353 739l-104 156h-81l153 -156h32zM460 0v44h-327v277l311 1v43h-311v273h320v44h-373v-682h380z" />
    <glyph glyph-name="Eacute" unicode="&#xc9;" 
d="M429 895h-81l-104 -156h32zM460 0v44h-327v277l311 1v43h-311v273h320v44h-373v-682h380z" />
    <glyph glyph-name="Ecircumflex" unicode="&#xca;" 
d="M395 730l-109 164h-58l-108 -164h38l99 108l100 -108h38zM460 0v44h-327v277l311 1v43h-311v273h320v44h-373v-682h380z" />
    <glyph glyph-name="Edieresis" unicode="&#xcb;" 
d="M361 776v68h-68v-68h68zM224 776v68h-68v-68h68zM460 0v44h-327v277l311 1v43h-311v273h320v44h-373v-682h380z" />
    <glyph glyph-name="Igrave" unicode="&#xcc;" horiz-adv-x="208" 
d="M201 739l-104 156h-81l153 -156h32zM130 0v682h-52v-682h52z" />
    <glyph glyph-name="Iacute" unicode="&#xcd;" horiz-adv-x="208" 
d="M277 895h-81l-104 -156h32zM130 0v682h-52v-682h52z" />
    <glyph glyph-name="Icircumflex" unicode="&#xce;" horiz-adv-x="208" 
d="M243 730l-109 164h-58l-108 -164h38l99 108l100 -108h38zM130 0v682h-52v-682h52z" />
    <glyph glyph-name="Idieresis" unicode="&#xcf;" horiz-adv-x="208" 
d="M209 776v68h-68v-68h68zM72 776v68h-68v-68h68zM130 0v682h-52v-682h52z" />
    <glyph glyph-name="Eth" unicode="&#xd0;" horiz-adv-x="740" 
d="M689 340q0 159 -99 251q-97 89 -268 91l-243 3v-321h-102v-44h102v-320h250q170 0 265 95t95 245zM632 340q0 -134 -87 -215t-230 -81h-183v276h221v44h-221v274h185q143 0 229 -82q86 -83 86 -216z" />
    <glyph glyph-name="Ntilde" unicode="&#xd1;" horiz-adv-x="771" 
d="M552 860h-31q-5 -28 -17 -38q-11 -10 -25 -10q-25 0 -82 25q-57 24 -89 24q-41 0 -62 -28q-20 -29 -20 -67h32q3 28 16 38t26 10q24 0 81 -25q57 -24 89 -24q43 0 62 28q20 29 20 67zM694 0v682h-53v-598q-65 78 -129 152t-130 147t-130 147t-129 152h-45v-682h53v596
l518 -596h45z" />
    <glyph glyph-name="Ograve" unicode="&#xd2;" horiz-adv-x="823" 
d="M507 739l-104 156h-81l153 -156h32zM773 341q0 149 -104 250q-105 100 -257 100q-154 0 -258 -101q-103 -100 -103 -249t104 -250q103 -100 257 -100q153 0 257 101t104 249zM716 341q0 -124 -89 -213q-88 -88 -215 -88q-128 0 -216 88t-88 213q0 124 89 213
q88 88 215 88t215 -88q89 -89 89 -213z" />
    <glyph glyph-name="Oacute" unicode="&#xd3;" horiz-adv-x="823" 
d="M583 895h-81l-104 -156h32zM773 341q0 149 -104 250q-105 100 -257 100q-154 0 -258 -101q-103 -100 -103 -249t104 -250q103 -100 257 -100q153 0 257 101t104 249zM716 341q0 -124 -89 -213q-88 -88 -215 -88q-128 0 -216 88t-88 213q0 124 89 213q88 88 215 88
t215 -88q89 -89 89 -213z" />
    <glyph glyph-name="Ocircumflex" unicode="&#xd4;" horiz-adv-x="823" 
d="M549 730l-109 164h-58l-108 -164h38l99 108l100 -108h38zM773 341q0 149 -104 250q-105 100 -257 100q-154 0 -258 -101q-103 -100 -103 -249t104 -250q103 -100 257 -100q153 0 257 101t104 249zM716 341q0 -124 -89 -213q-88 -88 -215 -88q-128 0 -216 88t-88 213
q0 124 89 213q88 88 215 88t215 -88q89 -89 89 -213z" />
    <glyph glyph-name="Otilde" unicode="&#xd5;" horiz-adv-x="823" 
d="M574 860h-31q-5 -28 -17 -38q-11 -10 -25 -10q-25 0 -82 25q-57 24 -89 24q-41 0 -62 -28q-20 -29 -20 -67h32q3 28 16 38t26 10q24 0 81 -25q57 -24 89 -24q43 0 62 28q20 29 20 67zM773 341q0 149 -104 250q-105 100 -257 100q-154 0 -258 -101q-103 -100 -103 -249
t104 -250q103 -100 257 -100q153 0 257 101t104 249zM716 341q0 -124 -89 -213q-88 -88 -215 -88q-128 0 -216 88t-88 213q0 124 89 213q88 88 215 88t215 -88q89 -89 89 -213z" />
    <glyph glyph-name="Odieresis" unicode="&#xd6;" horiz-adv-x="823" 
d="M515 776v68h-68v-68h68zM378 776v68h-68v-68h68zM773 341q0 149 -104 250q-105 100 -257 100q-154 0 -258 -101q-103 -100 -103 -249t104 -250q103 -100 257 -100q153 0 257 101t104 249zM716 341q0 -124 -89 -213q-88 -88 -215 -88q-128 0 -216 88t-88 213q0 124 89 213
q88 88 215 88t215 -88q89 -89 89 -213z" />
    <glyph glyph-name="multiply" unicode="&#xd7;" horiz-adv-x="660" 
d="M531 182l-169 169l169 169l-32 32l-169 -169l-169 169l-32 -32l169 -169l-169 -169l32 -32l169 169l169 -169z" />
    <glyph glyph-name="Oslash" unicode="&#xd8;" horiz-adv-x="823" 
d="M773 341q0 148 -103 248l66 73l-37 26l-63 -70q-91 73 -224 73q-154 0 -258 -101q-103 -100 -103 -249q0 -147 103 -250l4 -4l-64 -71l37 -26l62 69q89 -68 219 -68q153 0 257 101t104 249zM716 341q0 -124 -89 -213q-88 -88 -215 -88q-106 0 -183 59l404 449
q83 -86 83 -207zM600 578l-405 -449q-87 87 -87 212q0 124 89 213q88 88 215 88q111 0 188 -64z" />
    <glyph glyph-name="Ugrave" unicode="&#xd9;" horiz-adv-x="698" 
d="M444 739l-104 156h-81l153 -156h32zM635 296v386h-53v-382q0 -119 -63 -189q-62 -71 -168 -71q-107 0 -171 69q-63 69 -63 186v387h-53v-391q0 -132 80 -217q80 -83 206 -83t206 86q79 87 79 219z" />
    <glyph glyph-name="Uacute" unicode="&#xda;" horiz-adv-x="698" 
d="M520 895h-81l-104 -156h32zM635 296v386h-53v-382q0 -119 -63 -189q-62 -71 -168 -71q-107 0 -171 69q-63 69 -63 186v387h-53v-391q0 -132 80 -217q80 -83 206 -83t206 86q79 87 79 219z" />
    <glyph glyph-name="Ucircumflex" unicode="&#xdb;" horiz-adv-x="698" 
d="M486 730l-109 164h-58l-108 -164h38l99 108l100 -108h38zM635 296v386h-53v-382q0 -119 -63 -189q-62 -71 -168 -71q-107 0 -171 69q-63 69 -63 186v387h-53v-391q0 -132 80 -217q80 -83 206 -83t206 86q79 87 79 219z" />
    <glyph glyph-name="Udieresis" unicode="&#xdc;" horiz-adv-x="698" 
d="M452 776v68h-68v-68h68zM315 776v68h-68v-68h68zM635 296v386h-53v-382q0 -119 -63 -189q-62 -71 -168 -71q-107 0 -171 69q-63 69 -63 186v387h-53v-391q0 -132 80 -217q80 -83 206 -83t206 86q79 87 79 219z" />
    <glyph glyph-name="Yacute" unicode="&#xdd;" horiz-adv-x="583" 
d="M462 895h-81l-104 -156h32zM583 682h-64l-227 -270l-228 270h-64l265 -316v-366h53v366z" />
    <glyph glyph-name="Thorn" unicode="&#xde;" horiz-adv-x="510" 
d="M131 205v274h137q76 0 120 -37q44 -36 44 -100q0 -68 -45 -102q-44 -35 -125 -35h-131zM488 341q0 89 -59 136q-60 46 -165 46h-133v159h-53v-682h53v160h135q104 0 163 47t59 134z" />
    <glyph glyph-name="germandbls" unicode="&#xdf;" horiz-adv-x="500" 
d="M460 199q0 75 -35 119q-36 45 -87 61q50 21 71 66q20 46 20 81q0 73 -52 119t-133 46q-80 0 -131 -51t-51 -158v-482h48v448q0 126 37 164q36 39 94 39q57 0 97 -31q40 -30 40 -98q0 -52 -27 -86q-27 -35 -70 -35h-8v-45q76 -9 106 -53q29 -44 29 -104q0 -68 -34 -114
q-33 -47 -95 -47q-19 0 -37 5l-14 3.5t-10 3.5v-50q10 -3 24 -6q13 -3 33 -3q85 0 135 62t50 146z" />
    <glyph glyph-name="agrave" unicode="&#xe0;" horiz-adv-x="483" 
d="M308 521l-104 156h-81l153 -156h32zM446 -2v451h-47v-31q-32 19 -68 30q-33 10 -67 10q-100 0 -164 -69q-63 -69 -63 -177q0 -97 61 -159q62 -62 156 -62q43 0 77 10q37 10 67 24v-27h48zM399 75q-22 -14 -57 -28q-33 -12 -79 -12q-79 0 -127 49q-48 48 -48 129
q0 86 53 142t133 56q42 0 77 -15q35 -16 48 -25v-296z" />
    <glyph glyph-name="aacute" unicode="&#xe1;" horiz-adv-x="474" 
d="M384 677h-81l-104 -156h32zM446 -2v451h-47v-31q-32 19 -68 30q-33 10 -67 10q-100 0 -164 -69q-63 -69 -63 -177q0 -97 61 -159q62 -62 156 -62q43 0 77 10q37 10 67 24v-27h48zM399 75q-22 -14 -57 -28q-33 -12 -79 -12q-79 0 -127 49q-48 48 -48 129q0 86 53 142
t133 56q42 0 77 -15q35 -16 48 -25v-296z" />
    <glyph glyph-name="acircumflex" unicode="&#xe2;" horiz-adv-x="493" 
d="M390 512l-109 164h-58l-108 -164h38l99 108l100 -108h38zM446 -2v451h-47v-31q-32 19 -68 30q-33 10 -67 10q-100 0 -164 -69q-63 -69 -63 -177q0 -97 61 -159q62 -62 156 -62q43 0 77 10q37 10 67 24v-27h48zM399 75q-22 -14 -57 -28q-33 -12 -79 -12q-79 0 -127 49
q-48 48 -48 129q0 86 53 142t133 56q42 0 77 -15q35 -16 48 -25v-296z" />
    <glyph glyph-name="atilde" unicode="&#xe3;" horiz-adv-x="482" 
d="M415 642h-31q-5 -28 -17 -38q-11 -10 -25 -10q-25 0 -82 25q-57 24 -89 24q-41 0 -62 -28q-20 -29 -20 -67h32q3 28 16 38t26 10q24 0 81 -25q57 -24 89 -24q43 0 62 28q20 29 20 67zM446 -2v451h-47v-31q-32 19 -68 30q-33 10 -67 10q-100 0 -164 -69q-63 -69 -63 -177
q0 -97 61 -159q62 -62 156 -62q43 0 77 10q37 10 67 24v-27h48zM399 75q-22 -14 -57 -28q-33 -12 -79 -12q-79 0 -127 49q-48 48 -48 129q0 86 53 142t133 56q42 0 77 -15q35 -16 48 -25v-296z" />
    <glyph glyph-name="adieresis" unicode="&#xe4;" 
d="M356 558v68h-68v-68h68zM219 558v68h-68v-68h68zM446 -2v451h-47v-31q-32 19 -68 30q-33 10 -67 10q-100 0 -164 -69q-63 -69 -63 -177q0 -97 61 -159q62 -62 156 -62q43 0 77 10q37 10 67 24v-27h48zM399 75q-22 -14 -57 -28q-33 -12 -79 -12q-79 0 -127 49
q-48 48 -48 129q0 86 53 142t133 56q42 0 77 -15q35 -16 48 -25v-296z" />
    <glyph glyph-name="aring" unicode="&#xe5;" horiz-adv-x="427" 
d="M350 592q0 35 -26 61q-25 25 -61 25t-61 -25t-25 -61t25 -61t61 -25q37 0 62 25t25 61zM323 592q0 -26 -18 -42q-17 -17 -42 -17t-42 17t-17 42t17 42t42 17q24 0 43 -17q17 -17 17 -42zM446 -2v451h-47v-31q-32 19 -68 30q-33 10 -67 10q-100 0 -164 -69
q-63 -69 -63 -177q0 -97 61 -159q62 -62 156 -62q43 0 77 10q37 10 67 24v-27h48zM399 75q-22 -14 -57 -28q-33 -12 -79 -12q-79 0 -127 49q-48 48 -48 129q0 86 53 142t133 56q42 0 77 -15q35 -16 48 -25v-296z" />
    <glyph glyph-name="ae" unicode="&#xe6;" horiz-adv-x="750" 
d="M728 241q0 95 -49 156t-126 61q-43 0 -75 -17q-6 -3 -13.5 -9t-14.5 -13l-13.5 -13.5l-10.5 -10.5v54h-47v-31q-32 19 -68 30q-33 10 -67 10q-100 0 -164 -69q-63 -69 -63 -177q0 -97 61 -159q62 -62 156 -62q43 0 77 10q37 10 67 24v-27h48v62q11 -12 29 -28.5t31 -22.5
q34 -18 77 -18q50 0 92 20q20 10 36 20t28 20v54q-9 -9 -23 -19.5t-33 -23.5q-38 -24 -83 -24q-68 0 -112 53q-33 37 -42 91v59h302zM669 280h-241q10 46 31 78q36 53 96 53q50 0 79 -35q28 -35 35 -96zM379 75q-22 -14 -57 -28q-33 -12 -79 -12q-79 0 -127 49
q-48 48 -48 129q0 86 53 142t133 56q42 0 77 -15q35 -16 48 -25v-296z" />
    <glyph glyph-name="ccedilla" unicode="&#xe7;" horiz-adv-x="417" 
d="M297 -101q0 27 -18 47q-18 19 -44 19l8 27q5 -1 11 -1h13q38 0 73 9q17 5 28.5 8.5t18.5 5.5v50q-18 -8 -49 -17q-32 -9 -69 -9q-83 0 -129 51q-47 50 -47 135q0 82 47 135q46 52 123 52q40 0 67 -10q14 -5 26.5 -9t22.5 -9v53q-14 5 -27.5 8.5t-27.5 7.5q-29 6 -62 6
q-101 0 -161 -69q-59 -68 -59 -165q0 -107 60 -170q43 -46 111 -58l-17 -58q30 0 46 -10t16 -30t-17 -29q-19 -10 -48 -9l-33 2l-5 -32l45 -5q43 0 70 21q27 19 27 53z" />
    <glyph glyph-name="egrave" unicode="&#xe8;" horiz-adv-x="479" 
d="M335 521l-104 156h-81l153 -156h32zM446 241q0 94 -56 156q-55 61 -143 61q-91 0 -149 -66q-58 -65 -58 -161q0 -105 65 -173q64 -67 166 -67q53 0 98 20q22 10 38.5 20t29.5 20v54q-10 -9 -26 -19.5t-38 -23.5q-44 -24 -98 -24q-79 0 -132 53q-53 51 -53 130v11t1 9h355
zM387 280h-291q14 49 37 78q43 53 115 53q60 0 95 -35q33 -33 44 -96z" />
    <glyph glyph-name="eacute" unicode="&#xe9;" horiz-adv-x="479" 
d="M411 677h-81l-104 -156h32zM446 241q0 94 -56 156q-55 61 -143 61q-91 0 -149 -66q-58 -65 -58 -161q0 -105 65 -173q64 -67 166 -67q53 0 98 20q22 10 38.5 20t29.5 20v54q-10 -9 -26 -19.5t-38 -23.5q-44 -24 -98 -24q-79 0 -132 53q-53 51 -53 130v11t1 9h355z
M387 280h-291q14 49 37 78q43 53 115 53q60 0 95 -35q33 -33 44 -96z" />
    <glyph glyph-name="ecircumflex" unicode="&#xea;" horiz-adv-x="479" 
d="M377 512l-109 164h-58l-108 -164h38l99 108l100 -108h38zM446 241q0 94 -56 156q-55 61 -143 61q-91 0 -149 -66q-58 -65 -58 -161q0 -105 65 -173q64 -67 166 -67q53 0 98 20q22 10 38.5 20t29.5 20v54q-10 -9 -26 -19.5t-38 -23.5q-44 -24 -98 -24q-79 0 -132 53
q-53 51 -53 130v11t1 9h355zM387 280h-291q14 49 37 78q43 53 115 53q60 0 95 -35q33 -33 44 -96z" />
    <glyph glyph-name="edieresis" unicode="&#xeb;" horiz-adv-x="479" 
d="M343 558v68h-68v-68h68zM206 558v68h-68v-68h68zM446 241q0 94 -56 156q-55 61 -143 61q-91 0 -149 -66q-58 -65 -58 -161q0 -105 65 -173q64 -67 166 -67q53 0 98 20q22 10 38.5 20t29.5 20v54q-10 -9 -26 -19.5t-38 -23.5q-44 -24 -98 -24q-79 0 -132 53
q-53 51 -53 130v11t1 9h355zM387 280h-291q14 49 37 78q43 53 115 53q60 0 95 -35q33 -33 44 -96z" />
    <glyph glyph-name="igrave" unicode="&#xec;" horiz-adv-x="188" 
d="M189 521l-104 156h-81l153 -156h32zM118 0v449h-48v-449h48z" />
    <glyph glyph-name="iacute" unicode="&#xed;" horiz-adv-x="188" 
d="M225 677h-81l-104 -156h32zM118 0v449h-48v-449h48z" />
    <glyph glyph-name="icircumflex" unicode="&#xee;" horiz-adv-x="188" 
d="M231 512l-109 164h-58l-108 -164h38l99 108l100 -108h38zM118 0v449h-48v-449h48z" />
    <glyph glyph-name="idieresis" unicode="&#xef;" horiz-adv-x="188" 
d="M197 558v68h-68v-68h68zM60 558v68h-68v-68h68zM118 0v449h-48v-449h48z" />
    <glyph glyph-name="eth" unicode="&#xf0;" horiz-adv-x="559" 
d="M524 248q0 148 -79 263q-14 20 -32.5 40.5t-44.5 43.5l115 54l-16 33l-132 -62q-42 33 -118 61l-18 -34q30 -14 52.5 -26.5t36.5 -22.5l-125 -58l15 -33l145 67q38 -30 53 -48q57 -61 86 -149q-41 43 -84 63q-44 18 -93 18q-108 0 -178 -67q-69 -68 -69 -169
q0 -99 70 -166q70 -66 176 -66t174 72q66 72 66 186zM473 229q0 -87 -53 -143q-52 -55 -137 -55q-84 0 -142 55q-57 55 -57 135q0 82 56 140q55 57 142 57q84 0 138 -54q53 -55 53 -135z" />
    <glyph glyph-name="ntilde" unicode="&#xf1;" 
d="M409 642h-31q-5 -28 -17 -38q-11 -10 -25 -10q-25 0 -82 25q-57 24 -89 24q-41 0 -62 -28q-20 -29 -20 -67h32q3 28 16 38t26 10q24 0 81 -25q57 -24 89 -24q43 0 62 28q20 29 20 67zM428 0v271q0 88 -46 137q-47 50 -125 50q-45 0 -80 -20q-34 -19 -68 -71v82h-47v-449
h48v317q25 38 58 66q34 28 89 28q60 0 92 -41q31 -42 31 -114v-256h48z" />
    <glyph glyph-name="ograve" unicode="&#xf2;" horiz-adv-x="542" 
d="M367 521l-104 156h-81l153 -156h32zM500 224q0 99 -66 167q-64 67 -163 67q-98 0 -164 -67q-65 -68 -65 -167t66 -166q64 -67 163 -67q98 0 164 67q65 68 65 166zM449 224q0 -77 -52 -132q-53 -54 -126 -54q-74 0 -126 55q-52 53 -52 131t52 133q52 54 126 54t126 -55
q52 -53 52 -132z" />
    <glyph glyph-name="oacute" unicode="&#xf3;" horiz-adv-x="542" 
d="M443 677h-81l-104 -156h32zM500 224q0 99 -66 167q-64 67 -163 67q-98 0 -164 -67q-65 -68 -65 -167t66 -166q64 -67 163 -67q98 0 164 67q65 68 65 166zM449 224q0 -77 -52 -132q-53 -54 -126 -54q-74 0 -126 55q-52 53 -52 131t52 133q52 54 126 54t126 -55
q52 -53 52 -132z" />
    <glyph glyph-name="ocircumflex" unicode="&#xf4;" horiz-adv-x="542" 
d="M409 512l-109 164h-58l-108 -164h38l99 108l100 -108h38zM500 224q0 99 -66 167q-64 67 -163 67q-98 0 -164 -67q-65 -68 -65 -167t66 -166q64 -67 163 -67q98 0 164 67q65 68 65 166zM449 224q0 -77 -52 -132q-53 -54 -126 -54q-74 0 -126 55q-52 53 -52 131t52 133
q52 54 126 54t126 -55q52 -53 52 -132z" />
    <glyph glyph-name="otilde" unicode="&#xf5;" horiz-adv-x="542" 
d="M434 642h-31q-5 -28 -17 -38q-11 -10 -25 -10q-25 0 -82 25q-57 24 -89 24q-41 0 -62 -28q-20 -29 -20 -67h32q3 28 16 38t26 10q24 0 81 -25q57 -24 89 -24q43 0 62 28q20 29 20 67zM500 224q0 99 -66 167q-64 67 -163 67q-98 0 -164 -67q-65 -68 -65 -167t66 -166
q64 -67 163 -67q98 0 164 67q65 68 65 166zM449 224q0 -77 -52 -132q-53 -54 -126 -54q-74 0 -126 55q-52 53 -52 131t52 133q52 54 126 54t126 -55q52 -53 52 -132z" />
    <glyph glyph-name="odieresis" unicode="&#xf6;" horiz-adv-x="542" 
d="M375 558v68h-68v-68h68zM238 558v68h-68v-68h68zM500 224q0 99 -66 167q-64 67 -163 67q-98 0 -164 -67q-65 -68 -65 -167t66 -166q64 -67 163 -67q98 0 164 67q65 68 65 166zM449 224q0 -77 -52 -132q-53 -54 -126 -54q-74 0 -126 55q-52 53 -52 131t52 133
q52 54 126 54t126 -55q52 -53 52 -132z" />
    <glyph glyph-name="divide" unicode="&#xf7;" horiz-adv-x="660" 
d="M357 472v84h-54v-84h54zM592 329v44h-524v-44h524zM357 146v84h-54v-84h54z" />
    <glyph glyph-name="oslash" unicode="&#xf8;" horiz-adv-x="542" 
d="M500 224q0 98 -62 163l54 62l-31 25l-52 -60q-56 44 -138 44q-98 0 -164 -67q-65 -68 -65 -167q0 -98 61 -162l-59 -68l31 -24l57 66q55 -45 139 -45q98 0 164 67q65 68 65 166zM449 224q0 -77 -52 -132q-53 -54 -126 -54q-63 0 -106 36l239 274q45 -51 45 -124zM376 376
l-239 -275q-44 52 -44 123q0 78 52 133q52 54 126 54q61 0 105 -35z" />
    <glyph glyph-name="ugrave" unicode="&#xf9;" 
d="M340 521l-104 156h-81l153 -156h32zM428 0v449h-48v-314q-17 -33 -56 -65q-38 -32 -90 -32q-59 0 -92 38q-32 38 -32 106v267h-48v-277q0 -88 47 -135q46 -46 131 -46q37 0 74 20q35 19 66 67v-78h48z" />
    <glyph glyph-name="uacute" unicode="&#xfa;" 
d="M416 677h-81l-104 -156h32zM428 0v449h-48v-314q-17 -33 -56 -65q-38 -32 -90 -32q-59 0 -92 38q-32 38 -32 106v267h-48v-277q0 -88 47 -135q46 -46 131 -46q37 0 74 20q35 19 66 67v-78h48z" />
    <glyph glyph-name="ucircumflex" unicode="&#xfb;" 
d="M382 512l-109 164h-58l-108 -164h38l99 108l100 -108h38zM428 0v449h-48v-314q-17 -33 -56 -65q-38 -32 -90 -32q-59 0 -92 38q-32 38 -32 106v267h-48v-277q0 -88 47 -135q46 -46 131 -46q37 0 74 20q35 19 66 67v-78h48z" />
    <glyph glyph-name="udieresis" unicode="&#xfc;" 
d="M348 558v68h-68v-68h68zM211 558v68h-68v-68h68zM428 0v449h-48v-314q-17 -33 -56 -65q-38 -32 -90 -32q-59 0 -92 38q-32 38 -32 106v267h-48v-277q0 -88 47 -135q46 -46 131 -46q37 0 74 20q35 19 66 67v-78h48z" />
    <glyph glyph-name="yacute" unicode="&#xfd;" horiz-adv-x="417" 
d="M379 677h-81l-104 -156h32zM422 449h-49l-154 -314l-162 314h-52l190 -363l-157 -316h49z" />
    <glyph glyph-name="thorn" unicode="&#xfe;" horiz-adv-x="510" 
d="M469 225q0 103 -64 168q-65 65 -164 65q-32 0 -66 -9q-35 -9 -64 -25v258h-48v-912h48v255q17 -8 33.5 -14.5t33.5 -11.5q35 -8 73 -8q90 0 154 70t64 164zM416 224q0 -81 -50 -134q-49 -52 -131 -52q-43 0 -74 12q-29 10 -50 21v308q7 4 18 9t27 11q30 12 73 12
q80 0 134 -54q53 -53 53 -133z" />
    <glyph glyph-name="ydieresis" unicode="&#xff;" horiz-adv-x="417" 
d="M311 558v68h-68v-68h68zM174 558v68h-68v-68h68zM422 449h-49l-154 -314l-162 314h-52l190 -363l-157 -316h49z" />
    <glyph glyph-name="OE" unicode="&#x152;" horiz-adv-x="896" 
d="M859 0v44h-330v277l314 1v43h-314v273h323v44h-454q-152 0 -255 -97q-102 -96 -102 -240q0 -151 102 -248q100 -97 257 -97h459zM476 44h-65q-136 0 -224 84q-89 84 -89 213q0 126 89 212q88 85 221 85h68v-594z" />
    <glyph glyph-name="oe" unicode="&#x153;" horiz-adv-x="833" 
d="M790 241q0 94 -47 156q-46 61 -121 61q-56 0 -96 -22q-40 -21 -76 -73q-35 51 -80 73q-43 22 -111 22q-95 0 -156 -67q-62 -68 -62 -167q0 -98 62 -166q61 -67 153 -67q68 0 118 29t80 77q25 -62 72 -84q45 -22 103 -22q48 0 90 20q20 10 35.5 20t26.5 20v54
q-9 -9 -23 -19.5t-33 -23.5q-38 -24 -84 -24q-68 0 -115 53q-45 52 -45 130v11t1 9h308zM731 280h-245q11 49 31 78q35 53 98 53q51 0 80 -35q28 -35 36 -96zM429 224q0 -77 -49 -132q-50 -54 -119 -54q-71 0 -120 55q-49 53 -49 131t49 133q49 54 120 54q70 0 119 -55
q49 -53 49 -132z" />
    <glyph glyph-name="Scaron" unicode="&#x160;" horiz-adv-x="469" 
d="M373 894h-38l-100 -108l-99 108h-38l108 -164h58zM427 173q0 78 -38 121q-37 41 -141 79q-78 29 -112 58q-33 28 -33 84q0 52 42 90q40 37 101 37q51 0 90 -19q20 -10 36.5 -18t27.5 -15l-1 58q-5 4 -19 10.5t-37 15.5q-46 17 -103 17q-78 0 -137 -53q-57 -53 -57 -125
q0 -74 39 -113q38 -39 122 -68q82 -28 124 -62q40 -33 40 -94q0 -58 -42 -97t-104 -39q-39 0 -79 18q-20 9 -43 22.5t-48 32.5v-62q11 -8 28.5 -17.5t42.5 -20.5q48 -22 108 -22q79 0 136 54t57 128z" />
    <glyph glyph-name="scaron" unicode="&#x161;" horiz-adv-x="354" 
d="M315 676h-38l-100 -108l-99 108h-38l108 -164h58zM323 116q0 54 -37 84q-39 31 -95 50q-44 16 -74 36q-27 19 -27 52q0 31 27 54q25 22 72 22q32 0 65 -14q16 -7 29.5 -15t25.5 -17v51q-15 13 -48 26q-17 6 -35.5 9.5t-40.5 3.5q-54 0 -98 -35q-43 -34 -43 -86
q0 -48 30 -76q31 -30 86 -49q73 -27 96 -48q21 -21 21 -47q0 -36 -28 -58q-29 -21 -71 -21q-35 0 -73 13q-38 12 -64 29v-48q18 -11 52 -27q36 -15 85 -15q62 0 103 37q42 37 42 89z" />
    <glyph glyph-name="Ydieresis" unicode="&#x178;" horiz-adv-x="583" 
d="M394 776v68h-68v-68h68zM257 776v68h-68v-68h68zM583 682h-64l-227 -270l-228 270h-64l265 -316v-366h53v366z" />
    <glyph glyph-name="florin" unicode="&#x192;" horiz-adv-x="556" 
d="M537 714q-7 2 -16.5 5t-23.5 6q-28 5 -49 5q-49 0 -84 -28q-17 -14 -28.5 -39.5t-20.5 -63.5l-18 -78h-82l-9 -47h82l-111 -513q-8 -38 -14.5 -62.5t-16.5 -35.5q-20 -20 -53 -20q-23 0 -39 4q-9 2 -18 3.5t-18 3.5l-11 -49q10 -3 33 -9q22 -6 55 -6q56 0 86 27
q31 27 43 79l126 578h107l11 47h-109l6 26q11 47 19.5 74.5t17.5 36.5q18 18 51 18q22 0 42 -3q9 -2 17 -3.5t16 -3.5z" />
    <glyph glyph-name="circumflex" unicode="&#x2c6;" horiz-adv-x="333" 
d="M304 512l-109 164h-58l-108 -164h38l99 108l100 -108h38z" />
    <glyph glyph-name="tilde" unicode="&#x2dc;" horiz-adv-x="333" 
d="M329 642h-31q-5 -28 -17 -38q-11 -10 -25 -10q-25 0 -82 25q-57 24 -89 24q-41 0 -62 -28q-20 -29 -20 -67h32q3 28 16 38t26 10q24 0 81 -25q57 -24 89 -24q43 0 62 28q20 29 20 67z" />
    <glyph glyph-name="endash" unicode="&#x2013;" horiz-adv-x="500" 
d="M506 234v32h-512v-32h512z" />
    <glyph glyph-name="emdash" unicode="&#x2014;" horiz-adv-x="1000" 
d="M1006 234v32h-1012v-32h1012z" />
    <glyph glyph-name="quoteleft" unicode="&#x2018;" horiz-adv-x="177" 
d="M131 649v35q-11 -7 -26.5 -19.5t-26.5 -29.5q-22 -36 -22 -96v-69h65v97h-21q0 33 6 51q2 8 11 16t14 15z" />
    <glyph glyph-name="quoteright" unicode="&#x2019;" horiz-adv-x="177" 
d="M121 615v69h-65v-97h21q0 -33 -6 -51q-2 -8 -11 -16t-14 -15v-35q11 7 26.5 19.5t26.5 29.5q22 36 22 96z" />
    <glyph glyph-name="quotesinglbase" unicode="&#x201a;" horiz-adv-x="177" 
d="M121 28v69h-65v-97h21q0 -33 -6 -51q-5 -18 -15 -31v-35q11 7 21.5 19.5t21.5 29.5q22 36 22 96z" />
    <glyph glyph-name="quotedblleft" unicode="&#x201c;" horiz-adv-x="396" 
d="M350 649v35q-11 -7 -26.5 -19.5t-26.5 -29.5q-22 -36 -22 -96v-69h65v97h-21q0 33 6 51q2 8 11 16t14 15zM131 649v35q-11 -7 -26.5 -19.5t-26.5 -29.5q-22 -36 -22 -96v-69h65v97h-21q0 33 6 51q2 8 11 16t14 15z" />
    <glyph glyph-name="quotedblright" unicode="&#x201d;" horiz-adv-x="396" 
d="M340 615v69h-65v-97h21q0 -33 -6 -51q-2 -8 -11 -16t-14 -15v-35q11 7 26.5 19.5t26.5 29.5q22 36 22 96zM121 615v69h-65v-97h21q0 -33 -6 -51q-2 -8 -11 -16t-14 -15v-35q11 7 26.5 19.5t26.5 29.5q22 36 22 96z" />
    <glyph glyph-name="quotedblbase" unicode="&#x201e;" horiz-adv-x="396" 
d="M338 28v69h-65v-97h21q0 -32 -5 -50q-3 -9 -12 -17t-14 -15v-35q11 7 26 19t26 29q23 35 23 97zM123 28v69h-65v-97h21q0 -32 -5 -50q-3 -9 -12 -17t-14 -15v-35q11 7 26 19t26 29q23 35 23 97z" />
    <glyph glyph-name="dagger" unicode="&#x2020;" 
d="M463 366v55l-190 2l1 268h-60l1 -268l-190 -2v-55l190 -2l-4 -594h66l-4 594z" />
    <glyph glyph-name="daggerdbl" unicode="&#x2021;" horiz-adv-x="479" 
d="M453 10v55l-201 -14l14 175l-14 185l201 -14v55l-201 -14l18 253h-62l18 -253l-200 14v-55l200 14l-14 -185l14 -175l-200 14v-55l200 14l-18 -254h62l-18 254z" />
    <glyph glyph-name="bullet" unicode="&#x2022;" horiz-adv-x="500" 
d="M372 341q0 51 -36 87q-35 35 -86 35t-87 -36q-35 -35 -35 -86t36 -87q35 -35 86 -35t87 36q35 35 35 86z" />
    <glyph glyph-name="ellipsis" unicode="&#x2026;" horiz-adv-x="1000" 
d="M864 0v98h-64v-98h64zM531 0v98h-64v-98h64zM198 0v98h-64v-98h64z" />
    <glyph glyph-name="perthousand" unicode="&#x2030;" horiz-adv-x="1052" 
d="M1035 147q0 66 -47 113t-113 47q-67 0 -114 -47t-47 -113q0 -65 47 -112t113 -47q67 0 114 47t47 112zM992 145q0 -47 -34 -81q-35 -33 -82 -33q-50 0 -85 35q-34 34 -34 82q0 47 35 82q34 34 84 34q47 0 82 -35q34 -34 34 -84zM338 531q0 66 -47 113t-114 47
q-65 0 -114 -47q-47 -47 -47 -113t48 -114q47 -47 113 -47t114 48q47 47 47 113zM295 529q0 -47 -35 -82q-34 -34 -82 -34q-49 0 -84 35t-35 84q0 47 36 82q34 34 84 34q47 0 82 -35q34 -34 34 -84zM631 688h-49l-550 -699h51zM666 147q0 66 -47 113t-113 47q-67 0 -114 -47
t-47 -113q0 -65 47 -112t113 -47q67 0 114 47t47 112zM623 145q0 -47 -34 -81q-35 -33 -82 -33q-50 0 -85 35q-34 34 -34 82q0 47 35 82q34 34 84 34q47 0 82 -35q34 -34 34 -84z" />
    <glyph glyph-name="guilsinglleft" unicode="&#x2039;" horiz-adv-x="281" 
d="M266 6l-189 225l187 225h-61l-187 -225l189 -225h61z" />
    <glyph glyph-name="guilsinglright" unicode="&#x203a;" horiz-adv-x="281" 
d="M264 231l-187 225h-61l187 -225l-189 -225h61z" />
    <glyph glyph-name="trademark" unicode="&#x2122;" horiz-adv-x="940" 
d="M814 317v365h-92l-89 -285l-90 285h-86v-365h47v328l111 -328h32l115 328v-328h52zM410 642v40h-309v-40h129v-325h52v325h128z" />
    <glyph glyph-name="HT" unicode="&#xe000;" horiz-adv-x="278" 
 />
    <glyph glyph-name="minus" unicode="&#xe002;" horiz-adv-x="660" 
d="M592 329v44h-524v-44h524z" />
    <glyph glyph-name="notequal" unicode="&#xe003;" horiz-adv-x="660" 
d="M592 208v44h-277l75 198h202v44h-185l46 122h-44l-46 -122h-295v-44h278l-75 -198h-203v-44h186l-46 -122h44l46 122h294z" />
    <glyph glyph-name="infinity" unicode="&#xe004;" horiz-adv-x="713" 
d="M689 264q0 60 -45 101q-44 39 -97 39q-43 0 -81 -19q-19 -10 -46.5 -31t-62.5 -55q-35 34 -62.5 55t-47.5 31q-37 19 -80 19q-54 0 -98 -40q-44 -39 -44 -100t45 -101q43 -39 97 -39q33 0 75 18q41 18 115 87q74 -69 115 -87q42 -18 75 -18q54 0 98 40q44 39 44 100z
M638 264q0 -41 -25 -65q-24 -24 -66 -24q-45 0 -82 27q-19 13 -36 28.5t-34 33.5q32 35 71 63q38 26 81 26q41 0 67 -29q24 -29 24 -60zM319 264q-32 -35 -71 -63q-38 -26 -81 -26q-42 0 -67 24q-24 24 -24 65q0 33 25 61q24 28 66 28q44 0 82 -27q19 -13 36 -28.5t34 -33.5
z" />
    <glyph glyph-name="lessequal" unicode="&#xe005;" horiz-adv-x="660" 
d="M592 150v49l-464 192l464 192v49l-524 -220v-42zM592 0v35h-524v-35h524z" />
    <glyph glyph-name="greaterequal" unicode="&#xe006;" horiz-adv-x="660" 
d="M592 370v42l-524 220v-49l463 -192l-463 -192v-49zM592 0v35h-524v-35h524z" />
    <glyph glyph-name="partialdiff" unicode="&#xe007;" horiz-adv-x="833" 
d="M746 0v24h-203q14 13 27 26l26 26q12 13 24 25.5t23 27.5q10 11 20 24.5t21 32.5q20 38 20 70q0 44 -37 74q-37 29 -91 29q-35 0 -63 -11q-26 -11 -39 -21v-32q11 8 22 15.5t23 12.5q24 11 54 11q42 0 70 -22t28 -56q0 -31 -16 -60q-8 -15 -18 -30t-22 -30
q-17 -20 -33 -36.5t-32 -30.5t-33.5 -29.5t-37.5 -32.5v-7h267zM627 691h-40l-525 -718h39zM179 332l-1 355h-33l1 -355h33z" />
    <glyph glyph-name="summation" unicode="&#xe008;" horiz-adv-x="833" 
d="M600 309v-151h-155zM692 137v21h-60v201h-13l-219 -213v-9h200v-137h32v137h60zM627 691h-40l-525 -718h39zM179 332l-1 355h-33l1 -355h33z" />
    <glyph glyph-name="product" unicode="&#xe009;" horiz-adv-x="833" 
d="M657 309v-151h-155zM749 137v21h-60v201h-13l-219 -213v-9h200v-137h32v137h60zM678 691h-40l-525 -718h39zM289 432q0 31 -23 54q-22 23 -63 34q43 12 62 34q18 22 18 47q0 39 -36 65q-34 25 -90 25q-39 0 -63 -9q-23 -7 -33 -14v-25q5 2 13 5.5t20 8.5q22 9 58 9
q42 0 71 -20q28 -18 28 -47q0 -30 -31 -49q-33 -19 -73 -19h-4v-25h7q48 0 78 -22q28 -21 28 -56q0 -34 -29 -55t-73 -21q-33 0 -58 6q-12 3 -21.5 6t-16.5 5v-24q13 -5 40 -12q28 -6 59 -6q57 0 95 29q37 28 37 76z" />
    <glyph glyph-name="pi" unicode="&#xe00a;" horiz-adv-x="549" 
d="M530 151h-22q0 -36 -18 -55q-17 -20 -41 -20q-21 0 -43 21t-22 69q0 38 3 112q3 73 9 123h126v86h-373q-56 0 -88 -44t-51 -105h17q20 36 41 50q23 13 46 13h47l-29 -229q-3 -23 -16 -43q-6 -11 -14.5 -21.5t-19.5 -21.5t-18 -24q-7 -11 -7 -27q0 -22 16 -38t38 -16
q29 0 44 21t21 48l46 351h113q-10 -89 -15 -146q-2 -28 -3.5 -53.5t-1.5 -49.5q0 -82 28 -125t68 -43q47 0 82 45q36 46 37 122z" />
    <glyph glyph-name="integral" unicode="&#xe00b;" horiz-adv-x="274" 
d="M291 860q0 29 -22 42q-22 14 -44 14q-69 0 -87 -110t-18 -323q0 -253 3 -314q3 -62 3 -95q0 -58 -8 -85q-7 -25 -18 -25q-9 0 -23 17q-13 16 -31 16q-17 0 -30 -13q-14 -14 -14 -31q0 -28 21 -44q19 -16 39 -16q80 0 105 121q12 61 18.5 156.5t6.5 228.5q0 70 -3 135.5
t-8 126.5t-7.5 100.5t-2.5 56.5q0 8 4 15t14 7q12 0 23 -12q10 -12 28 -12q24 0 38 15q13 15 13 29z" />
    <glyph glyph-name="Omega" unicode="&#xe00c;" horiz-adv-x="768" 
d="M736 0v162h-15q-9 -34 -20 -49q-11 -12 -46 -12h-158l2 28q104 24 161 102q56 77 56 168q0 136 -99 213q-97 76 -232 76t-233 -77t-98 -212q0 -103 59 -176q59 -72 158 -94l2 -28h-158q-34 0 -46 12q-11 13 -20 49h-15v-162h295l-16 152q-61 17 -101 78q-41 62 -41 172
q0 126 59 191q58 63 155 63t156 -65q58 -64 58 -189q0 -111 -43 -172q-44 -60 -99 -78l-16 -152h295z" />
    <glyph glyph-name="radical" unicode="&#xe00d;" horiz-adv-x="549" 
d="M515 912l-35 5l-127 -798l-197 403l-146 -72l16 -33l96 47l243 -502z" />
    <glyph glyph-name="approxequal" unicode="&#xe00e;" horiz-adv-x="660" 
d="M570 507l-40 13q-19 -27 -45 -40q-26 -14 -55 -14q-18 0 -104 26q-84 26 -116 26q-41 0 -75 -18q-37 -19 -67 -61l40 -16q24 33 48 47q20 13 51 13q26 0 110 -28q85 -27 116 -27q38 0 77 21q38 19 60 58zM570 265l-40 13q-19 -27 -45 -40q-26 -14 -55 -14q-18 0 -104 26
q-84 26 -116 26q-41 0 -75 -18q-37 -19 -67 -61l40 -16q24 33 48 47q20 13 51 13q26 0 110 -28q85 -27 116 -27q38 0 77 21q38 19 60 58z" />
    <glyph glyph-name="Delta" unicode="&#xe00f;" horiz-adv-x="612" 
d="M608 0l-282 688l-320 -688h602zM484 49h-412l218 468z" />
    <glyph glyph-name="nonbreakingspace" unicode="&#xe010;" horiz-adv-x="500" 
 />
    <glyph glyph-name="lozenge" unicode="&#xe011;" horiz-adv-x="494" 
d="M466 377l-194 368h-60l-194 -368l194 -377h60zM406 377l-164 -323l-164 323l164 314z" />
    <glyph glyph-name="ch337" unicode="&#xe012;" horiz-adv-x="427" 
d="M421 38v39q-7 -5 -14.5 -10.5t-17.5 -12.5q-10 -6 -18 -10t-16 -6q-4 0 -7 6q-2 6 -2 13v279q0 59 -38 91q-37 31 -103 31q-48 0 -91 -20q-21 -10 -34.5 -17t-18.5 -12v-49q16 14 52 36q37 22 87 22q47 0 72 -22q26 -21 26 -72v-55q-30 -2 -52.5 -4.5t-38.5 -6.5
q-16 -3 -31 -7t-29 -9q-48 -17 -79 -51q-32 -35 -32 -91q0 -44 36 -77t92 -33q33 0 72 17q37 16 63 42q0 -29 7 -43q6 -15 25 -15q21 0 50 18q14 8 23.5 15.5t16.5 13.5zM298 89q-10 -10 -23 -19.5t-29 -19.5q-32 -20 -73 -20q-43 0 -66 22q-23 21 -23 51q0 39 29 68
q27 27 68 41q42 14 70 16q13 1 24 1h23v-140z" />
    <glyph glyph-name="udoubleacute" unicode="&#xe013;" horiz-adv-x="427" 
d="M417 420v38h-203h-4q-65 0 -115 -47q-49 -46 -49 -116q0 -68 47 -115q30 -30 73 -42q-48 -14 -66 -28q-24 -18 -24 -45q0 -45 64 -64l8 -2q-66 -11 -94 -36q-36 -32 -36 -73q0 -56 53 -88t146 -32q86 0 143 33q56 33 56 95q0 72 -49 97q-24 13 -57 20t-75 7q-49 0 -80 10
q-33 9 -33 37q0 27 43 43q16 6 33 12t37 11q60 8 95 41q46 43 46 116q0 71 -48 118l-4.5 4.5t-6.5 5.5h100zM331 293q0 -49 -36 -86t-84 -37q-50 0 -84 36q-35 37 -35 88q0 52 35 89q34 36 84 36q51 0 85 -37q35 -37 35 -89zM370 -102q0 -43 -47 -66q-49 -22 -103 -22
q-78 0 -117 24t-39 56q0 38 35 62q36 24 130 24q36 0 62.5 -5.5t43.5 -14.5q35 -18 35 -58z" />
    <glyph glyph-name="Udoubleacute" unicode="&#xe014;" horiz-adv-x="698" 
d="M556 895h-81l-104 -156h34q19 21 37.5 40.5t36.5 37.5l37.5 37.5t39.5 40.5zM423 895h-81l-104 -156h34zM635 296v386h-53v-382q0 -119 -63 -189q-62 -71 -168 -71q-107 0 -171 69q-63 69 -63 186v387h-53v-391q0 -132 80 -217q80 -83 206 -83t206 86q79 87 79 219z" />
    <glyph glyph-name="thacek" unicode="&#xe015;" horiz-adv-x="400" 
d="M410 615v69h-65v-97h21q0 -33 -6 -51q-5 -18 -15 -31v-35q11 7 21.5 19.5t21.5 29.5q22 36 22 96zM293 13v47q-21 -10 -41 -16t-38 -6q-43 0 -57 17q-13 16 -13 69v286h126v39h-126v149h-15l-33 -22v-127h-121v-39h121v-319q0 -47 28 -74q29 -26 77 -26q26 0 47 6
q11 3 22 7t23 9z" />
    <glyph glyph-name="Thacek" unicode="&#xe016;" horiz-adv-x="573" 
d="M421 894h-38l-100 -108l-99 108h-38l108 -164h58zM569 638v44h-565v-44h256v-638h53v638h256z" />
    <glyph glyph-name="rhacek" unicode="&#xe017;" horiz-adv-x="333" 
d="M353 676h-38l-100 -108l-99 108h-38l108 -164h58zM373 404q-7 9 -38 31q-32 23 -65 23q-20 0 -40.5 -4t-41.5 -21q-20 -17 -39.5 -36t-37.5 -49v101h-48v-449h48v283q20 36 61 81q42 47 84 47q19 0 42 -14q11 -7 22.5 -16t24.5 -21z" />
    <glyph glyph-name="Rhacek" unicode="&#xe018;" horiz-adv-x="573" 
d="M393 894h-38l-100 -108l-99 108h-38l108 -164h58zM595 0l-128 196l-28 42t-30 43q-31 42 -58 59q50 16 90 58q39 40 39 106q0 86 -60 133q-60 45 -169 45h-172v-682h53v327h104q70 0 106 -41q18 -20 35.5 -45t35.5 -54l120 -187h62zM423 505q0 -65 -47 -100
q-46 -34 -131 -34h-113v267h118q80 0 127 -35q46 -34 46 -98z" />
    <glyph glyph-name="odoubleacute" unicode="&#xe019;" horiz-adv-x="542" 
d="M479 677h-81l-104 -156h34q19 21 37.5 40.5t36.5 37.5l37.5 37.5t39.5 40.5zM346 677h-81l-104 -156h34zM500 224q0 99 -66 167q-64 67 -163 67q-98 0 -164 -67q-65 -68 -65 -167t66 -166q64 -67 163 -67q98 0 164 67q65 68 65 166zM449 224q0 -77 -52 -132
q-53 -54 -126 -54q-74 0 -126 55q-52 53 -52 131t52 133q52 54 126 54t126 -55q52 -53 52 -132z" />
    <glyph glyph-name="Odoubleacute" unicode="&#xe01a;" horiz-adv-x="823" 
d="M619 895h-81l-104 -156h34q19 21 37.5 40.5t36.5 37.5l37.5 37.5t39.5 40.5zM486 895h-81l-104 -156h34zM773 341q0 149 -104 250q-105 100 -257 100q-154 0 -258 -101q-103 -100 -103 -249t104 -250q103 -100 257 -100q153 0 257 101t104 249zM716 341q0 -124 -89 -213
q-88 -88 -215 -88q-128 0 -216 88t-88 213q0 124 89 213q88 88 215 88t215 -88q89 -89 89 -213z" />
    <glyph glyph-name="nhacek" unicode="&#xe01b;" 
d="M392 676h-38l-100 -108l-99 108h-38l108 -164h58zM428 0v271q0 88 -46 137q-47 50 -125 50q-45 0 -80 -20q-34 -19 -68 -71v82h-47v-449h48v317q25 38 58 66q34 28 89 28q60 0 92 -41q31 -42 31 -114v-256h48z" />
    <glyph glyph-name="Nhacek" unicode="&#xe01c;" horiz-adv-x="771" 
d="M535 894h-38l-100 -108l-99 108h-38l108 -164h58zM694 0v682h-53v-598q-65 78 -129 152t-130 147t-130 147t-129 152h-45v-682h53v596l518 -596h45z" />
    <glyph glyph-name="lmiddledot" unicode="&#xe01d;" horiz-adv-x="330" 
d="M286 283v88h-88v-88h88zM118 0v682h-48v-682h48z" />
    <glyph glyph-name="Lmiddledot" unicode="&#xe01e;" horiz-adv-x="469" 
d="M341 283v88h-88v-88h88zM469 0v44h-337v638h-53v-682h390z" />
    <glyph glyph-name="lhacek" unicode="&#xe01f;" horiz-adv-x="250" 
d="M257 614v69h-65v-97h21q0 -33 -6 -51q-5 -18 -15 -31v-35q11 7 21.5 19.5t21.5 29.5q22 36 22 96zM118 0v682h-48v-682h48z" />
    <glyph glyph-name="Lhacek" unicode="&#xe020;" horiz-adv-x="469" 
d="M368 615v69h-65v-97h21q0 -33 -6 -51q-5 -18 -15 -31v-35q11 7 21.5 19.5t21.5 29.5q22 36 22 96zM469 0v44h-337v638h-53v-682h390z" />
    <glyph glyph-name="ehacek" unicode="&#xe021;" horiz-adv-x="479" 
d="M385 676h-38l-100 -108l-99 108h-38l108 -164h58zM446 241q0 94 -56 156q-55 61 -143 61q-91 0 -149 -66q-58 -65 -58 -161q0 -105 65 -173q64 -67 166 -67q53 0 98 20q22 10 38.5 20t29.5 20v54q-10 -9 -26 -19.5t-38 -23.5q-44 -24 -98 -24q-79 0 -132 53
q-53 51 -53 130v11t1 9h355zM387 280h-291q14 49 37 78q43 53 115 53q60 0 95 -35q33 -33 44 -96z" />
    <glyph glyph-name="Ehacek" unicode="&#xe022;" 
d="M403 894h-38l-100 -108l-99 108h-38l108 -164h58zM460 0v44h-327v277l311 1v43h-311v273h320v44h-373v-682h380z" />
    <glyph glyph-name="dhacek" unicode="&#xe023;" horiz-adv-x="603" 
d="M613 614v69h-65v-97h21q0 -33 -6 -51q-5 -18 -15 -31v-35q11 7 21.5 19.5t21.5 29.5q22 36 22 96zM450 0v682h-48v-260q-19 12 -57 25q-36 11 -69 11q-105 0 -170 -65t-65 -169q0 -99 66 -166t162 -67q39 0 69 10q30 11 64 34v-35h48zM401 79q-5 -4 -15 -10.5t-26 -14.5
q-29 -16 -80 -16q-81 0 -135 54q-53 53 -53 132q0 82 51 135q49 52 130 52q44 0 77 -15q35 -16 51 -28v-289z" />
    <glyph glyph-name="Dhacek" unicode="&#xe024;" horiz-adv-x="740" 
d="M461 894h-38l-100 -108l-99 108h-38l108 -164h58zM689 340q0 159 -99 251q-99 91 -268 91h-243v-682h250q170 0 265 95t95 245zM632 340q0 -134 -87 -215t-230 -81h-183v594h185q143 0 229 -82q86 -83 86 -216z" />
    <glyph glyph-name="Dbar" unicode="&#xe025;" horiz-adv-x="740" 
d="M689 340q0 159 -99 251q-97 89 -268 91l-243 3v-321h-102v-44h102v-320h250q170 0 265 95t95 245zM632 340q0 -134 -87 -215t-230 -81h-183v276h221v44h-221v274h185q143 0 229 -82q86 -83 86 -216z" />
    <glyph glyph-name="zdot" unicode="&#xe026;" horiz-adv-x="396" 
d="M241 548v88h-88v-88h88zM385 0v44h-295l295 390l-4 15h-355v-44h281l-297 -390l5 -15h370z" />
    <glyph glyph-name="Zdot" unicode="&#xe027;" horiz-adv-x="635" 
d="M358 766v88h-88v-88h88zM611 0v44h-515l512 619l-5 19h-571v-44h488l-511 -623l5 -15h597z" />
    <glyph glyph-name="zacute" unicode="&#xe028;" horiz-adv-x="396" 
d="M364 677h-81l-104 -156h32zM385 0v44h-295l295 390l-4 15h-355v-44h281l-297 -390l5 -15h370z" />
    <glyph glyph-name="Zacute" unicode="&#xe029;" horiz-adv-x="635" 
d="M481 895h-81l-104 -156h32zM611 0v44h-515l512 619l-5 19h-571v-44h488l-511 -623l5 -15h597z" />
    <glyph glyph-name="uogonek" unicode="&#xe02a;" 
d="M460 -165v38l-18 -1q-14 -1 -25.5 3t-21.5 11q-19 12 -19 43q0 23 19 45q12 15 23 26h10v9l1 1h-1v439h-48v-314q-17 -33 -56 -65q-38 -32 -90 -32q-59 0 -92 38q-32 38 -32 106v267h-48v-277q0 -88 47 -135q46 -46 131 -46q37 0 74 20q35 19 66 67v-75q-22 -13 -38 -33
q-18 -26 -18 -56q0 -40 28 -62q26 -22 67 -22z" />
    <glyph glyph-name="Uogonek" unicode="&#xe02b;" horiz-adv-x="698" 
d="M428 -165v38l-18 -1q-14 -1 -25.5 3t-21.5 11q-19 12 -19 43q0 23 19 45q4 5 8 9.5t8 8.5q107 9 177 85q79 87 79 219v386h-53v-382q0 -119 -63 -189q-62 -71 -168 -71q-107 0 -171 69q-63 69 -63 186v387h-53v-391q0 -132 80 -217q74 -77 187 -83q-12 -9 -21 -21
q-18 -26 -18 -56q0 -40 28 -62q26 -22 67 -22z" />
    <glyph glyph-name="uring" unicode="&#xe02c;" 
d="M332 592q0 35 -26 61q-25 25 -61 25t-61 -25t-25 -61t25 -61t61 -25q37 0 62 25t25 61zM305 592q0 -26 -18 -42q-17 -17 -42 -17t-42 17t-17 42t17 42t42 17q24 0 43 -17q17 -17 17 -42zM428 0v449h-48v-314q-17 -33 -56 -65q-38 -32 -90 -32q-59 0 -92 38
q-32 38 -32 106v267h-48v-277q0 -88 47 -135q46 -46 131 -46q37 0 74 20q35 19 66 67v-78h48z" />
    <glyph glyph-name="Uring" unicode="&#xe02d;" horiz-adv-x="698" 
d="M436 810q0 35 -26 61q-25 25 -61 25t-61 -25t-25 -61t25 -61t61 -25q37 0 62 25t25 61zM409 810q0 -26 -18 -42q-17 -17 -42 -17t-42 17t-17 42t17 42t42 17q24 0 43 -17q17 -17 17 -42zM635 296v386h-53v-382q0 -119 -63 -189q-62 -71 -168 -71q-107 0 -171 69
q-63 69 -63 186v387h-53v-391q0 -132 80 -217q80 -83 206 -83t206 86q79 87 79 219z" />
    <glyph glyph-name="umacron" unicode="&#xe02e;" 
d="M383 572v51h-266v-51h266zM428 0v449h-48v-314q-17 -33 -56 -65q-38 -32 -90 -32q-59 0 -92 38q-32 38 -32 106v267h-48v-277q0 -88 47 -135q46 -46 131 -46q37 0 74 20q35 19 66 67v-78h48z" />
    <glyph glyph-name="Umacron" unicode="&#xe02f;" horiz-adv-x="698" 
d="M487 790v51h-266v-51h266zM635 296v386h-53v-382q0 -119 -63 -189q-62 -71 -168 -71q-107 0 -171 69q-63 69 -63 186v387h-53v-391q0 -132 80 -217q80 -83 206 -83t206 86q79 87 79 219z" />
    <glyph glyph-name="tcedilla" unicode="&#xe030;" horiz-adv-x="302" 
d="M275 -101q0 27 -18 47q-18 19 -44 19l8 27q13 1 27 5q11 3 22 7t23 9v47q-21 -10 -41 -16t-38 -6q-43 0 -57 17q-13 16 -13 69v286h126v39h-126v149h-15l-33 -22v-127h-121v-39h121v-319q0 -47 28 -74q26 -23 66 -26l-16 -53q30 0 46 -10t16 -30t-17 -29q-19 -10 -48 -9
l-33 2l-5 -32l45 -5q43 0 70 21q27 19 27 53z" />
    <glyph glyph-name="Tcedilla" unicode="&#xe031;" horiz-adv-x="573" 
d="M355 -101q0 27 -18 47q-18 19 -44 19l10 35h10v638h256v44h-565v-44h256v-638h13l-19 -62q30 0 46 -10t16 -30t-17 -29q-19 -10 -48 -9l-33 2l-5 -32l45 -5q43 0 70 21q27 19 27 53z" />
    <glyph glyph-name="sacute" unicode="&#xe032;" horiz-adv-x="354" 
d="M341 677h-81l-104 -156h32zM323 116q0 54 -37 84q-39 31 -95 50q-44 16 -74 36q-27 19 -27 52q0 31 27 54q25 22 72 22q32 0 65 -14q16 -7 29.5 -15t25.5 -17v51q-15 13 -48 26q-17 6 -35.5 9.5t-40.5 3.5q-54 0 -98 -35q-43 -34 -43 -86q0 -48 30 -76q31 -30 86 -49
q73 -27 96 -48q21 -21 21 -47q0 -36 -28 -58q-29 -21 -71 -21q-35 0 -73 13q-38 12 -64 29v-48q18 -11 52 -27q36 -15 85 -15q62 0 103 37q42 37 42 89z" />
    <glyph glyph-name="Sacute" unicode="&#xe033;" horiz-adv-x="469" 
d="M399 895h-81l-104 -156h32zM427 173q0 78 -38 121q-37 41 -141 79q-78 29 -112 58q-33 28 -33 84q0 52 42 90q40 37 101 37q51 0 90 -19q20 -10 36.5 -18t27.5 -15l-1 58q-5 4 -19 10.5t-37 15.5q-46 17 -103 17q-78 0 -137 -53q-57 -53 -57 -125q0 -74 39 -113
q38 -39 122 -68q82 -28 124 -62q40 -33 40 -94q0 -58 -42 -97t-104 -39q-39 0 -79 18q-20 9 -43 22.5t-48 32.5v-62q11 -8 28.5 -17.5t42.5 -20.5q48 -22 108 -22q79 0 136 54t57 128z" />
    <glyph glyph-name="rcedilla" unicode="&#xe034;" horiz-adv-x="333" 
d="M156 -101q0 27 -18 47q-18 19 -44 19l10 35h7v283q20 36 61 81q42 47 84 47q19 0 42 -14q11 -7 22.5 -16t24.5 -21l28 44q-7 9 -38 31q-32 23 -65 23q-20 0 -40.5 -4t-41.5 -21q-20 -17 -39.5 -36t-37.5 -49v101h-48v-449h11l-19 -62q30 0 46 -10t16 -30t-17 -29
q-19 -10 -48 -9l-33 2l-5 -32l45 -5q43 0 70 21q27 19 27 53z" />
    <glyph glyph-name="Rcedilla" unicode="&#xe035;" horiz-adv-x="573" 
d="M173 -101q0 27 -18 47q-18 19 -44 19l10 35h11v327h104q70 0 106 -41q18 -20 35.5 -45t35.5 -54l120 -187h62l-128 196l-28 42t-30 43q-31 42 -58 59q50 16 90 58q39 40 39 106q0 86 -60 133q-60 45 -169 45h-172v-682h12l-19 -62q30 0 46 -10t16 -30t-17 -29
q-19 -10 -48 -9l-33 2l-5 -32l45 -5q43 0 70 21q27 19 27 53zM423 505q0 -65 -47 -100q-46 -34 -131 -34h-113v267h118q80 0 127 -35q46 -34 46 -98z" />
    <glyph glyph-name="racute" unicode="&#xe036;" horiz-adv-x="333" 
d="M379 677h-81l-104 -156h32zM373 404q-7 9 -38 31q-32 23 -65 23q-20 0 -40.5 -4t-41.5 -21q-20 -17 -39.5 -36t-37.5 -49v101h-48v-449h48v283q20 36 61 81q42 47 84 47q19 0 42 -14q11 -7 22.5 -16t24.5 -21z" />
    <glyph glyph-name="Racute" unicode="&#xe037;" horiz-adv-x="573" 
d="M419 895h-81l-104 -156h32zM595 0l-128 196l-28 42t-30 43q-31 42 -58 59q50 16 90 58q39 40 39 106q0 86 -60 133q-60 45 -169 45h-172v-682h53v327h104q70 0 106 -41q18 -20 35.5 -45t35.5 -54l120 -187h62zM423 505q0 -65 -47 -100q-46 -34 -131 -34h-113v267h118
q80 0 127 -35q46 -34 46 -98z" />
    <glyph glyph-name="omacron" unicode="&#xe038;" horiz-adv-x="542" 
d="M410 572v51h-266v-51h266zM500 224q0 99 -66 167q-64 67 -163 67q-98 0 -164 -67q-65 -68 -65 -167t66 -166q64 -67 163 -67q98 0 164 67q65 68 65 166zM449 224q0 -77 -52 -132q-53 -54 -126 -54q-74 0 -126 55q-52 53 -52 131t52 133q52 54 126 54t126 -55
q52 -53 52 -132z" />
    <glyph glyph-name="Omacron" unicode="&#xe039;" horiz-adv-x="823" 
d="M550 790v51h-266v-51h266zM773 341q0 149 -104 250q-105 100 -257 100q-154 0 -258 -101q-103 -100 -103 -249t104 -250q103 -100 257 -100q153 0 257 101t104 249zM716 341q0 -124 -89 -213q-88 -88 -215 -88q-128 0 -216 88t-88 213q0 124 89 213q88 88 215 88t215 -88
q89 -89 89 -213z" />
    <glyph glyph-name="ncedilla" unicode="&#xe03a;" 
d="M153 -101q0 27 -18 47q-18 19 -44 19l10 35h9v317q25 38 58 66q34 28 89 28q60 0 92 -41q31 -42 31 -114v-256h48v271q0 88 -46 137q-47 50 -125 50q-45 0 -80 -20q-34 -19 -68 -71v82h-47v-449h9l-19 -62q30 0 46 -10t16 -30t-17 -29q-19 -10 -48 -9l-33 2l-5 -32l45 -5
q43 0 70 21q27 19 27 53z" />
    <glyph glyph-name="Ncedilla" unicode="&#xe03b;" horiz-adv-x="771" 
d="M173 -101q0 27 -18 47q-18 19 -44 19l10 35h10v596l518 -596h45v682h-53v-598q-65 78 -129 152t-130 147t-130 147t-129 152h-45v-682h13l-19 -62q30 0 46 -10t16 -30t-17 -29q-19 -10 -48 -9l-33 2l-5 -32l45 -5q43 0 70 21q27 19 27 53z" />
    <glyph glyph-name="nacute" unicode="&#xe03c;" 
d="M418 677h-81l-104 -156h32zM428 0v271q0 88 -46 137q-47 50 -125 50q-45 0 -80 -20q-34 -19 -68 -71v82h-47v-449h48v317q25 38 58 66q34 28 89 28q60 0 92 -41q31 -42 31 -114v-256h48z" />
    <glyph glyph-name="Nacute" unicode="&#xe03d;" horiz-adv-x="771" 
d="M561 895h-81l-104 -156h32zM694 0v682h-53v-598q-65 78 -129 152t-130 147t-130 147t-129 152h-45v-682h53v596l518 -596h45z" />
    <glyph glyph-name="lcedilla" unicode="&#xe03e;" horiz-adv-x="188" 
d="M161 -101q0 27 -18 47q-18 19 -44 19l10 35h9v682h-48v-682h9l-19 -62q30 0 46 -10t16 -30t-17 -29q-19 -10 -48 -9l-33 2l-5 -32l45 -5q43 0 70 21q27 19 27 53z" />
    <glyph glyph-name="Lcedilla" unicode="&#xe03f;" horiz-adv-x="469" 
d="M342 -101q0 27 -18 47q-18 19 -44 19l10 35h179v44h-337v638h-53v-682h181l-19 -62q30 0 46 -10t16 -30t-17 -29q-19 -10 -48 -9l-33 2l-5 -32l45 -5q43 0 70 21q27 19 27 53z" />
    <glyph glyph-name="lacute" unicode="&#xe040;" horiz-adv-x="188" 
d="M260 883h-81l-104 -156h32zM118 0v682h-48v-682h48z" />
    <glyph glyph-name="Lacute" unicode="&#xe041;" horiz-adv-x="469" 
d="M276 895h-81l-104 -156h32zM469 0v44h-337v638h-53v-682h390z" />
    <glyph glyph-name="kcedilla" unicode="&#xe042;" horiz-adv-x="427" 
d="M463 0l-284 236l246 213h-63l-248 -213l284 -236h65zM152 -101q0 27 -18 47q-18 19 -44 19l10 35h7v236v446h-48v-682h11l-19 -62q30 0 46 -10t16 -30t-17 -29q-19 -10 -48 -9l-33 2l-5 -32l45 -5q43 0 70 21q27 19 27 53z" />
    <glyph glyph-name="Kcedilla" unicode="&#xe043;" horiz-adv-x="531" 
d="M174 -101q0 27 -18 47q-18 19 -44 19l10 35h7v342l357 -342h67l-356 342l325 340h-66l-327 -340v340h-53v-682h16l-19 -62q30 0 46 -10t16 -30t-17 -29q-19 -10 -48 -9l-33 2l-5 -32l45 -5q43 0 70 21q27 19 27 53z" />
    <glyph glyph-name="iogonek" unicode="&#xe044;" horiz-adv-x="188" 
d="M118 600v82h-48v-82h48zM148 -165v38l-18 -1q-14 -1 -25.5 3t-21.5 11q-19 12 -19 43q0 23 19 45q12 15 23 26h12v449h-48v-445q-25 -13 -40 -34q-18 -26 -18 -56q0 -40 28 -62q26 -22 67 -22z" />
    <glyph glyph-name="Iogonek" unicode="&#xe045;" horiz-adv-x="208" 
d="M159 -165v38l-18 -1q-14 -1 -25.5 3t-21.5 11q-19 12 -19 43q0 23 19 45q12 15 23 26h13v682h-52v-680q-24 -13 -37 -32q-18 -26 -18 -56q0 -40 28 -62q26 -22 67 -22z" />
    <glyph glyph-name="imacron" unicode="&#xe046;" horiz-adv-x="188" 
d="M232 572v51h-266v-51h266zM118 0v449h-48v-449h48z" />
    <glyph glyph-name="Imacron" unicode="&#xe047;" horiz-adv-x="208" 
d="M244 790v51h-266v-51h266zM130 0v682h-52v-682h52z" />
    <glyph glyph-name="gcedilla" unicode="&#xe048;" horiz-adv-x="427" 
d="M385 677h-81l-104 -156h32zM447 -92h-1v541h-47v-31q-32 19 -68 30q-33 10 -67 10q-100 0 -164 -69q-63 -69 -63 -177q0 -97 61 -159q62 -62 156 -62q43 0 77 10q37 10 67 24v-117q0 -16 -12.5 -30.5t-30.5 -26t-38 -18t-34 -6.5q-35 0 -66 20q-14 10 -25.5 26t-21.5 36
l-50 -1q21 -62 66 -100q44 -37 97 -37q24 0 52.5 11.5t53.5 31t41.5 44t16.5 50.5zM399 75q-22 -14 -57 -28q-33 -12 -79 -12q-79 0 -127 49q-48 48 -48 129q0 86 53 142t133 56q42 0 77 -15q35 -16 48 -25v-296z" />
    <glyph glyph-name="Gcedilla" unicode="&#xe049;" horiz-adv-x="719" 
d="M476 -101q0 27 -18 47q-18 19 -44 19l7 26q67 0 132 17q62 17 109 41v261h-196v-44h144v-184q-26 -15 -76 -29q-48 -13 -106 -13q-144 0 -233 83q-88 82 -88 219q0 129 87 215q88 85 217 85q64 0 124 -19q59 -17 115 -50v60q-28 16 -95 37q-66 21 -144 21
q-155 0 -258 -100q-103 -99 -103 -248q0 -152 106 -252q96 -90 235 -99l-16 -54q30 0 46 -10t16 -30t-17 -29q-19 -10 -48 -9l-33 2l-5 -32l45 -5q43 0 70 21q27 19 27 53z" />
    <glyph glyph-name="eogonek" unicode="&#xe04a;" horiz-adv-x="479" 
d="M336 -165v38l-18 -1q-14 -1 -25.5 3t-21.5 11q-19 12 -19 43q0 23 19 45q4 5 7.5 9t7.5 8q44 3 83 20q22 10 38.5 20t29.5 20v54q-10 -9 -26 -19.5t-38 -23.5q-44 -24 -98 -24q-79 0 -132 53q-53 51 -53 130v11t1 9h355q0 94 -56 156q-55 61 -143 61q-91 0 -149 -66
q-58 -65 -58 -161q0 -105 65 -173q55 -58 135 -65q-14 -12 -22 -23q-18 -26 -18 -56q0 -40 28 -62q26 -22 67 -22zM387 280h-291q14 49 37 78q43 53 115 53q60 0 95 -35q33 -33 44 -96z" />
    <glyph glyph-name="Eogonek" unicode="&#xe04b;" 
d="M487 -165v38l-18 -1q-14 -1 -25.5 3t-21.5 11q-19 12 -19 43q0 23 19 45q12 15 23 26h15v44h-327v277l311 1v43h-311v273h320v44h-373v-682h322q-20 -12 -33 -30q-18 -26 -18 -56q0 -40 28 -62q26 -22 67 -22z" />
    <glyph glyph-name="edot" unicode="&#xe04c;" horiz-adv-x="479" 
d="M288 548v88h-88v-88h88zM446 241q0 94 -56 156q-55 61 -143 61q-91 0 -149 -66q-58 -65 -58 -161q0 -105 65 -173q64 -67 166 -67q53 0 98 20q22 10 38.5 20t29.5 20v54q-10 -9 -26 -19.5t-38 -23.5q-44 -24 -98 -24q-79 0 -132 53q-53 51 -53 130v11t1 9h355zM387 280
h-291q14 49 37 78q43 53 115 53q60 0 95 -35q33 -33 44 -96z" />
    <glyph glyph-name="Edot" unicode="&#xe04d;" 
d="M306 766v88h-88v-88h88zM460 0v44h-327v277l311 1v43h-311v273h320v44h-373v-682h380z" />
    <glyph glyph-name="emacron" unicode="&#xe04e;" horiz-adv-x="479" 
d="M378 572v51h-266v-51h266zM446 241q0 94 -56 156q-55 61 -143 61q-91 0 -149 -66q-58 -65 -58 -161q0 -105 65 -173q64 -67 166 -67q53 0 98 20q22 10 38.5 20t29.5 20v54q-10 -9 -26 -19.5t-38 -23.5q-44 -24 -98 -24q-79 0 -132 53q-53 51 -53 130v11t1 9h355zM387 280
h-291q14 49 37 78q43 53 115 53q60 0 95 -35q33 -33 44 -96z" />
    <glyph glyph-name="Emacron" unicode="&#xe04f;" 
d="M396 790v51h-266v-51h266zM460 0v44h-327v277l311 1v43h-311v273h320v44h-373v-682h380z" />
    <glyph glyph-name="aogonek" unicode="&#xe050;" horiz-adv-x="427" 
d="M237 -165v38l-18 -1q-14 -1 -25.5 3t-21.5 11q-19 12 -19 43q0 23 19 45q12 13 21 24q27 -7 61 -7q43 0 77 10q37 10 67 24v-27h48v451h-47v-31q-32 19 -68 30q-33 10 -67 10q-100 0 -164 -69q-63 -69 -63 -177q0 -97 61 -159q31 -31 68 -46q-30 -13 -47 -37
q-18 -26 -18 -56q0 -40 28 -62q26 -22 67 -22zM399 75q-22 -14 -57 -28q-33 -12 -79 -12q-79 0 -127 49q-48 48 -48 129q0 86 53 142t133 56q42 0 77 -15q35 -16 48 -25v-296z" />
    <glyph glyph-name="Aogonek" unicode="&#xe051;" horiz-adv-x="667" 
d="M689 -165v38l-18 -1q-14 -1 -25.5 3t-21.5 11q-19 12 -19 43q0 23 19 45q12 15 23 26h15l-4 10h-1l-309 677h-29l-315 -687h55l108 236h333l107 -234q-24 -14 -36 -32q-18 -26 -18 -56q0 -40 28 -62q26 -22 67 -22zM480 280h-293l146 321z" />
    <glyph glyph-name="abreve" unicode="&#xe052;" horiz-adv-x="427" 
d="M349 647h-41q-17 -35 -41 -51q-25 -16 -55 -16q-29 0 -55 17q-24 16 -40 50h-41q17 -51 56 -83q37 -31 80 -31q44 0 81 31t56 83zM446 -2v451h-47v-31q-32 19 -68 30q-33 10 -67 10q-100 0 -164 -69q-63 -69 -63 -177q0 -97 61 -159q62 -62 156 -62q43 0 77 10
q37 10 67 24v-27h48zM399 75q-22 -14 -57 -28q-33 -12 -79 -12q-79 0 -127 49q-48 48 -48 129q0 86 53 142t133 56q42 0 77 -15q35 -16 48 -25v-296z" />
    <glyph glyph-name="Abreve" unicode="&#xe053;" horiz-adv-x="667" 
d="M470 865h-41q-17 -35 -41 -51q-25 -16 -55 -16q-29 0 -55 17q-24 16 -40 50h-41q17 -51 56 -83q37 -31 80 -31q44 0 81 31t56 83zM662 0l-314 687h-29l-315 -687h55l108 236h333l108 -236h54zM480 280h-293l146 321z" />
    <glyph glyph-name="amacron" unicode="&#xe054;" horiz-adv-x="427" 
d="M351 572v51h-266v-51h266zM446 -2v451h-47v-31q-32 19 -68 30q-33 10 -67 10q-100 0 -164 -69q-63 -69 -63 -177q0 -97 61 -159q62 -62 156 -62q43 0 77 10q37 10 67 24v-27h48zM399 75q-22 -14 -57 -28q-33 -12 -79 -12q-79 0 -127 49q-48 48 -48 129q0 86 53 142
t133 56q42 0 77 -15q35 -16 48 -25v-296z" />
    <glyph glyph-name="Amacron" unicode="&#xe055;" horiz-adv-x="667" 
d="M472 790v51h-266v-51h266zM662 0l-314 687h-29l-315 -687h55l108 236h333l108 -236h54zM480 280h-293l146 321z" />
    <glyph glyph-name="sfthyphen" unicode="&#xe056;" horiz-adv-x="313" 
d="M275 226v47h-237v-47h237z" />
    <glyph glyph-name="dmacron" unicode="&#xe057;" horiz-adv-x="550" 
d="M537 534v42h-87v106h-48v-106h-102v-42h102v-112q-19 12 -57 25q-36 11 -69 11q-105 0 -170 -65t-65 -169q0 -99 66 -166t162 -67q39 0 69 10q30 11 64 34v-35h48v534h87zM401 80q-5 -5 -15 -11.5t-26 -14.5q-29 -16 -80 -16q-81 0 -135 54q-53 53 -53 132q0 82 51 135
q49 52 130 52q44 0 77 -15q35 -16 51 -28v-288z" />
    <glyph glyph-name="ccaron" unicode="&#xe058;" horiz-adv-x="417" 
d="M374 676h-38l-100 -108l-99 108h-38l108 -164h58zM387 14v50q-18 -8 -49 -17q-32 -9 -69 -9q-83 0 -129 51q-47 50 -47 135q0 82 47 135q46 52 123 52q40 0 67 -10q14 -5 26.5 -9t22.5 -9v53q-14 5 -27.5 8.5t-27.5 7.5q-29 6 -62 6q-101 0 -161 -69q-59 -68 -59 -165
q0 -107 60 -170t165 -63q38 0 73 9q17 5 28.5 8.5t18.5 5.5z" />
    <glyph glyph-name="Ccaron" unicode="&#xe059;" horiz-adv-x="677" 
d="M529 894h-38l-100 -108l-99 108h-38l108 -164h58zM655 56v55q-23 -13 -49.5 -25.5t-58.5 -23.5q-62 -22 -135 -22q-136 0 -221 84t-85 217q0 129 87 215q86 86 216 86q66 0 126 -19q64 -20 112 -48v59q-50 26 -113 42q-63 15 -116 15q-158 0 -264 -100
q-105 -101 -105 -250q0 -155 105 -252q104 -98 267 -98q59 0 122 19q32 10 60.5 21t51.5 25z" />
    <glyph glyph-name="cacute" unicode="&#xe05a;" horiz-adv-x="417" 
d="M400 677h-81l-104 -156h32zM387 14v50q-18 -8 -49 -17q-32 -9 -69 -9q-83 0 -129 51q-47 50 -47 135q0 82 47 135q46 52 123 52q40 0 67 -10q14 -5 26.5 -9t22.5 -9v53q-14 5 -27.5 8.5t-27.5 7.5q-29 6 -62 6q-101 0 -161 -69q-59 -68 -59 -165q0 -107 60 -170t165 -63
q38 0 73 9q17 5 28.5 8.5t18.5 5.5z" />
    <glyph glyph-name="Cacute" unicode="&#xe05b;" horiz-adv-x="677" 
d="M555 895h-81l-104 -156h32zM655 56v55q-23 -13 -49.5 -25.5t-58.5 -23.5q-62 -22 -135 -22q-136 0 -221 84t-85 217q0 129 87 215q86 86 216 86q66 0 126 -19q64 -20 112 -48v59q-50 26 -113 42q-63 15 -116 15q-158 0 -264 -100q-105 -101 -105 -250q0 -155 105 -252
q104 -98 267 -98q59 0 122 19q32 10 60.5 21t51.5 25z" />
    <glyph glyph-name="scedilla" unicode="&#xe05c;" horiz-adv-x="354" 
d="M248 -101q0 27 -18 47q-18 19 -44 19l7 26q52 3 88 36q42 37 42 89q0 54 -37 84q-39 31 -95 50q-44 16 -74 36q-27 19 -27 52q0 31 27 54q25 22 72 22q32 0 65 -14q16 -7 29.5 -15t25.5 -17v51q-15 13 -48 26q-17 6 -35.5 9.5t-40.5 3.5q-54 0 -98 -35q-43 -34 -43 -86
q0 -48 30 -76q31 -30 86 -49q73 -27 96 -48q21 -21 21 -47q0 -36 -28 -58q-29 -21 -71 -21q-35 0 -73 13q-38 12 -64 29v-48q18 -11 52 -27q15 -7 32.5 -10t37.5 -5l-16 -52q30 0 46 -10t16 -30t-17 -29q-19 -10 -48 -9l-33 2l-5 -32l45 -5q43 0 70 21q27 19 27 53z" />
    <glyph glyph-name="Scedilla" unicode="&#xe05d;" horiz-adv-x="469" 
d="M305 -101q0 27 -18 47q-18 19 -44 19l7 27q68 4 120 53q57 54 57 128q0 78 -38 121q-37 41 -141 79q-78 29 -112 58q-33 28 -33 84q0 52 42 90q40 37 101 37q51 0 90 -19q20 -10 36.5 -18t27.5 -15l-1 58q-5 4 -19 10.5t-37 15.5q-46 17 -103 17q-78 0 -137 -53
q-57 -53 -57 -125q0 -74 39 -113q38 -39 122 -68q82 -28 124 -62q40 -33 40 -94q0 -58 -42 -97t-104 -39q-39 0 -79 18q-20 9 -43 22.5t-48 32.5v-62q11 -8 28.5 -17.5t42.5 -20.5q42 -19 94 -22l-16 -53q30 0 46 -10t16 -30t-17 -29q-19 -10 -48 -9l-33 2l-5 -32l45 -5
q43 0 70 21q27 19 27 53z" />
    <glyph glyph-name="Idotaccent" unicode="&#xe05e;" horiz-adv-x="208" 
d="M154 766v88h-88v-88h88zM130 0v682h-52v-682h52z" />
    <glyph glyph-name="gbreve" unicode="&#xe05f;" horiz-adv-x="427" 
d="M350 647h-41q-17 -35 -41 -51q-25 -16 -55 -16q-29 0 -55 17q-24 16 -40 50h-41q17 -51 56 -83q37 -31 80 -31q44 0 81 31t56 83zM447 -92h-1v541h-47v-31q-32 19 -68 30q-33 10 -67 10q-100 0 -164 -69q-63 -69 -63 -177q0 -97 61 -159q62 -62 156 -62q43 0 77 10
q37 10 67 24v-117q0 -16 -12.5 -30.5t-30.5 -26t-38 -18t-34 -6.5q-35 0 -66 20q-14 10 -25.5 26t-21.5 36l-50 -1q21 -62 66 -100q44 -37 97 -37q24 0 52.5 11.5t53.5 31t41.5 44t16.5 50.5zM399 75q-22 -14 -57 -28q-33 -12 -79 -12q-79 0 -127 49q-48 48 -48 129
q0 86 53 142t133 56q42 0 77 -15q35 -16 48 -25v-296z" />
    <glyph glyph-name="Gbreve" unicode="&#xe060;" horiz-adv-x="719" 
d="M546 865h-41q-17 -35 -41 -51q-25 -16 -55 -16q-29 0 -55 17q-24 16 -40 50h-41q17 -51 56 -83q37 -31 80 -31q44 0 81 31t56 83zM662 49v261h-196v-44h144v-184q-26 -15 -76 -29q-48 -13 -106 -13q-144 0 -233 83q-88 82 -88 219q0 129 87 215q88 85 217 85
q64 0 124 -19q59 -17 115 -50v60q-28 16 -95 37q-66 21 -144 21q-155 0 -258 -100q-103 -99 -103 -248q0 -152 106 -252q104 -100 265 -100q67 0 132 17q62 17 109 41z" />
    <glyph glyph-name="franc" unicode="&#xe061;" horiz-adv-x="438" 
d="M431 638v44h-353v-487h-57v-44h57v-151h53v151h58v44h-58v140h269v44h-269v259h300z" />
    </font>
</defs>
</svg>
