<?xml version="1.0" standalone="no"?>
<!DOCTYPE svg PUBLIC "-//W3C//DTD SVG 1.1//EN" "http://www.w3.org/Graphics/SVG/1.1/DTD/svg11.dtd" >
<svg xmlns="http://www.w3.org/2000/svg" xmlns:xlink="http://www.w3.org/1999/xlink" version="1.1">
<metadata>
Created by FontForge 20161003 at Tue May  9 07:01:29 2017
 By www-data
Copyright (c) 5-3-05M. Klein \(Blended between Light and Bold\)
</metadata>
<defs>
<font id="PetitaMedium" horiz-adv-x="350" >
  <font-face 
    font-family="PetitaMedium"
    font-weight="500"
    font-stretch="normal"
    units-per-em="1000"
    panose-1="2 0 6 4 6 0 0 2 0 3"
    ascent="800"
    descent="-200"
    x-height="462"
    cap-height="695"
    bbox="-236 -295 1077 931"
    underline-thickness="20"
    underline-position="-163"
    unicode-range="U+0005-E00E"
  />
<missing-glyph horiz-adv-x="1000" 
 />
    <glyph glyph-name=".notdef" horiz-adv-x="1000" 
 />
    <glyph glyph-name=".null" horiz-adv-x="0" 
 />
    <glyph glyph-name="nonmarkingreturn" horiz-adv-x="333" 
 />
    <glyph glyph-name="breve" 
d="M329 660h-67q-11 -22 -20 -34t-20 -20q-23 -14 -48 -14q-26 0 -48 15q-11 8 -19.5 19.5t-19.5 33.5h-66q14 -41 29.5 -65t35.5 -41q42 -34 88 -34q47 0 89 34q20 17 35.5 41t30.5 65z" />
    <glyph glyph-name="dotaccent" 
d="M231 536v113h-113v-114z" />
    <glyph glyph-name="ring" 
d="M274 592q0 40 -30 70q-29 29 -70 29q-39 0 -70 -29q-28 -29 -28 -70t28 -70q31 -29 70 -29q42 0 71 29t29 70zM222 592q0 -19 -14 -33t-34 -14q-19 0 -33 14q-13 13 -13 33t13 33q14 14 33 14t35 -14q13 -13 13 -33z" />
    <glyph glyph-name="hungarumlaut" unicode="&#xa;" 
d="M409 690h-117l-120 -182h63q21 24 40 44t37 38l40 40t57 60zM257 690h-118l-120 -182h62z" />
    <glyph glyph-name="ogonek" 
d="M251 -176v62l-31 -2q-12 0 -21.5 3.5t-18.5 8.5q-13 10 -13 33q0 17 16 37q10 11 21 22.5t39 34.5h-71q-40 -16 -62 -46q-11 -14 -15.5 -30t-4.5 -33q0 -45 33 -72q29 -25 75 -25z" />
    <glyph glyph-name="caron" 
d="M336 689h-67l-95 -103l-93 103h-67l125 -190h71z" />
    <glyph glyph-name="dotlessi" unicode="&#xd;" horiz-adv-x="197" 
d="M135 -13v475h-73v-475h73z" />
    <glyph glyph-name="fraction" horiz-adv-x="142" 
d="M378 704h-71l-543 -744h70z" />
    <glyph glyph-name="fi" horiz-adv-x="503" 
d="M448 -13v475h-73v-475h73zM449 553q-9 89 -55 119q-46 32 -113 32q-78 0 -127 -51q-24 -26 -35 -61t-11 -79v-52h-83v-64h83v-410h73v411h94v64h-94v51q0 65 26 96q25 30 72 30t69 -19q11 -8 18 -23.5t10 -44.5h48z" />
    <glyph glyph-name="Lslash" horiz-adv-x="492" 
d="M504 -13v70h-337v239l167 136v84l-167 -136v315h-78v-378l-121 -99v-84l121 99v-246h415z" />
    <glyph glyph-name="lslash" horiz-adv-x="197" 
d="M234 405v81l-100 -83v292h-73v-353l-97 -81v-81l97 81v-274h73v335z" />
    <glyph glyph-name="Zcaron" horiz-adv-x="667" 
d="M499 922h-67l-95 -103l-93 103h-67l125 -190h71zM644 -13v70h-501l499 603l-9 35h-593v-70h474l-499 -607l10 -31h619z" />
    <glyph glyph-name="zcaron" horiz-adv-x="416" 
d="M372 689h-67l-95 -103l-93 103h-67l125 -190h71zM409 431l-8 31h-377v-70h268l-286 -375l10 -30h392v70h-283z" />
    <glyph glyph-name="space" unicode=" " horiz-adv-x="292" 
 />
    <glyph glyph-name="exclam" unicode="!" horiz-adv-x="186" 
d="M138 695h-91l18 -516h55zM138 -13v123h-90v-123h90z" />
    <glyph glyph-name="quotedbl" unicode="&#x22;" horiz-adv-x="292" 
d="M260 640l-37 57h-54v-127l13 -133h65l10 103zM123 640l-37 57h-54v-127l13 -133h65l10 103z" />
    <glyph glyph-name="numbersign" unicode="#" horiz-adv-x="693" 
d="M612 198v71h-128l34 166h94v71h-79l42 205h-73l-42 -206h-162l42 206h-73l-42 -206h-144v-71h129l-34 -166h-95v-71h80l-43 -210h73l43 211h162l-43 -211h73l43 211h143zM445 435l-34 -167h-162l34 167h162z" />
    <glyph glyph-name="dollar" unicode="$" horiz-adv-x="547" 
d="M503 165q0 83 -52 126q-50 44 -169 80q-43 14 -73.5 27.5t-50.5 26.5q-34 24 -34 69t41 76q44 33 104 33q32 0 58 -5.5t49 -16.5t45 -24.5t52 -37.5v87q-19 15 -39 26t-45 22q-35 14 -79 18l1 82h-73l-1 -82q-71 -9 -124 -52q-66 -56 -66 -132q0 -79 50 -120
q48 -38 149 -67q95 -29 139 -58q42 -29 42 -79q0 -47 -43 -81q-43 -35 -107 -35q-43 0 -101 23q-29 11 -59.5 29t-74.5 51v-85q20 -20 45 -35t54 -28q45 -20 97 -24v-109h73v109q70 9 124 52q68 56 68 134z" />
    <glyph glyph-name="percent" unicode="%" horiz-adv-x="733" 
d="M371 531q0 71 -51 122t-123 51q-69 0 -122 -51q-51 -50 -51 -122q0 -71 50 -123q53 -51 123 -51q71 0 123 52q51 51 51 122zM689 700h-83l-569 -724h82zM710 147q0 70 -52 122q-51 51 -123 51q-69 0 -122 -51q-51 -50 -51 -122q0 -69 52 -121q51 -51 121 -51q71 0 124 51
q26 25 38.5 55.5t12.5 65.5zM303 529q0 -41 -32 -73q-30 -31 -73 -31t-75 32q-31 31 -31 75q0 42 31 73t76 31q43 0 73 -32q31 -30 31 -75zM642 145q0 -42 -31 -72q-32 -30 -75 -30t-75 32q-31 31 -31 73t32 73q33 31 75 31q44 0 74 -32q31 -31 31 -75z" />
    <glyph glyph-name="ampersand" unicode="&#x26;" horiz-adv-x="646" 
d="M640 -13l-154 162q11 16 22 33.5t21 37.5q14 29 27 59.5t27 73.5h-82q-12 -35 -23 -61t-22 -46q-5 -10 -11 -20t-13 -21l-132 139q49 26 86 63q50 52 50 122q0 71 -51 113q-25 20 -53 30t-61 10q-67 0 -119 -47q-52 -46 -52 -112q0 -46 23 -87q10 -17 20.5 -32t24.5 -30
l9 -9q-64 -28 -108 -77q-53 -59 -53 -134q0 -70 48 -122q48 -54 142 -54q81 0 146 37q47 28 88 75l99 -103h101zM362 524q0 -40 -34 -74q-25 -27 -80 -51q-1 1 -4.5 4t-4.5 5q-13 13 -24 26.5t-20 28.5q-19 32 -19 61q0 39 28 60q33 24 68 24q36 0 64 -25q26 -21 26 -59z
M388 144q-19 -22 -37.5 -38.5t-37.5 -27.5q-44 -26 -98 -26q-53 0 -86 28q-31 28 -31 83q0 52 38 87t94 60z" />
    <glyph glyph-name="quotesingle" unicode="'" horiz-adv-x="233" 
d="M162 640l-37 57h-54v-127l13 -133h65l10 103z" />
    <glyph glyph-name="parenleft" unicode="(" 
d="M338 -233q-57 49 -93 97t-65 107q-57 115 -57 260q0 142 58 260q29 59 65 107t92 97h-89q-75 -69 -138 -186q-64 -118 -64 -278t65 -279q32 -59 65.5 -104.5t71.5 -80.5h89z" />
    <glyph glyph-name="parenright" unicode=")" 
d="M303 231q0 161 -64 279q-32 59 -66.5 104.5t-73.5 80.5h-89q57 -49 93.5 -97.5t65.5 -106.5q58 -115 58 -260t-58 -260q-14 -29 -30 -55.5t-35 -51.5t-42.5 -49t-51.5 -48h89q39 35 73.5 81t66.5 105q64 118 64 278z" />
    <glyph glyph-name="asterisk" unicode="*" horiz-adv-x="492" 
d="M452 415q-25 10 -42 17.5t-33 15.5l-34 17t-44 23q26 13 44 22.5t34 17.5t33 15.5t42 17.5l-39 70q-16 -13 -27.5 -22t-22 -16t-20 -13.5t-21.5 -13.5q-19 -11 -50 -31q1 29 2 49t2.5 38t3.5 36.5t5 45.5h-78q3 -26 5 -44.5t3 -36.5t2 -38.5t3 -49.5q-31 20 -50 31
q-12 7 -21.5 13.5t-20 13.5t-22 16t-27.5 22l-39 -70q24 -10 41 -17.5t33 -15.5t34.5 -17.5t44.5 -22.5q-26 -14 -44 -23l-34 -17t-33 -15.5t-42 -17.5l39 -70q16 13 27.5 22t22 16t20 13t21.5 14q19 11 50 31q-2 -29 -2.5 -49t-2 -38t-3.5 -36.5t-5 -45.5h78q-3 26 -5 44.5
t-3 36.5t-2.5 38.5t-2.5 49.5q31 -20 50 -31q12 -8 21.5 -14t20 -13t22 -16t27.5 -22z" />
    <glyph glyph-name="plus" unicode="+" horiz-adv-x="693" 
d="M621 319v69h-240v237h-69v-238h-240v-69h240v-240h69v241h240z" />
    <glyph glyph-name="comma" unicode="," horiz-adv-x="186" 
d="M140 17v93h-90v-123h21q-2 -23 -6 -36q-1 -3 -5 -7.5t-7 -6.5q-2 -3 -5.5 -6.5t-7.5 -8.5v-64q21 15 29.5 21.5t14.5 11.5q11 10 21 20.5t16 24.5q19 38 19 81z" />
    <glyph glyph-name="hyphen" unicode="-" horiz-adv-x="329" 
d="M295 240v62h-262v-62h262z" />
    <glyph glyph-name="period" unicode="." horiz-adv-x="186" 
d="M137 -13v124h-89v-124h89z" />
    <glyph glyph-name="slash" unicode="/" horiz-adv-x="295" 
d="M296 704h-73l-228 -726h73z" />
    <glyph glyph-name="zero" unicode="0" horiz-adv-x="525" 
d="M494 338v6q0 154 -61 256q-62 104 -170 104t-170 -104q-61 -100 -61 -256v-6q0 -156 61 -256q60 -104 169 -104q108 0 171 104q61 100 61 256zM417 337q0 -123 -46 -207q-22 -42 -49 -60.5t-59 -18.5q-66 0 -110 79q-44 83 -44 207v8q0 124 45 207q23 42 49.5 60.5
t58.5 18.5t60 -19t50 -60t33.5 -92.5t11.5 -114.5v-8z" />
    <glyph glyph-name="one" unicode="1" horiz-adv-x="352" 
d="M295 -13v708h-77v-60l-191 -190l53 -54l138 139v-543h77z" />
    <glyph glyph-name="two" unicode="2" horiz-adv-x="525" 
d="M491 -13v73h-302q34 39 66 78q19 25 37 51t37 52q14 20 30.5 48t33.5 64q33 72 33 140q0 89 -61 150q-63 61 -152 61q-60 0 -103 -24q-20 -11 -37 -21.5t-32 -24.5v-95q32 31 51.5 46t37.5 26q35 20 79 20q61 0 100 -40q40 -39 40 -99q0 -28 -5.5 -55t-18.5 -55
q-12 -28 -27 -56.5t-35 -56.5q-25 -37 -50 -69t-50 -59q-24 -26 -51.5 -56.5t-62.5 -65.5v-32h442z" />
    <glyph glyph-name="three" unicode="3" horiz-adv-x="525" 
d="M455 192q0 64 -38 113q-29 36 -78 57q51 21 77 58q31 46 31 97q0 83 -61 135q-58 52 -150 52q-60 0 -103 -19q-19 -8 -33 -15.5t-25 -16.5v-78q20 14 34.5 22t33.5 17q36 17 86 17q62 0 103 -35q39 -35 39 -82q0 -50 -43 -84q-46 -35 -107 -35h-18v-73h22
q38 0 66.5 -10.5t48.5 -28.5q39 -36 39 -99q0 -58 -41 -96q-42 -37 -107 -37q-48 0 -86 11q-19 5 -35.5 12t-40.5 18v-74q16 -9 33 -15t39 -12q23 -6 46.5 -9.5t48.5 -3.5q96 0 158 59q61 58 61 155z" />
    <glyph glyph-name="four" unicode="4" horiz-adv-x="525" 
d="M500 251v66h-94v387h-39l-349 -419v-35h312v-263h76v264h94zM330 317h-202l202 243v-243z" />
    <glyph glyph-name="five" unicode="5" horiz-adv-x="525" 
d="M459 212q0 102 -65 163q-33 31 -75 47t-96 13l-45 -2v190h242v72h-315v-348q22 7 34 10t23 5t22 2.5t23 0.5q83 0 130 -41q47 -42 47 -114q0 -69 -45 -114t-112 -45q-47 0 -93 20q-23 11 -41.5 21t-43.5 27v-90q16 -9 34 -17.5t41 -16.5q48 -17 106 -17q100 0 165 66
q64 65 64 168z" />
    <glyph glyph-name="six" unicode="6" horiz-adv-x="525" 
d="M481 176q0 92 -57 149q-59 57 -149 57q-38 0 -71 -13q-32 -11 -57 -27q16 63 53 116q36 53 84.5 100.5t115.5 94.5l-46 55q-63 -45 -114 -95t-95 -110q-90 -122 -90 -270q0 -122 64 -189q63 -66 156 -66q86 0 146 57q60 55 60 141zM405 174q0 -54 -38 -88
q-38 -35 -95 -35q-58 0 -101 46q-42 45 -42 129v13t1 11q16 16 48 35q39 24 93 24q58 0 97 -39q37 -37 37 -96z" />
    <glyph glyph-name="seven" unicode="7" horiz-adv-x="525" 
d="M502 695h-477v-73h365l-279 -618l66 -29z" />
    <glyph glyph-name="eight" unicode="8" horiz-adv-x="525" 
d="M470 187q0 60 -31 108q-26 38 -61 60q20 17 34.5 34.5t24.5 36.5q19 38 19 84q0 77 -56 136q-56 58 -133 58q-82 0 -141 -57q-56 -58 -56 -140q0 -44 21 -86q18 -34 59 -66q-40 -25 -64 -62q-16 -23 -23 -50t-7 -58q0 -86 60 -147q62 -60 146 -60q88 0 148 60t60 149z
M380 507q0 -50 -35 -83q-33 -35 -82 -35q-48 0 -83 35q-34 33 -34 80q0 57 32 91q33 35 85 35q51 0 84 -35q33 -33 33 -88zM394 185q0 -57 -38 -95q-36 -39 -92 -39t-95 39q-37 37 -37 94q0 58 37 95q38 38 95 38q54 0 92 -39q38 -38 38 -93z" />
    <glyph glyph-name="nine" unicode="9" horiz-adv-x="525" 
d="M468 444q0 127 -63 194q-64 66 -161 66q-88 0 -146 -58q-58 -57 -58 -146q0 -85 59 -141q58 -57 145 -57q26 0 50.5 4.5t47.5 17.5q9 2 18 7.5t15 10.5q-18 -71 -58 -125q-38 -51 -85.5 -96t-112.5 -90l43 -57q88 63 146 121.5t93 117.5q67 113 67 231zM390 450v-16
q-17 -17 -51 -36q-41 -23 -93 -23q-54 0 -92 38q-38 36 -38 87q0 57 38 93q36 38 92 38q67 0 105 -43q19 -21 29 -55t10 -83z" />
    <glyph glyph-name="colon" unicode=":" horiz-adv-x="186" 
d="M137 340v123h-89v-124zM137 -13v124h-89v-124h89z" />
    <glyph glyph-name="semicolon" unicode=";" horiz-adv-x="186" 
d="M139 340v123h-89v-124zM140 17v93h-90v-123h21q-2 -23 -6 -36q-1 -3 -5 -7.5t-7 -6.5q-2 -3 -5.5 -6.5t-7.5 -8.5v-64q21 15 29.5 21.5t14.5 11.5q11 10 21 20.5t16 24.5q19 38 19 81z" />
    <glyph glyph-name="less" unicode="&#x3c;" horiz-adv-x="693" 
d="M621 91v76l-444 184l444 184v76l-549 -231v-58z" />
    <glyph glyph-name="equal" unicode="=" horiz-adv-x="693" 
d="M621 438v69h-549v-70zM621 195v70h-549v-70h549z" />
    <glyph glyph-name="greater" unicode="&#x3e;" horiz-adv-x="693" 
d="M621 322v58l-549 231v-76l443 -184l-443 -184v-76z" />
    <glyph glyph-name="question" unicode="?" horiz-adv-x="295" 
d="M265 550q0 30 -8 57t-25 50q-35 48 -105 48q-24 0 -46 -8q-5 -2 -20 -9.5t-25.5 -12.5t-12.5 -6l27 -67q5 3 15.5 9t22 11.5t22 10t16.5 4.5q27 0 45 -24q18 -23 18 -58q0 -42 -18 -81q-10 -20 -23.5 -43.5t-30.5 -50.5q-13 -21 -21.5 -38t-13.5 -31q-9 -27 -9 -59
q0 -26 15 -54q6 -12 14 -23.5t22 -27.5l34 30q-10 18 -14 28l-6 15q-1 5 -1.5 10t-0.5 10q0 20 7 40q6 20 28 52q25 35 43 64t29 50q22 44 22 104zM174 -13v123h-90v-123h90z" />
    <glyph glyph-name="at" unicode="@" horiz-adv-x="840" 
d="M740 97h-58q-17 -25 -41.5 -45t-59.5 -38q-70 -35 -157 -35q-105 0 -192 81q-85 79 -85 205q0 122 82 205q82 84 196 84q111 0 186 -80q29 -32 45 -69t16 -81q0 -88 -49 -150q-23 -29 -44 -44.5t-44 -17.5q-1 5 -2 9.5t-1 10.5q-1 2 -0.5 7.5t0.5 8.5q0 2 1.5 10.5
t2.5 12.5l60 283h-66l-9 -45q-18 26 -40 39q-36 21 -67 21q-94 0 -150 -77q-55 -78 -55 -161q0 -81 43 -127q43 -45 99 -45q36 0 70 20q14 8 25.5 18t22.5 21q7 -32 16 -42q8 -8 16 -13.5t18 -5.5q38 0 72 21t66 59q64 77 64 185q0 114 -84 198t-214 84q-137 0 -232 -101
t-95 -234q0 -137 93 -237q93 -103 241 -103q103 0 189 51q42 23 71 50.5t50 66.5zM498 312q0 -48 -41 -125q-38 -73 -97 -73q-29 0 -57 29q-27 27 -27 85q0 34 9.5 66.5t29.5 62.5q39 60 95 60q39 0 63 -30q25 -31 25 -75z" />
    <glyph glyph-name="A" unicode="A" horiz-adv-x="700" 
d="M698 -13l-325 713h-45l-327 -713h83l108 237h317l108 -237h81zM477 293h-254l127 278z" />
    <glyph glyph-name="B" unicode="B" horiz-adv-x="558" 
d="M520 185q0 76 -49 124q-36 34 -92 50q42 27 62 65q20 37 20 80q0 90 -64 142q-62 49 -170 49h-160v-708h211q111 0 176 52q66 52 66 146zM379 499q0 -59 -42 -90q-43 -31 -125 -31h-67v248h64q86 0 129 -32q41 -30 41 -95zM439 180q0 -59 -44 -91q-47 -33 -127 -33h-123
v254h106q48 0 83 -8.5t59 -24.5q46 -31 46 -97z" />
    <glyph glyph-name="C" unicode="C" horiz-adv-x="711" 
d="M678 49v83q-36 -20 -65 -33.5t-60 -24.5q-59 -22 -131 -22q-129 0 -212 81q-81 79 -81 208q0 123 83 206q42 41 93 62t114 21q65 0 122 -19q31 -10 61 -22.5t68 -35.5v89q-31 16 -60.5 27t-62.5 19q-63 16 -119 16q-164 0 -272 -104q-109 -103 -109 -259q0 -159 109 -261
q108 -102 275 -102q58 0 126 20q32 10 62 22t59 29z" />
    <glyph glyph-name="D" unicode="D" horiz-adv-x="777" 
d="M713 340q0 164 -103 260q-103 95 -277 95h-255v-708h263q174 0 273 99t99 254zM631 340q0 -129 -83 -206q-84 -78 -222 -78h-170v570h173q138 0 220 -79t82 -207z" />
    <glyph glyph-name="E" unicode="E" horiz-adv-x="515" 
d="M472 -13v70h-327v252h311v69h-311v248h320v69h-398v-708h405z" />
    <glyph glyph-name="F" unicode="F" horiz-adv-x="460" 
d="M437 626v69h-378v-708h78v336h269v69h-269v234h300z" />
    <glyph glyph-name="G" unicode="G" horiz-adv-x="755" 
d="M694 41v282h-221v-70h144v-163q-11 -7 -28 -13t-39 -12q-45 -13 -102 -13q-71 0 -126.5 20.5t-98.5 59.5q-84 78 -84 210q0 125 83 206q85 82 209 82q30 0 60 -5t60 -14t60 -22.5t71 -37.5v89q-20 12 -45 21.5t-59 20.5t-70.5 16.5t-76.5 5.5q-158 0 -267 -104
q-107 -104 -107 -257q0 -156 110 -261q110 -104 274 -104q35 0 69 5t66 13t60.5 19t57.5 26z" />
    <glyph glyph-name="H" unicode="H" horiz-adv-x="755" 
d="M670 -13v708h-78v-316h-429v316h-78v-708h78v324h429v-324h78z" />
    <glyph glyph-name="I" unicode="I" horiz-adv-x="218" 
d="M148 -13v708h-77v-708h77z" />
    <glyph glyph-name="J" unicode="J" horiz-adv-x="218" 
d="M149 -7v702h-78v-691q0 -36 -6 -63t-17 -46q-20 -33 -60 -33l-47 5l8 -76l44 -2q35 -2 63 12t50 39q23 26 33 64.5t10 88.5z" />
    <glyph glyph-name="K" unicode="K" horiz-adv-x="566" 
d="M579 -13l-370 355l337 353h-101l-309 -322v322h-78v-708h78v326l339 -326h104z" />
    <glyph glyph-name="L" unicode="L" horiz-adv-x="492" 
d="M473 -13v70h-337v638h-78v-708h415z" />
    <glyph glyph-name="M" unicode="M" horiz-adv-x="820" 
d="M735 -13v708h-72l-253 -310l-254 310h-71v-708h78v585l247 -306l247 306v-585h78z" />
    <glyph glyph-name="N" unicode="N" horiz-adv-x="810" 
d="M726 -13v708h-78v-577q-60 71 -119 139t-119 134q-66 73 -130 148t-132 156h-63v-708h78v576l499 -576h64z" />
    <glyph glyph-name="O" unicode="O" horiz-adv-x="864" 
d="M806 341q0 155 -108 259q-107 104 -266 104q-158 0 -266 -105q-107 -103 -107 -258q0 -77 27 -142t81 -117q107 -104 265 -104t266 105q108 103 108 258zM724 341q0 -118 -86 -204q-84 -85 -206 -85t-207 85q-84 84 -84 204q0 119 85 204t206 85q122 0 206 -85
q86 -86 86 -204z" />
    <glyph glyph-name="P" unicode="P" horiz-adv-x="536" 
d="M499 500q0 95 -61 146q-61 49 -168 49h-206v-708h78v320h123q109 0 171 49q63 51 63 144zM418 501q0 -62 -40 -93q-41 -33 -117 -33h-119v251h125q71 0 112 -35q39 -32 39 -90z" />
    <glyph glyph-name="Q" unicode="Q" horiz-adv-x="864" 
d="M806 341q0 154 -108 259q-107 104 -266 104q-158 0 -266 -105q-107 -103 -107 -258t107 -259q87 -86 223 -101q80 -71 174 -103q49 -17 86 -25.5t69 -8.5l-6 78q-4 1 -20 2.5t-37 5t-42.5 8t-37.5 11.5q-20 8 -37.5 17t-34.5 20q114 18 195 96q54 52 81 117t27 142z
M724 341q0 -118 -86 -204q-84 -85 -206 -85t-207 85q-84 84 -84 204q0 119 85 204t206 85q122 0 206 -85q86 -86 86 -204z" />
    <glyph glyph-name="R" unicode="R" horiz-adv-x="602" 
d="M618 -13l-141 216l-28 42t-30 43q-12 17 -23 29t-22 20q41 16 76 52q42 45 42 115q0 93 -65 143q-32 25 -76 36.5t-100 11.5h-185v-708h78v328h92q33 0 56.5 -10t39.5 -27q18 -20 35 -44.5t35 -53.5l124 -193h92zM410 505q0 -60 -42 -90q-43 -32 -123 -32h-101v243h106
q75 0 119 -33q41 -29 41 -88z" />
    <glyph glyph-name="S" unicode="S" horiz-adv-x="492" 
d="M450 173q0 84 -41 129q-20 23 -57 43.5t-89 39.5q-76 28 -108 55q-29 26 -29 75q0 46 38 81q19 17 41.5 25.5t51.5 8.5q46 0 84 -18q20 -10 38.5 -19.5t44.5 -24.5l-2 87q-20 14 -64 31q-47 18 -107 18q-85 0 -146 -57q-61 -56 -61 -134q0 -79 43 -122q20 -20 52 -38.5
t75 -32.5q80 -28 120 -60q35 -29 35 -84q0 -53 -38 -88q-39 -36 -95 -36q-35 0 -74 17q-20 9 -44.5 24t-64.5 45v-93q15 -12 34.5 -22t44.5 -21q51 -24 113 -24q83 0 144 58q61 57 61 137z" />
    <glyph glyph-name="T" unicode="T" horiz-adv-x="602" 
d="M596 626v69h-590v-70h256v-638h78v639h256z" />
    <glyph glyph-name="U" unicode="U" horiz-adv-x="733" 
d="M665 296v399h-78v-395q0 -58 -15.5 -102.5t-44.5 -78.5q-59 -67 -159 -67q-102 0 -162 65q-59 65 -59 178v400h-78v-404q0 -139 83 -226q84 -87 215 -87q133 0 215 91q83 89 83 227z" />
    <glyph glyph-name="V" unicode="V" horiz-adv-x="624" 
d="M626 695h-82l-232 -558l-233 558h-80l297 -715h32z" />
    <glyph glyph-name="W" unicode="W" horiz-adv-x="1083" 
d="M1075 695h-79l-218 -545l-220 545h-32l-221 -545l-217 545h-81l284 -715h31l220 555l221 -555h30z" />
    <glyph glyph-name="X" unicode="X" horiz-adv-x="742" 
d="M744 -13l-322 362l304 346h-102l-253 -288l-254 288h-102l304 -346l-320 -362h102l270 306l270 -306h103z" />
    <glyph glyph-name="Y" unicode="Y" horiz-adv-x="639" 
d="M639 695h-96l-221 -264l-223 264h-96l279 -334v-374h78v374z" />
    <glyph glyph-name="Z" unicode="Z" horiz-adv-x="667" 
d="M644 -13v70h-501l499 603l-9 35h-593v-70h474l-499 -607l10 -31h619z" />
    <glyph glyph-name="bracketleft" unicode="[" horiz-adv-x="317" 
d="M300 -233v73h-178v783h178v72h-251v-928h251z" />
    <glyph glyph-name="backslash" unicode="\" horiz-adv-x="295" 
d="M300 -22l-227 726h-72l226 -726h73z" />
    <glyph glyph-name="bracketright" unicode="]" horiz-adv-x="317" 
d="M269 -233v928h-251v-73h178v-783h-178v-72h251z" />
    <glyph glyph-name="asciicircum" unicode="^" horiz-adv-x="693" 
d="M584 429l-229 272h-18l-227 -272l50 -45l186 224l188 -224z" />
    <glyph glyph-name="underscore" unicode="_" horiz-adv-x="525" 
d="M532 -279v75h-538v-75h538z" />
    <glyph glyph-name="grave" unicode="`" 
d="M295 509l-120 181h-118l178 -182z" />
    <glyph glyph-name="a" unicode="a" horiz-adv-x="536" 
d="M478 -15v477h-72v-29q-29 16 -62 27q-31 11 -61 11q-104 0 -173 -74q-66 -72 -66 -185q0 -102 65 -168q64 -66 165 -66q41 0 80 11q13 4 26 10.5t25 11.5v-26h73zM406 87q-11 -6 -23 -14.5t-26 -13.5q-30 -12 -75 -12q-38 0 -66.5 11.5t-51.5 34.5q-44 44 -44 120
q0 81 50 133q48 53 124 53q38 0 71 -14q14 -6 24 -13.5t17 -12.5v-272z" />
    <glyph glyph-name="b" unicode="b" horiz-adv-x="536" 
d="M491 236q0 52 -14.5 95t-44.5 75q-58 65 -156 65q-23 0 -44.5 -5t-43.5 -14q-15 -7 -29.5 -17t-28.5 -24v284h-74l2 -678q22 -11 41.5 -17.5t40.5 -11.5q39 -10 83 -10q124 0 196 72q72 74 72 186zM416 234q0 -79 -54 -131q-53 -53 -132 -53q-39 0 -69 8q-24 6 -31 10
v260q20 23 56 50q39 28 89 28q61 0 100 -48q41 -49 41 -124z" />
    <glyph glyph-name="c" unicode="c" horiz-adv-x="438" 
d="M407 5v78q-21 -9 -35.5 -14t-29.5 -10q-30 -9 -66 -9q-39 0 -68.5 12t-50.5 35q-44 47 -44 127q0 77 44 127q42 48 113 48q35 0 63 -10q14 -5 28.5 -10t37.5 -16v82q-20 7 -35 11.5t-30 7.5q-28 7 -65 7q-105 0 -170 -74q-62 -71 -62 -173q0 -112 63 -179q64 -67 174 -67
q20 0 39 2.5t38 7.5q17 5 29.5 8.5t26.5 8.5z" />
    <glyph glyph-name="d" unicode="d" horiz-adv-x="536" 
d="M480 -13v708h-73v-253q-11 6 -24 10.5t-28 9.5q-30 9 -62 9q-54 0 -99 -17t-79 -52q-69 -69 -69 -178q0 -104 70 -175q69 -71 171 -71q19 0 37.5 2.5t35.5 8.5q11 4 22.5 12.5t24.5 16.5v-31h73zM406 91q-5 -4 -13.5 -11.5t-20.5 -14.5q-14 -7 -32.5 -11t-42.5 -4
q-75 0 -126 51q-49 49 -49 123q0 78 48 126q46 49 121 49q40 0 71 -14l25 -12.5t19 -11.5v-270z" />
    <glyph glyph-name="e" unicode="e" horiz-adv-x="503" 
d="M469 229q0 59 -15 101.5t-44 74.5q-60 66 -153 66q-96 0 -158 -71q-61 -68 -61 -169q0 -109 68 -182q69 -71 175 -71q57 0 106 23q21 9 38.5 20t34.5 24v89q-25 -23 -43 -36t-40 -25q-41 -23 -92 -23q-38 0 -68 13t-55 37q-46 46 -49 111v18h356zM381 288h-257
q5 17 12.5 34t16.5 28q39 49 105 49q29 0 50 -8.5t36 -23.5q14 -14 23 -35t14 -45v1z" />
    <glyph glyph-name="f" unicode="f" horiz-adv-x="252" 
d="M325 610v69q-7 5 -15.5 8t-22.5 8q-13 4 -26.5 6.5t-29.5 2.5q-73 0 -122 -51q-47 -52 -47 -130v-62h-83v-64h83v-410h73v411h87v64h-87v46q0 35 6.5 58t17.5 37q23 29 69 29q26 0 52 -8q11 -4 20.5 -6.5t24.5 -7.5z" />
    <glyph glyph-name="g" unicode="g" horiz-adv-x="536" 
d="M479 -92l-1 1v553h-72v-29q-29 16 -62 27q-31 11 -61 11q-105 0 -173 -74q-66 -70 -66 -185q0 -101 64 -168q66 -66 165 -66q40 0 81 11l26 8t25 9v-108q0 -23 -31.5 -41t-86.5 -18q-43 0 -70 22.5t-45 60.5l-75 -2q15 -45 33 -73.5t42 -48.5t55 -25t60 -5q54 0 90 14.5
t56.5 34.5t30.5 41.5t12.5 35t2.5 14.5zM406 82q-11 -6 -23 -12t-26 -11q-30 -12 -75 -12q-38 0 -66.5 11.5t-51.5 34.5q-44 44 -44 120q0 81 49 133q50 53 124 53q21 0 38.5 -3.5t33.5 -10.5q14 -6 24 -13.5t17 -12.5v-277z" />
    <glyph glyph-name="h" unicode="h" horiz-adv-x="515" 
d="M453 -13v284q0 45 -12 82t-38 64q-51 54 -134 54q-46 0 -85 -22q-26 -15 -49 -47v293h-73v-708h73v326q11 17 24 32t29 28q31 26 81 26q54 0 82 -37q14 -17 21.5 -44t7.5 -62v-269h73z" />
    <glyph glyph-name="i" unicode="i" horiz-adv-x="197" 
d="M135 588v107h-73v-108zM135 -13v475h-73v-475h73z" />
    <glyph glyph-name="j" unicode="j" horiz-adv-x="197" 
d="M136 588v107h-73v-108zM136 -32v494h-73v-509q0 -78 -21 -103q-21 -27 -58 -27h-21l21 -66q33 0 58.5 12t48.5 34q23 23 34 64.5t11 100.5z" />
    <glyph glyph-name="k" unicode="k" horiz-adv-x="486" 
d="M519 -13l-299 249l260 226h-101l-262 -226l298 -249h104zM141 -13v249v459h-73v-708h73z" />
    <glyph glyph-name="l" unicode="l" horiz-adv-x="197" 
d="M135 -13v708h-73v-708h73z" />
    <glyph glyph-name="m" unicode="m" horiz-adv-x="810" 
d="M741 -13v284q0 86 -42 143q-45 57 -115 57h-12q-63 0 -105 -39q-14 -14 -26.5 -28t-21.5 -28q-25 49 -57 71q-19 11 -39 17.5t-40 6.5h-12q-46 0 -84 -22q-23 -13 -48 -46v59h-72v-475h73v325q23 37 51 62t74 25q50 0 77 -36q26 -37 26 -107v-269h73v315q22 36 52 66
q30 31 68 31q50 0 79 -37q28 -35 28 -106v-269h73z" />
    <glyph glyph-name="n" unicode="n" horiz-adv-x="515" 
d="M453 -13v284q0 45 -12 82t-38 64q-51 54 -134 54q-47 0 -86 -22q-26 -15 -49 -47v60h-72v-475h73v326q11 17 24 32t29 28q31 26 81 26q54 0 82 -37q14 -17 21.5 -44t7.5 -62v-269h73z" />
    <glyph glyph-name="o" unicode="o" horiz-adv-x="569" 
d="M526 224q0 104 -69 176q-69 71 -172 71q-105 0 -173 -71q-69 -72 -69 -176q0 -102 70 -175q68 -71 172 -71q103 0 173 71q68 73 68 175zM450 224q0 -72 -48 -123q-50 -51 -117 -51q-68 0 -117 52q-49 49 -49 122q0 74 49 124q48 51 117 51q68 0 117 -52q48 -50 48 -123z
" />
    <glyph glyph-name="p" unicode="p" horiz-adv-x="536" 
d="M509 225q0 108 -68 177t-173 69q-14 0 -29 -2.5t-30 -7.5q-17 -5 -31.5 -11t-25.5 -11v23h-74v-705h73v249q13 -6 25.5 -11t25.5 -8q34 -9 76 -9q95 0 163 75q68 73 68 172zM431 224q0 -76 -47 -125q-45 -49 -122 -49q-20 0 -37.5 3.5t-32.5 8.5q-12 5 -22.5 8.5
t-18.5 8.5v287q6 4 15.5 7.5t21.5 8.5q14 5 30.5 11t37.5 6q75 0 125 -51q50 -48 50 -124z" />
    <glyph glyph-name="q" unicode="q" horiz-adv-x="536" 
d="M478 -243v705h-72v-29q-29 16 -62 27q-31 11 -61 11q-104 0 -173 -74q-66 -72 -66 -185q0 -102 65 -168q64 -66 165 -66q41 0 80 11l26 8t25 9v-249h73zM406 82q-11 -6 -23 -12t-26 -11q-30 -12 -75 -12q-38 0 -66.5 11.5t-51.5 34.5q-44 44 -44 120q0 81 50 133
q48 53 124 53q38 0 71 -14q14 -6 24 -13.5t17 -12.5v-277z" />
    <glyph glyph-name="r" unicode="r" horiz-adv-x="371" 
d="M393 405q-15 18 -46 40q-17 12 -34.5 19t-37.5 7q-21 0 -44 -4t-46 -24q-15 -13 -31.5 -33.5t-25.5 -35.5v88h-73v-475h73v293q20 32 58 76q40 43 75 43q16 0 35 -13q11 -6 23.5 -16t32.5 -29z" />
    <glyph glyph-name="s" unicode="s" horiz-adv-x="372" 
d="M342 116q0 61 -42 94q-38 31 -99 52q-23 8 -40 16.5t-30 17.5q-22 16 -22 42q0 24 22 45q11 9 26.5 14t37.5 5q29 0 60 -13q15 -7 31 -16.5t42 -29.5v82q-22 19 -56 32q-37 14 -81 14q-30 0 -56 -10t-49 -28q-48 -38 -48 -96q0 -52 34 -85q16 -16 38.5 -28.5t51.5 -23.5
q72 -26 92 -45q17 -17 17 -38q0 -31 -23 -48q-25 -19 -64 -19q-33 0 -69 13q-18 6 -36 14.5t-44 25.5v-78q13 -8 26.5 -15.5t32.5 -15.5q37 -17 90 -17q67 0 112 41q46 41 46 98z" />
    <glyph glyph-name="t" unicode="t" horiz-adv-x="317" 
d="M322 5v75q-25 -11 -36.5 -16t-21.5 -8q-18 -6 -34 -6q-21 0 -32 4t-15 9q-5 5 -7.5 19.5t-2.5 41.5v274h126v64h-126v149h-32l-41 -28v-122h-121v-64h121v-306q0 -25 7.5 -46t24.5 -37q31 -30 85 -30q14 0 26.5 2t23.5 5t23.5 7.5t31.5 12.5z" />
    <glyph glyph-name="u" unicode="u" horiz-adv-x="515" 
d="M453 -13v475h-73v-324q-15 -29 -52 -58q-36 -30 -82 -30q-53 0 -82 34t-29 98v280h-73v-290q0 -94 50 -144t140 -50q41 0 80 22q25 13 48 44v-57h73z" />
    <glyph glyph-name="v" unicode="v" horiz-adv-x="448" 
d="M457 462h-74l-154 -360l-161 360h-76l215 -484h46z" />
    <glyph glyph-name="w" unicode="w" horiz-adv-x="743" 
d="M744 462h-74l-147 -346l-133 346h-40l-133 -345l-144 345h-74l203 -484h39l130 343l129 -343h40z" />
    <glyph glyph-name="x" unicode="x" horiz-adv-x="539" 
d="M541 462h-97l-170 -181l-171 181h-96l217 -232l-216 -243h95l171 191l170 -191h95l-216 243z" />
    <glyph glyph-name="y" unicode="y" horiz-adv-x="457" 
d="M460 462h-77l-146 -299l-154 299h-80l196 -376l-163 -329h77z" />
    <glyph glyph-name="z" unicode="z" horiz-adv-x="416" 
d="M409 431l-8 31h-377v-70h268l-286 -375l10 -30h392v70h-283z" />
    <glyph glyph-name="braceleft" unicode="{" 
d="M307 -233v80h-29q-26 0 -44 16q-7 6 -11 20.5t-4 40.5v126q0 41 -7 73.5t-22 56.5q-23 35 -55 51q33 18 55 52q29 47 29 129v126q0 26 4.5 40.5t11.5 21.5q16 16 43 16h29v79h-26q-38 0 -67 -12t-46 -38q-30 -46 -30 -113v-145q0 -52 -21 -81q-9 -13 -26 -21t-46 -13v-82
q29 -5 46 -13t26 -21q21 -29 21 -81v-145q0 -67 31 -113q17 -26 45.5 -38t66.5 -12h26z" />
    <glyph glyph-name="bar" unicode="|" horiz-adv-x="233" 
d="M153 -295v1025h-73v-1025h73z" />
    <glyph glyph-name="braceright" unicode="}" 
d="M306 190v82q-30 5 -47 13t-27 21q-20 28 -20 81v145q0 65 -31 113q-34 50 -113 50h-25v-80h28q28 0 44 -16q7 -6 11.5 -20.5t4.5 -40.5v-126q0 -41 7 -73.5t23 -56.5q21 -35 54 -51q-33 -16 -55 -52q-15 -23 -22 -55.5t-7 -73.5v-126q0 -26 -4.5 -40.5t-12.5 -21.5
q-16 -16 -43 -16h-28v-79h25q38 0 67.5 12t46.5 38q14 23 22 52t8 61v145q0 27 5.5 47t15.5 34q10 13 26.5 21t46.5 13z" />
    <glyph glyph-name="asciitilde" unicode="~" horiz-adv-x="693" 
d="M623 416q-31 -21 -50 -33.5t-37 -23.5q-36 -22 -64 -22q-33 0 -117 39q-84 41 -135 41q-27 0 -50.5 -8t-45.5 -22q-20 -13 -32.5 -21.5t-20.5 -14.5v-87q27 23 45 35.5t37 23.5q39 22 68 22q33 0 117 -39q84 -41 135 -41q26 0 49.5 8t45.5 22q20 13 32.5 21.5t20.5 14.5z
" />
    <glyph glyph-name="exclamdown" unicode="&#xa1;" horiz-adv-x="186" 
d="M138 352v122h-90v-123zM138 -234l-18 516h-55l-18 -516h91z" />
    <glyph glyph-name="cent" unicode="&#xa2;" horiz-adv-x="438" 
d="M427 651h-71l-64 -182q-7 1 -15 1h-16q-107 0 -170 -73q-62 -69 -62 -173q0 -55 15.5 -100t47.5 -79q8 -8 17.5 -15.5t21.5 -15.5l-76 -216h71l67 190q27 -10 73 -10q20 0 39 2.5t37 7.5t30.5 8.5t26.5 8.5v78q-22 -9 -36 -14t-29 -10q-30 -9 -66 -9q-16 0 -28.5 2
t-22.5 5l117 329q1 0 1.5 -0.5t1.5 -0.5q23 -7 54 -22v82q-10 3 -18 5.5t-16 4.5zM266 398l-108 -309q-12 10 -19 19q-34 44 -34 116q0 76 43 127q39 43 100 46q5 1 9 1h9z" />
    <glyph glyph-name="sterling" unicode="&#xa3;" horiz-adv-x="580" 
d="M544 617l-38 76l-53 11q-97 0 -163 -81q-32 -39 -52 -78.5t-34 -78.5l-33 -100h-99v-72h83q-10 -20 -38 -126q-18 -67 -28 -102.5t-17 -41.5v-44q27 5 46.5 8.5t38.5 6.5q18 2 39 3.5t44 1.5t49.5 -3t56.5 -8q32 -5 53 -8t32 -3q32 0 62 8q14 4 24.5 8.5l24.5 10.5v82
q-26 -14 -40 -19.5t-25 -9.5q-9 -3 -20 -5t-25 -2q-8 0 -20.5 2t-32.5 5q-8 2 -18 3.5t-21 3.5q-24 4 -46.5 6.5t-42.5 0.5l-85 -5l60 228h123v72h-101l30 84q14 39 33 71.5t43 58.5t52 39t61 11l25 -2z" />
    <glyph glyph-name="currency" unicode="&#xa4;" horiz-adv-x="711" 
d="M695 49v83q-36 -20 -64.5 -33.5t-59.5 -24.5q-60 -22 -131 -22q-131 0 -212 81q-35 33 -54 78h488v65h-510q-2 15 -4 31.5t-2 33.5q0 50 13 90h503v65h-473q8 14 18 26.5t23 24.5q42 41 93 62t114 21q64 0 122 -19q30 -10 60 -22.5t68 -35.5v89q-30 16 -59.5 27t-62.5 19
q-63 16 -119 16q-163 0 -273 -104q-24 -23 -43 -49.5t-32 -55.5h-85v-65h62q-11 -44 -11 -89q0 -17 1.5 -33.5t3.5 -32.5h-56v-65h73q28 -75 87 -130q110 -102 276 -102q57 0 126 20q32 10 61.5 22t58.5 29z" />
    <glyph glyph-name="currency" unicode="&#x20ac;" horiz-adv-x="711" 
d="M695 49v83q-36 -20 -64.5 -33.5t-59.5 -24.5q-60 -22 -131 -22q-131 0 -212 81q-35 33 -54 78h488v65h-510q-2 15 -4 31.5t-2 33.5q0 50 13 90h503v65h-473q8 14 18 26.5t23 24.5q42 41 93 62t114 21q64 0 122 -19q30 -10 60 -22.5t68 -35.5v89q-30 16 -59.5 27t-62.5 19
q-63 16 -119 16q-163 0 -273 -104q-24 -23 -43 -49.5t-32 -55.5h-85v-65h62q-11 -44 -11 -89q0 -17 1.5 -33.5t3.5 -32.5h-56v-65h73q28 -75 87 -130q110 -102 276 -102q57 0 126 20q32 10 61.5 22t58.5 29z" />
    <glyph glyph-name="yen" unicode="&#xa5;" horiz-adv-x="584" 
d="M591 729h-100l-196 -342l-200 342h-101l213 -355h-175v-72h214l2 -16l-26 -35h-190v-72h216v-192h89v193h212v72h-212v47l6 4h206v72h-170z" />
    <glyph glyph-name="brokenbar" unicode="&#xa6;" horiz-adv-x="233" 
d="M153 313v450h-73v-451zM153 -263v451h-73v-451h73z" />
    <glyph glyph-name="section" unicode="&#xa7;" horiz-adv-x="416" 
d="M393 178q0 51 -27 96q-13 22 -31 43.5t-41 41.5l-93 83q-34 31 -53 63q-17 28 -17 56q0 36 26 55q28 20 55 20q25 0 46 -15q9 -7 16 -18.5t12 -34.5h76q-8 44 -22 69t-36 39q-42 28 -87 28q-67 0 -114 -38q-45 -39 -45 -108q0 -37 15 -68q13 -28 31 -51q-35 -33 -57 -72
q-24 -44 -24 -84q0 -50 26 -96q27 -45 73 -85l92 -83q34 -31 53 -63t19 -56q0 -20 -6.5 -32.5t-19.5 -22.5q-27 -20 -57 -20q-25 0 -46 15q-9 7 -15.5 18.5t-11.5 34.5h-76q8 -43 21.5 -68.5t35.5 -39.5q42 -28 88 -28q68 0 114 38q46 39 46 108q0 18 -4 35t-11 33
q-11 26 -32 51q17 17 32.5 36.5t26.5 41.5q22 41 22 78zM318 178q0 -25 -12 -52q-11 -23 -42 -53l-116 106q-8 8 -16 19t-17 25q-17 24 -17 62q0 27 11 52q6 11 16 24.5t26 28.5l117 -106q8 -8 15.5 -19t17.5 -25q17 -26 17 -62z" />
    <glyph glyph-name="dieresis" unicode="&#xa8;" 
d="M290 546v93h-93v-94zM153 545v94h-93v-94h93z" />
    <glyph glyph-name="copyright" unicode="&#xa9;" horiz-adv-x="840" 
d="M805 356q0 157 -113 272q-113 113 -273 113q-157 0 -272 -113q-112 -113 -112 -273q0 -159 112 -272q115 -113 273 -113q159 0 272 113q113 115 113 273zM733 355q0 -128 -93 -221q-90 -92 -221 -92q-128 0 -221 93q-91 90 -91 221q0 129 92 221t221 92t221 -93
q92 -90 92 -221zM601 278l-67 24q-9 -31 -20 -49t-25 -31q-27 -24 -67 -24q-59 0 -90 46q-33 48 -33 119q0 61 34 102q33 41 94 41q37 0 63 -24q12 -11 21 -26.5t17 -33.5l72 19q-16 35 -32.5 57.5t-38.5 39.5q-43 34 -100 34q-93 0 -151 -63q-56 -61 -56 -151
q0 -100 58 -164q59 -65 145 -65q61 0 108 38q23 19 40 45t28 66z" />
    <glyph glyph-name="ordfeminine" unicode="&#xaa;" horiz-adv-x="295" 
d="M292 429v53q-7 -4 -12.5 -7.5t-11.5 -7.5q-15 -10 -23 -13l-3 11v152q0 41 -30 65q-28 22 -76 22q-32 0 -64 -13q-16 -7 -26 -12.5t-17 -12.5v-58q8 6 16.5 12t19.5 12q19 12 35 17l16 4t17 2q27 0 41 -11q5 -4 8.5 -12t3.5 -22v-22q-33 -2 -51 -6q-11 -2 -20.5 -4.5
t-20.5 -5.5q-32 -11 -56 -35q-25 -24 -25 -64q0 -32 28 -57q14 -11 31 -17t37 -6q14 0 26.5 3.5t26.5 8.5q17 8 29 17q3 -15 11 -21q9 -7 17 -7q10 0 20 4t20 9q4 2 7 4l6 4q5 3 9 6t11 8zM186 472q-6 -5 -13.5 -9.5t-15.5 -9.5q-19 -11 -42 -11q-12 0 -20.5 3.5t-15.5 8.5
q-10 7 -10 21q0 20 14 31q19 17 41 23q14 5 25 7t19 3q5 1 9.5 0.5t8.5 -0.5v-67z" />
    <glyph glyph-name="guillemotleft" unicode="&#xab;" horiz-adv-x="525" 
d="M516 -7l-200 238l197 238h-93l-198 -238l200 -238h94zM304 -7l-200 238l197 238h-93l-198 -238l200 -238h94z" />
    <glyph glyph-name="logicalnot" unicode="&#xac;" horiz-adv-x="672" 
d="M455 490q-14 5 -23.5 9.5l-19 9t-21 10.5t-27.5 15q16 8 27.5 14t21 10.5l19 9t23.5 9.5l-19 34q-14 -11 -23 -17t-17 -11q-8 -6 -18.5 -12.5t-25.5 -15.5q1 18 1.5 30.5t1.5 23t1.5 21t2.5 25.5h-37q2 -15 3 -25.5t1.5 -21t0.5 -23.5q0 -12 1 -30q-15 9 -25.5 15.5
t-18.5 12.5q-8 5 -17 11t-23 17l-18 -34q13 -5 23 -9.5t19 -9t20 -10.5t28 -14q-17 -9 -28 -15t-20 -10.5t-19 -9t-23 -9.5l18 -35q14 11 22.5 17t17.5 12q8 5 18.5 11.5t25.5 16.5q-1 -19 -1 -32q0 -12 -0.5 -22.5t-1.5 -20.5t-3 -25h37q-2 15 -2.5 25t-1.5 20.5t-1.5 23
t-1.5 31.5q15 -10 25.5 -16.5t18.5 -11.5q9 -6 17.5 -12t22.5 -17zM645 -44h-303l-2 276l198 243v-475h50v551h-48l-204 -250l-205 250h-49v-551h51v475l197 -241l-26 -25v-275l-138 142l-28 -27l290 -302l29 28l-139 144l290 1z" />
    <glyph glyph-name="registered" unicode="&#xae;" horiz-adv-x="840" 
d="M805 356q0 157 -113 272q-113 113 -273 113q-157 0 -272 -113q-112 -113 -112 -273q0 -159 112 -272q115 -113 273 -113q159 0 272 113q113 115 113 273zM733 355q0 -128 -93 -221q-90 -92 -221 -92q-128 0 -221 93q-91 90 -91 221q0 129 92 221t221 92t221 -93
q92 -90 92 -221zM599 142l-35 81q-8 17 -16 33.5t-19 33.5q-16 24 -45 40q23 5 40 16.5t30 26.5q23 31 23 70q0 51 -36 84q-19 17 -49 25t-71 8h-163v-418h73v173h25q54 0 84 -36q14 -18 32 -51t40 -86h87zM496 440q0 -30 -20 -45q-10 -8 -30.5 -12.5t-55.5 -4.5h-59v118h71
q24 0 42 -4t31 -10q10 -5 15.5 -15t5.5 -27z" />
    <glyph glyph-name="macron" unicode="&#xaf;" 
d="M320 560v76h-291v-77z" />
    <glyph glyph-name="degree" unicode="&#xb0;" horiz-adv-x="420" 
d="M362 552q0 63 -44 107q-47 45 -108 45q-62 0 -107 -45t-45 -108q0 -62 45 -107t108 -45q60 0 107 45q44 44 44 108zM297 551q0 -36 -25 -61q-26 -26 -62 -26q-37 0 -61 26q-26 24 -26 62q0 35 26 61q24 26 62 26q35 0 61 -26q25 -24 25 -62z" />
    <glyph glyph-name="twosuperior" unicode="&#xb2;" horiz-adv-x="329" 
d="M318 320v49h-185l4 4t5 4q12 12 23.5 24t22.5 26q11 11 22.5 25t23.5 32q7 11 14.5 22t13.5 25q14 31 14 57q0 51 -42 84q-41 32 -99 32q-19 0 -36 -3.5t-32 -8.5q-25 -10 -46 -27v-64q25 20 38 29t24 14q23 10 49 10q37 0 62 -20q24 -18 24 -46q0 -27 -15 -54
q-8 -15 -17.5 -29.5t-21.5 -28.5q-16 -20 -32 -36t-31 -30q-16 -14 -34 -29.5t-41 -35.5v-26z" />
    <glyph glyph-name="threesuperior" unicode="&#xb3;" horiz-adv-x="329" 
d="M292 432q0 36 -27 63q-16 16 -41 25q29 11 41 26q21 25 21 55q0 24 -10.5 42.5t-30.5 32.5q-38 28 -98 28q-20 0 -36.5 -2.5t-30.5 -7.5q-11 -5 -21 -9t-20 -10v-52q18 9 28 13t22 9q10 4 23 6.5t30 2.5q38 0 64 -18q13 -9 18 -17.5t5 -19.5q0 -23 -25 -38
q-29 -18 -67 -18h-16v-50h19q46 0 71 -19q23 -17 23 -46q0 -27 -24 -45q-25 -19 -66 -19q-31 0 -55 6q-11 3 -22.5 6.5t-30.5 9.5v-50q12 -5 23.5 -8t25.5 -7q29 -7 62 -7q32 0 57 8t46 24q42 33 42 86z" />
    <glyph glyph-name="acute" unicode="&#xb4;" 
d="M333 690h-117l-121 -182h61z" />
    <glyph glyph-name="mu" unicode="&#xb5;" horiz-adv-x="584" 
d="M485 -13v475h-73v-324q-16 -30 -50 -58q-35 -30 -79 -30q-53 0 -81 34t-28 98v280h-73v-652h73v213q20 -20 49 -32q34 -13 69 -13q37 0 76 22q24 13 44 43v-56h73z" />
    <glyph glyph-name="paragraph" unicode="&#xb6;" horiz-adv-x="683" 
d="M645 623v93h-353q-111 0 -177 -59q-67 -58 -67 -159q0 -99 64 -159q58 -55 156 -58v-505h89v847h104v-847h89v847h95z" />
    <glyph glyph-name="periodcentered" unicode="&#xb7;" horiz-adv-x="295" 
d="M166 285v123h-89v-124z" />
    <glyph glyph-name="periodcentered" unicode="&#x2219;" horiz-adv-x="295" 
d="M166 285v123h-89v-124z" />
    <glyph glyph-name="cedilla" unicode="&#xb8;" 
d="M265 -101q0 31 -22 55q-8 9 -17 14t-20 7l12 46h-55l-29 -96q27 0 38.5 -1.5t17.5 -6.5q11 -6 11 -19q0 -12 -11 -18q-7 -4 -17 -6.5t-24 -1.5l-45 3l-8 -56l58 -7q47 0 79 24q32 26 32 63z" />
    <glyph glyph-name="onesuperior" unicode="&#xb9;" horiz-adv-x="329" 
d="M194 320l-1 380h-58l1 -381z" />
    <glyph glyph-name="ordmasculine" unicode="&#xba;" horiz-adv-x="372" 
d="M349 549q0 68 -47 111q-47 44 -116 44q-67 0 -117 -45q-47 -44 -47 -110q0 -67 47 -111t117 -44q68 0 116 45q47 43 47 110zM290 549q0 -43 -30 -72q-30 -30 -74 -30t-75 31q-31 30 -31 71q0 42 32 72q30 30 74 30q43 0 74 -31q30 -30 30 -71z" />
    <glyph glyph-name="guillemotright" unicode="&#xbb;" horiz-adv-x="525" 
d="M515 231l-198 238h-93l197 -238l-200 -238h94zM303 231l-198 238h-93l197 -238l-200 -238h94z" />
    <glyph glyph-name="onequarter" unicode="&#xbc;" horiz-adv-x="875" 
d="M751 125v46h-60v201h-30l-227 -221v-27h200v-137h57v138h60zM698 704h-71l-543 -744h70zM238 320l-1 380h-58l1 -381zM634 170h-112l112 109v-109z" />
    <glyph glyph-name="onehalf" unicode="&#xbd;" horiz-adv-x="875" 
d="M792 -13v50h-185q1 1 4.5 4t4.5 4q12 12 23.5 24t22.5 26q11 11 23 25t23 32q7 11 14.5 22t13.5 25q14 31 14 57q0 51 -42 84q-41 32 -99 32q-19 0 -36 -3.5t-32 -8.5q-25 -10 -46 -27v-64q25 20 38 29t24 14q23 10 49 10q37 0 62 -20q24 -18 24 -46q0 -27 -15 -54
q-8 -15 -17.5 -29.5t-20.5 -28.5q-17 -20 -33 -36t-31 -30q-16 -14 -34 -29.5t-41 -35.5v-26h292zM685 704h-71l-543 -744h69zM225 320l-1 380h-58l1 -381z" />
    <glyph glyph-name="threequarters" unicode="&#xbe;" horiz-adv-x="875" 
d="M789 125v46h-60v201h-31l-226 -221v-27h200v-137h57v138h60zM730 704h-71l-543 -744h70zM329 432q0 36 -27 63q-16 16 -41 25q29 11 41 26q21 25 21 55q0 24 -10.5 42.5t-30.5 32.5q-38 28 -98 28q-20 0 -36.5 -2.5t-30.5 -7.5q-11 -5 -21 -9t-20 -10v-52q18 9 28 13
t22 9q10 4 23 6.5t30 2.5q38 0 64 -18q13 -9 18 -17.5t5 -19.5q0 -23 -25 -38q-29 -18 -67 -18h-16v-50h19q46 0 71 -19q23 -17 23 -46q0 -27 -24 -45q-25 -19 -66 -19q-31 0 -55 6q-11 3 -22.5 6.5t-30.5 9.5v-50q12 -5 23.5 -8t25.5 -7q29 -7 62 -7q32 0 57 8t46 24
q42 33 42 86zM672 170h-112l112 109v-109z" />
    <glyph glyph-name="questiondown" unicode="&#xbf;" horiz-adv-x="295" 
d="M204 363v122h-90v-123zM265 -197l-26 67q-6 -3 -16.5 -9t-21.5 -11.5t-21.5 -10t-16.5 -4.5q-28 0 -46 24q-18 22 -18 58q0 40 19 81q10 20 23 43.5t30 50.5q13 21 21.5 38t13.5 31q9 27 9 59q0 24 -14 54q-7 12 -14.5 23.5t-21.5 27.5l-34 -30q9 -18 13 -28l6 -15
q1 -5 1.5 -10t0.5 -10q0 -19 -6 -40q-4 -10 -11 -22.5t-18 -29.5q-24 -35 -42.5 -64t-29.5 -50q-22 -44 -22 -104q0 -30 8 -57t26 -50q17 -25 43.5 -36.5t61.5 -11.5q23 0 45 8q5 2 20 9.5t25.5 12.5t12.5 6z" />
    <glyph glyph-name="Agrave" unicode="&#xc0;" horiz-adv-x="700" 
d="M428 737l-121 181h-117l177 -181h61zM698 -13l-325 713h-45l-327 -713h83l108 237h317l108 -237h81zM477 293h-254l127 278z" />
    <glyph glyph-name="Aacute" unicode="&#xc1;" horiz-adv-x="700" 
d="M552 918h-118l-120 -182h60zM698 -13l-325 713h-45l-327 -713h83l108 237h317l108 -237h81zM477 293h-254l127 278z" />
    <glyph glyph-name="Acircumflex" unicode="&#xc2;" horiz-adv-x="700" 
d="M511 718l-125 189h-72l-124 -190h66l94 103l94 -103zM698 -13l-325 713h-45l-327 -713h83l108 237h317l108 -237h81zM477 293h-254l127 278z" />
    <glyph glyph-name="Atilde" unicode="&#xc3;" horiz-adv-x="700" 
d="M525 873h-54q-3 -21 -6.5 -29.5t-7.5 -11.5q-9 -8 -17 -8q-19 0 -77 24q-60 26 -94 26q-23 0 -41.5 -8t-30.5 -26q-11 -16 -17 -36t-6 -51h56q2 22 5.5 30t7.5 11q10 8 18 8q17 0 76 -24q58 -26 94 -26q48 0 72 34q11 16 16.5 36t5.5 51zM698 -13l-325 713h-45l-327 -713
h83l108 237h317l108 -237h81zM477 293h-254l127 278z" />
    <glyph glyph-name="Adieresis" unicode="&#xc4;" horiz-adv-x="700" 
d="M466 764v93h-93v-94zM329 763v94h-93v-94h93zM698 -13l-325 713h-45l-327 -713h83l108 237h317l108 -237h81zM477 293h-254l127 278z" />
    <glyph glyph-name="AE" unicode="&#xc6;" horiz-adv-x="908" 
d="M877 -13v70h-327v252l311 1v68h-311v248h320v69h-425l-441 -708h86l201 323h181v-323h405zM472 379h-136l136 221v-221z" />
    <glyph glyph-name="Ccedilla" unicode="&#xc7;" horiz-adv-x="711" 
d="M678 49v83q-36 -20 -65 -33.5t-60 -24.5q-59 -22 -131 -22q-129 0 -212 81q-81 79 -81 208q0 123 83 206q42 41 93 62t114 21q65 0 122 -19q31 -10 61 -22.5t68 -35.5v89q-31 16 -60.5 27t-62.5 19q-63 16 -119 16q-164 0 -272 -104q-109 -103 -109 -259q0 -159 109 -261
q82 -77 197 -95l-18 -60q27 0 38.5 -1.5t17.5 -6.5q11 -6 11 -19q0 -12 -11 -18q-7 -4 -17 -6.5t-24 -1.5l-44 3l-9 -56l58 -7q47 0 79 24q32 26 32 63q0 22 -13 42q-11 17 -32 25q6 0 14 7.5t15 8.5q11 1 22.5 3t23.5 4q23 3 46.5 8t47.5 13t46 17.5t42 21.5z" />
    <glyph glyph-name="Egrave" unicode="&#xc8;" horiz-adv-x="515" 
d="M376 732l-121 181h-117l178 -182zM472 -13v70h-327v252l311 1v68h-311v248h320v69h-398v-708h405z" />
    <glyph glyph-name="Eacute" unicode="&#xc9;" horiz-adv-x="515" 
d="M458 908h-118l-120 -182h60zM471 -13v70h-327v252l311 1v68h-311v248h320v69h-398v-708h405z" />
    <glyph glyph-name="Ecircumflex" unicode="&#xca;" horiz-adv-x="515" 
d="M418 728l-126 189h-71l-124 -190h66l94 103l94 -103zM472 -13v70h-327v252l311 1v68h-311v248h320v69h-398v-708h405z" />
    <glyph glyph-name="Edieresis" unicode="&#xcb;" horiz-adv-x="515" 
d="M373 764v93h-93v-94zM236 763v94h-93v-94h93zM472 -13v70h-327v252l311 1v68h-311v248h320v69h-398v-708h405z" />
    <glyph glyph-name="Igrave" unicode="&#xcc;" horiz-adv-x="218" 
d="M231 727l-121 181h-118l178 -182zM149 -13v708h-77v-708h77z" />
    <glyph glyph-name="Iacute" unicode="&#xcd;" horiz-adv-x="218" 
d="M314 918h-118l-121 -182h61zM149 -13v708h-77v-708h77z" />
    <glyph glyph-name="Icircumflex" unicode="&#xce;" horiz-adv-x="218" 
d="M271 718l-126 189h-71l-125 -190h67l93 103l95 -103zM147 -13v708h-77v-708h77z" />
    <glyph glyph-name="Idieresis" unicode="&#xcf;" horiz-adv-x="218" 
d="M225 764v93h-93v-94zM88 763v94h-93v-94h93zM146 -13v708h-77v-708h77z" />
    <glyph glyph-name="Eth" unicode="&#xd0;" horiz-adv-x="777" 
d="M739 340q0 165 -104 260q-51 48 -120 70.5t-156 23.5l-256 4v-322h-102v-69h103v-320h262q175 0 274 99q49 50 74 113t25 141zM656 340q0 -130 -83 -206q-84 -78 -221 -78h-171v252h222v69h-222v249h173q138 0 220 -79q83 -78 83 -207h-1z" />
    <glyph glyph-name="Ntilde" unicode="&#xd1;" horiz-adv-x="810" 
d="M584 873h-55q-3 -21 -6.5 -29.5t-7.5 -11.5q-8 -8 -17 -8q-19 0 -77 24q-58 26 -94 26q-23 0 -41.5 -8t-30.5 -26q-11 -16 -16.5 -36t-5.5 -51h55q2 22 5.5 30t7.5 11q10 8 18 8q17 0 76 -24q60 -26 94 -26q48 0 72 34q11 16 17 36t6 51zM726 -13v708h-78v-577
q-60 71 -119 139t-119 134q-66 73 -130 148t-132 156h-63v-708h78v576l499 -576h64z" />
    <glyph glyph-name="Ograve" unicode="&#xd2;" horiz-adv-x="864" 
d="M521 737l-121 181h-117l177 -182zM806 341q0 155 -108 259q-107 104 -266 104q-158 0 -266 -105q-107 -103 -107 -258q0 -77 27 -142t81 -117q107 -104 265 -104t266 105q108 103 108 258zM724 341q0 -118 -86 -204q-84 -85 -206 -85t-207 85q-84 84 -84 204
q0 119 85 204t206 85q122 0 206 -85q86 -86 86 -204z" />
    <glyph glyph-name="Oacute" unicode="&#xd3;" horiz-adv-x="864" 
d="M633 918h-117l-121 -182h61zM806 341q0 155 -108 259q-107 104 -266 104q-158 0 -266 -105q-107 -103 -107 -258q0 -77 27 -142t81 -117q107 -104 265 -104t266 105q108 103 108 258zM724 341q0 -118 -86 -204q-84 -85 -206 -85t-207 85q-84 84 -84 204q0 119 85 204
t206 85q122 0 206 -85q86 -86 86 -204z" />
    <glyph glyph-name="Ocircumflex" unicode="&#xd4;" horiz-adv-x="864" 
d="M592 728l-129 189h-68l-125 -190h67l93 103l95 -103zM806 341q0 155 -108 259q-107 104 -266 104q-158 0 -266 -105q-107 -103 -107 -258q0 -77 27 -142t81 -117q107 -104 265 -104t266 105q108 103 108 258zM724 341q0 -118 -86 -204q-84 -85 -206 -85t-207 85
q-84 84 -84 204q0 119 85 204t206 85q122 0 206 -85q86 -86 86 -204z" />
    <glyph glyph-name="Otilde" unicode="&#xd5;" horiz-adv-x="864" 
d="M607 873h-54q-4 -21 -7 -29.5t-8 -11.5q-8 -8 -17 -8q-17 0 -77 24q-58 26 -94 26q-23 0 -41 -8t-31 -26q-11 -16 -16.5 -36t-5.5 -51h56q2 22 5 30t7 11q10 8 18 8q17 0 76 -24q60 -26 94 -26q49 0 73 34q11 16 16.5 36t5.5 51zM806 341q0 155 -108 259
q-107 104 -266 104q-158 0 -266 -105q-107 -103 -107 -258q0 -77 27 -142t81 -117q107 -104 265 -104t266 105q108 103 108 258zM724 341q0 -118 -86 -204q-84 -85 -206 -85t-207 85q-84 84 -84 204q0 119 85 204t206 85q122 0 206 -85q86 -86 86 -204z" />
    <glyph glyph-name="Odieresis" unicode="&#xd6;" horiz-adv-x="864" 
d="M548 764v93h-93v-94zM411 763v94h-93v-94h93zM806 341q0 155 -108 259q-107 104 -266 104q-158 0 -266 -105q-107 -103 -107 -258q0 -77 27 -142t81 -117q107 -104 265 -104t266 105q108 103 108 258zM724 341q0 -118 -86 -204q-84 -85 -206 -85t-207 85q-84 84 -84 204
q0 119 85 204t206 85q122 0 206 -85q86 -86 86 -204z" />
    <glyph glyph-name="multiply" unicode="&#xd7;" horiz-adv-x="693" 
d="M565 182l-169 169l169 169l-50 50l-169 -169l-169 169l-49 -50l169 -169l-169 -169l50 -50l169 169l169 -169z" />
    <glyph glyph-name="Oslash" unicode="&#xd8;" horiz-adv-x="864" 
d="M806 341q0 146 -99 248l68 75l-58 41l-62 -70q-93 69 -223 69q-158 0 -266 -105q-107 -103 -107 -258q0 -147 98 -250l4 -4l-65 -73l57 -41l62 69q91 -64 217 -64q158 0 266 105q108 103 108 258zM724 341q0 -118 -86 -204q-84 -85 -206 -85q-94 0 -164 49l385 428
q71 -79 71 -188zM602 576l-387 -428q-74 80 -74 193q0 119 85 204t206 85q98 0 170 -54z" />
    <glyph glyph-name="Ugrave" unicode="&#xd9;" horiz-adv-x="733" 
d="M485 727l-121 181h-118l178 -182zM665 296v399h-78v-395q0 -58 -15.5 -102.5t-44.5 -78.5q-59 -67 -159 -67q-102 0 -162 65q-59 65 -59 178v400h-78v-404q0 -139 83 -226q84 -87 215 -87q133 0 215 91q83 89 83 227z" />
    <glyph glyph-name="Uacute" unicode="&#xda;" horiz-adv-x="733" 
d="M567 908h-117l-121 -182h60zM665 296v399h-78v-395q0 -58 -15.5 -102.5t-44.5 -78.5q-59 -67 -159 -67q-102 0 -162 65q-59 65 -59 178v400h-78v-404q0 -139 83 -226q84 -87 215 -87q133 0 215 91q83 89 83 227z" />
    <glyph glyph-name="Ucircumflex" unicode="&#xdb;" horiz-adv-x="733" 
d="M527 718l-126 189h-72l-124 -190h67l93 103l95 -103zM665 296v399h-78v-395q0 -58 -15.5 -102.5t-44.5 -78.5q-59 -67 -159 -67q-102 0 -162 65q-59 65 -59 178v400h-78v-404q0 -139 83 -226q84 -87 215 -87q133 0 215 91q83 89 83 227z" />
    <glyph glyph-name="Udieresis" unicode="&#xdc;" horiz-adv-x="733" 
d="M482 764v93h-93v-94zM345 763v94h-93v-94h93zM665 296v399h-78v-395q0 -58 -15.5 -102.5t-44.5 -78.5q-59 -67 -159 -67q-102 0 -162 65q-59 65 -59 178v400h-78v-404q0 -139 83 -226q84 -87 215 -87q133 0 215 91q83 89 83 227z" />
    <glyph glyph-name="Yacute" unicode="&#xdd;" horiz-adv-x="612" 
d="M506 908h-117l-121 -182h61zM624 694h-96l-221 -263l-223 264h-96l279 -334v-374h78v374z" />
    <glyph glyph-name="Thorn" unicode="&#xde;" horiz-adv-x="536" 
d="M499 341q0 95 -64 146q-63 49 -172 49h-121v159h-78v-708h78v161h123q109 0 171 49q63 51 63 144zM418 342q0 -61 -40 -92q-41 -33 -117 -33h-119v250h125q71 0 112 -35q39 -32 39 -90z" />
    <glyph glyph-name="germandbls" unicode="&#xdf;" horiz-adv-x="525" 
d="M480 199q0 78 -38 127q-30 38 -70 54q39 22 55 60q22 49 22 86q0 78 -57 128q-55 50 -141 50q-83 0 -140 -55q-55 -55 -55 -167v-495h74v461q0 63 8.5 100.5t24.5 54.5q33 36 85 36t89 -29q17 -13 26.5 -34.5t9.5 -53.5q0 -47 -25 -78t-60 -31h-21v-68q46 -5 71 -17.5
t38 -31.5q27 -41 27 -97q0 -63 -32 -107q-31 -42 -85 -42q-9 0 -17.5 1.5t-16.5 3.5t-15.5 4.5t-24.5 8.5v-77q13 -4 20 -5.5t14 -3.5q8 -2 16.5 -3t19.5 -1q90 0 145 67q53 65 53 154z" />
    <glyph glyph-name="agrave" unicode="&#xe0;" horiz-adv-x="507" 
d="M343 509l-120 181h-118l178 -182zM471 -15v477h-72v-24q-16 8 -31.5 14t-31.5 11q-32 8 -60 8q-105 0 -173 -74q-66 -70 -66 -185q0 -51 15.5 -92.5t48.5 -75.5q66 -66 165 -66q41 0 80 11q14 4 26.5 8t25.5 9v-21h73zM399 82q-22 -12 -49 -23q-30 -12 -75 -12
q-38 0 -66.5 11.5t-51.5 34.5q-44 44 -44 120q0 81 49 133q50 53 124 53q21 0 38.5 -3.5t33.5 -10.5q28 -13 41 -21v-282z" />
    <glyph glyph-name="aacute" unicode="&#xe1;" horiz-adv-x="498" 
d="M423 690h-117l-121 -182h61zM468 -15v477h-72v-24q-28 15 -62 25q-32 8 -60 8q-105 0 -174 -74q-66 -72 -66 -185q0 -102 65 -168q64 -66 165 -66q41 0 80 11l26 8t25 9v-21h73zM396 82q-11 -6 -23 -12t-26 -11q-30 -12 -74 -12q-74 0 -118 46q-45 43 -45 120
q0 81 50 133q48 53 124 53q38 0 72 -14q25 -11 40 -21v-282z" />
    <glyph glyph-name="acircumflex" unicode="&#xe2;" horiz-adv-x="518" 
d="M428 500l-125 189h-72l-124 -190h66l94 103l94 -103zM473 -15v477h-72v-24q-28 15 -62 25q-32 8 -60 8q-105 0 -173 -74q-67 -71 -67 -185q0 -102 65 -168q64 -66 165 -66q41 0 80 11q14 4 26.5 8t24.5 9v-21h73zM401 82q-11 -6 -23 -12t-26 -11q-30 -12 -74 -12
q-74 0 -118 46q-45 45 -45 120q0 81 50 133q48 53 124 53q39 0 72 -14q25 -11 40 -21v-282z" />
    <glyph glyph-name="atilde" unicode="&#xe3;" horiz-adv-x="506" 
d="M439 655h-54q-3 -21 -6.5 -29.5t-7.5 -11.5q-9 -8 -17 -8q-19 0 -77 24q-60 26 -94 26q-23 0 -41.5 -8t-30.5 -26q-11 -16 -17 -36t-6 -51h56q2 22 5.5 30t6.5 11q11 8 19 8q16 0 76 -24q58 -26 94 -26q48 0 72 34q11 16 16.5 36t5.5 51zM470 -15v477h-72v-24
q-28 15 -62 25q-32 8 -60 8q-105 0 -173 -74q-67 -71 -67 -185q0 -102 65 -168q64 -66 165 -66q41 0 80 11q14 4 26.5 8t24.5 9v-21h73zM398 82q-11 -6 -23 -12t-26 -11q-30 -12 -74 -12q-74 0 -118 46q-45 45 -45 120q0 81 50 133q48 53 124 53q39 0 72 -14q25 -11 40 -21
v-282z" />
    <glyph glyph-name="adieresis" unicode="&#xe4;" horiz-adv-x="515" 
d="M383 546v93h-94v-94zM245 545v94h-93v-94h93zM478 -15v477h-72v-29q-29 16 -62 27q-31 11 -61 11q-104 0 -173 -74q-66 -72 -66 -185q0 -102 65 -168q64 -66 165 -66q41 0 80 11q13 4 26 10.5t25 11.5v-26h73zM406 87q-11 -6 -23 -14.5t-26 -13.5q-30 -12 -75 -12
q-38 0 -66.5 11.5t-51.5 34.5q-44 44 -44 120q0 81 50 133q48 53 124 53q38 0 71 -14q14 -6 24 -13.5t17 -12.5v-272z" />
    <glyph glyph-name="ae" unicode="&#xe6;" horiz-adv-x="788" 
d="M761 229q0 58 -13 100.5t-39 75.5q-54 66 -136 66q-45 0 -81 -19q-8 -4 -17.5 -13.5t-16.5 -14.5v38h-72v-29q-31 17 -61 27q-33 11 -61 11q-105 0 -173 -74q-67 -71 -67 -185q0 -102 65 -168q64 -66 165 -66q41 0 80 11q14 4 26.5 10.5t25.5 11.5v-26h73v46q8 -8 20 -18
t21 -15q38 -20 83 -20q53 0 97 22q21 10 38 21t34 24v90q-25 -24 -41 -37t-35 -26q-35 -22 -76 -22q-60 0 -102 49q-31 36 -40 84v46h303zM674 293h-210q5 17 11 32t14 26q33 48 86 48q44 0 69 -31q23 -27 30 -76v1zM386 87q-10 -6 -22.5 -14.5t-26.5 -13.5q-29 -12 -74 -12
q-74 0 -118 46q-45 45 -45 120q0 41 13 74t37 59q50 53 124 53q21 0 38.5 -3.5t33.5 -10.5q14 -6 23.5 -13.5t17.5 -12.5z" />
    <glyph glyph-name="ccedilla" unicode="&#xe7;" horiz-adv-x="438" 
d="M407 5v78q-21 -9 -35.5 -14t-29.5 -10q-30 -9 -66 -9q-39 0 -68.5 12t-50.5 35q-44 47 -44 127q0 77 44 127q42 48 113 48q35 0 63 -10q14 -5 28.5 -10t37.5 -16v82q-20 7 -35 11.5t-30 7.5q-28 7 -65 7q-105 0 -170 -74q-62 -71 -62 -173q0 -112 63 -179q43 -45 105 -58
l-18 -62q26 0 38 -1.5t18 -6.5q10 -6 10 -19q0 -12 -11 -18q-6 -4 -16.5 -6.5t-24.5 -1.5l-44 3l-9 -56l59 -7q46 0 78 24t32 63q0 25 -13 42q-13 19 -32 25q3 0 8.5 7t9.5 8q6 1 12 1.5t12 0.5q15 2 28.5 4.5t27.5 6.5q12 3 20.5 6t16.5 5z" />
    <glyph glyph-name="egrave" unicode="&#xe8;" horiz-adv-x="503" 
d="M369 509l-121 181h-118l178 -182zM469 228q0 60 -15 102.5t-44 74.5q-60 66 -153 66q-96 0 -158 -71q-61 -68 -61 -169q0 -109 68 -182q69 -71 175 -71q57 0 106 23q21 9 38.5 20t34.5 24v89q-25 -23 -43 -36t-40 -25q-41 -23 -92 -23q-38 0 -68 13t-55 37
q-46 46 -49 111v18zM381 293h-257q10 33 29 57q39 49 105 49q29 0 50 -8.5t36 -23.5q26 -26 37 -75v1z" />
    <glyph glyph-name="eacute" unicode="&#xe9;" horiz-adv-x="503" 
d="M451 690h-117l-121 -182h60zM469 228q0 60 -15 102.5t-44 74.5q-60 66 -153 66q-96 0 -158 -71q-61 -68 -61 -169q0 -109 68 -182q69 -71 175 -71q57 0 106 23q21 9 38.5 20t34.5 24v89q-25 -23 -43 -36t-40 -25q-41 -23 -92 -23q-38 0 -68 13t-55 37q-46 46 -49 111v18z
M381 293h-257q10 33 29 57q39 49 105 49q29 0 50 -8.5t36 -23.5q26 -26 37 -75v1z" />
    <glyph glyph-name="ecircumflex" unicode="&#xea;" horiz-adv-x="503" 
d="M411 500l-126 189h-72l-124 -190h67l93 103l95 -103zM469 228q0 60 -15 102.5t-44 74.5q-60 66 -153 66q-96 0 -158 -71q-61 -68 -61 -169q0 -109 68 -182q69 -71 175 -71q57 0 106 23q21 9 38.5 20t34.5 24v89q-25 -23 -43 -36t-40 -25q-41 -23 -92 -23q-38 0 -68 13
t-55 37q-46 46 -49 111v18zM381 293h-257q10 33 29 57q39 49 105 49q29 0 50 -8.5t36 -23.5q26 -26 37 -75v1z" />
    <glyph glyph-name="edieresis" unicode="&#xeb;" horiz-adv-x="503" 
d="M366 546v93h-93v-94zM229 545v94h-93v-94h93zM469 228q0 60 -15 102.5t-44 74.5q-60 66 -153 66q-96 0 -158 -71q-61 -68 -61 -169q0 -109 68 -182q69 -71 175 -71q57 0 106 23q21 9 38.5 20t34.5 24v89q-25 -23 -43 -36t-40 -25q-41 -23 -92 -23q-38 0 -68 13t-55 37
q-46 46 -49 111v18zM381 293h-257q10 33 29 57q39 49 105 49q29 0 50 -8.5t36 -23.5q26 -26 37 -75v1z" />
    <glyph glyph-name="igrave" unicode="&#xec;" horiz-adv-x="197" 
d="M219 509l-121 181h-117l177 -182zM137 -13v475h-73v-475h73z" />
    <glyph glyph-name="iacute" unicode="&#xed;" horiz-adv-x="197" 
d="M262 690h-117l-121 -182h60zM138 -13v475h-73v-475h73z" />
    <glyph glyph-name="icircumflex" unicode="&#xee;" horiz-adv-x="197" 
d="M259 500l-125 189h-72l-124 -190h66l94 103l94 -103zM135 -13v475h-73v-475h73z" />
    <glyph glyph-name="idieresis" unicode="&#xef;" horiz-adv-x="197" 
d="M214 546v93h-93v-94zM77 545v94h-93v-94h93zM135 -13v475h-73v-475h73z" />
    <glyph glyph-name="eth" unicode="&#xf0;" horiz-adv-x="587" 
d="M550 248q0 151 -81 270q-25 36 -66 74l110 51l-27 56l-136 -65q-21 16 -51 31t-75 32l-29 -56q26 -12 45.5 -23t33.5 -19l-114 -53l25 -56l149 69q16 -12 27 -22.5t19 -18.5q40 -45 62 -100q-36 30 -70 41q-36 12 -74 12q-114 0 -186 -71q-73 -70 -73 -178
q0 -105 74 -175q73 -70 184 -70q113 0 183 77q70 74 70 194zM474 229q0 -82 -50 -134q-48 -52 -128 -52t-133 52q-53 50 -53 126q0 77 52 131t133 54q79 0 129 -51q50 -50 50 -126z" />
    <glyph glyph-name="ntilde" unicode="&#xf1;" horiz-adv-x="515" 
d="M434 655h-54q-4 -21 -7.5 -29.5t-7.5 -11.5q-8 -8 -17 -8q-17 0 -77 24q-58 26 -94 26q-23 0 -41 -8t-31 -26q-11 -16 -16.5 -36t-5.5 -51h55q3 22 6 30t7 11q10 8 18 8q17 0 76 -24q60 -26 94 -26q49 0 73 34q11 16 16.5 36t5.5 51zM453 -13v284q0 45 -12 82t-38 64
q-51 54 -134 54q-47 0 -86 -22q-26 -15 -49 -47v60h-72v-475h73v326q11 17 24 32t29 28q31 26 81 26q54 0 82 -37q14 -17 21.5 -44t7.5 -62v-269h73z" />
    <glyph glyph-name="ograve" unicode="&#xf2;" horiz-adv-x="569" 
d="M404 509l-121 181h-117l177 -182zM526 224q0 104 -69 176q-69 71 -172 71q-105 0 -173 -71q-69 -72 -69 -176q0 -102 70 -175q68 -71 172 -71q103 0 173 71q68 73 68 175zM450 224q0 -72 -48 -123q-50 -51 -117 -51q-68 0 -117 52q-49 49 -49 122q0 74 49 124
q48 51 117 51q68 0 117 -52q48 -50 48 -123z" />
    <glyph glyph-name="oacute" unicode="&#xf3;" horiz-adv-x="569" 
d="M486 690h-117l-121 -182h61zM526 224q0 104 -69 176q-69 71 -172 71q-105 0 -173 -71q-69 -72 -69 -176q0 -102 70 -175q68 -71 172 -71q103 0 173 71q68 73 68 175zM450 224q0 -72 -48 -123q-50 -51 -117 -51q-68 0 -117 52q-49 49 -49 122q0 74 49 124q48 51 117 51
q68 0 117 -52q48 -50 48 -123z" />
    <glyph glyph-name="ocircumflex" unicode="&#xf4;" horiz-adv-x="569" 
d="M446 500l-126 189h-71l-125 -190h67l94 103l94 -103zM526 224q0 104 -69 176q-69 71 -172 71q-105 0 -173 -71q-69 -72 -69 -176q0 -102 70 -175q68 -71 172 -71q103 0 173 71q68 73 68 175zM450 224q0 -72 -48 -123q-50 -51 -117 -51q-68 0 -117 52q-49 49 -49 122
q0 74 49 124q48 51 117 51q68 0 117 -52q48 -50 48 -123z" />
    <glyph glyph-name="otilde" unicode="&#xf5;" horiz-adv-x="569" 
d="M460 655h-54q-4 -21 -7 -29.5t-7 -11.5q-9 -8 -17 -8q-11 0 -29.5 6t-48.5 18q-58 26 -93 26q-23 0 -41.5 -8t-31.5 -26q-11 -16 -16.5 -36t-5.5 -51h56q2 22 5 30t7 11q11 8 19 8q16 0 76 -24q58 -26 94 -26q23 0 41.5 8.5t30.5 25.5q11 16 16.5 36t5.5 51zM526 224
q0 104 -69 176q-69 71 -172 71q-105 0 -173 -71q-69 -72 -69 -176q0 -102 70 -175q68 -71 172 -71q103 0 173 71q68 73 68 175zM450 224q0 -72 -48 -123q-50 -51 -117 -51q-68 0 -117 52q-49 49 -49 122q0 74 49 124q48 51 117 51q68 0 117 -52q48 -50 48 -123z" />
    <glyph glyph-name="odieresis" unicode="&#xf6;" horiz-adv-x="569" 
d="M401 546v93h-93v-94zM264 545v94h-93v-94h93zM526 224q0 104 -69 176q-69 71 -172 71q-105 0 -173 -71q-69 -72 -69 -176q0 -102 70 -175q68 -71 172 -71q103 0 173 71q68 73 68 175zM450 224q0 -72 -48 -123q-50 -51 -117 -51q-68 0 -117 52q-49 49 -49 122q0 74 49 124
q48 51 117 51q68 0 117 -52q48 -50 48 -123z" />
    <glyph glyph-name="divide" unicode="&#xf7;" horiz-adv-x="693" 
d="M386 460v109h-79v-110zM621 316v70h-549v-70h549zM386 133v110h-79v-110h79z" />
    <glyph glyph-name="oslash" unicode="&#xf8;" horiz-adv-x="569" 
d="M529 338q0 12 -5 26t-13 27.5t-17 25t-17 19.5l18 39l-20 16l-53 -60q-58 40 -136 40q-51 0 -94.5 -17.5t-78.5 -53.5q-68 -71 -68 -176q0 -98 57 -162l-61 -70l51 -39l57 66q58 -41 137 -41q51 0 94.5 17.5t78.5 53.5q50 51 59 125q6 63 -18 114q0 2 4.5 9.5t10 15.5
t10 15.5t4.5 9.5zM452 224q0 -73 -49 -123q-48 -51 -117 -51q-50 0 -87 26l219 252q34 -45 34 -104zM372 373l-219 -252q-32 44 -32 103q0 75 48 124q49 51 117 51q49 0 86 -26z" />
    <glyph glyph-name="ugrave" unicode="&#xf9;" horiz-adv-x="515" 
d="M376 509l-121 181h-118l178 -182zM453 -13v475h-73v-324q-15 -29 -52 -58q-36 -30 -82 -30q-53 0 -82 34t-29 98v280h-73v-290q0 -94 50 -144t140 -50q41 0 80 22q25 13 48 44v-57h73z" />
    <glyph glyph-name="uacute" unicode="&#xfa;" horiz-adv-x="515" 
d="M452 690h-117l-121 -182h61zM447 -13v475h-73v-324q-16 -30 -51 -58q-36 -30 -82 -30q-54 0 -83 34t-29 98v280h-73v-290q0 -93 51 -144q50 -50 140 -50q39 0 80 22q26 14 47 44v-57h73z" />
    <glyph glyph-name="ucircumflex" unicode="&#xfb;" horiz-adv-x="515" 
d="M418 500l-126 189h-71l-125 -190h67l93 103l95 -103zM453 -13v475h-73v-324q-15 -29 -52 -58q-36 -30 -82 -30q-53 0 -82 34t-29 98v280h-73v-290q0 -94 50 -144t140 -50q41 0 80 22q25 13 48 44v-57h73z" />
    <glyph glyph-name="udieresis" unicode="&#xfc;" horiz-adv-x="515" 
d="M373 546v93h-93v-94zM236 545v94h-93v-94h93zM453 -13v475h-73v-324q-15 -29 -52 -58q-36 -30 -82 -30q-53 0 -82 34t-29 98v280h-73v-290q0 -94 50 -144t140 -50q41 0 80 22q25 13 48 44v-57h73z" />
    <glyph glyph-name="yacute" unicode="&#xfd;" horiz-adv-x="438" 
d="M417 690h-117l-121 -182h60zM450 461h-77l-146 -298l-154 299h-80l196 -376l-163 -329h77z" />
    <glyph glyph-name="thorn" unicode="&#xfe;" horiz-adv-x="536" 
d="M489 225q0 108 -68 177t-173 69q-17 0 -34 -2.5t-35 -7.5q-26 -6 -48 -18v252h-73v-938h73v249q13 -6 25.5 -11t25.5 -8q34 -9 76 -9q95 0 163 75q68 73 68 172zM411 224q0 -76 -47 -125q-45 -49 -122 -49q-20 0 -37.5 3.5t-32.5 8.5q-12 5 -22.5 8.5t-18.5 8.5v292
q11 7 37 16q27 12 68 12q75 0 125 -51q50 -48 50 -124z" />
    <glyph glyph-name="ydieresis" unicode="&#xff;" horiz-adv-x="438" 
d="M332 546v93h-93v-94zM195 545v94h-93v-94h93zM450 461h-77l-146 -298l-154 299h-80l196 -376l-163 -329h77z" />
    <glyph glyph-name="OE" unicode="&#x152;" horiz-adv-x="941" 
d="M893 -13v70h-330v252l314 1v68h-314v248h323v69h-467q-156 0 -263 -101q-106 -99 -106 -249q0 -155 106 -257q106 -101 265 -101h472zM485 57h-53q-130 0 -215 80q-85 82 -85 204q0 62 21.5 111.5t63.5 91.5q85 82 212 82h56v-569z" />
    <glyph glyph-name="oe" unicode="&#x153;" horiz-adv-x="875" 
d="M824 229q0 58 -12.5 100.5t-37.5 75.5q-50 66 -131 66q-57 0 -102 -24q-37 -19 -70 -64q-31 42 -74 64q-47 24 -117 24q-99 0 -165 -72q-65 -71 -65 -175q0 -103 65 -174q66 -72 162 -72q69 0 125 31q21 13 39 29t32 36q25 -51 69 -72q49 -24 108 -24q50 0 96 22
q21 10 37.5 21t31.5 24v90q-25 -24 -41 -37t-35 -26q-35 -22 -77 -22q-62 0 -105 49q-39 45 -42 112v18h309zM737 293h-213q10 37 25 58q33 48 87 48q45 0 71 -31q23 -27 30 -76v1zM438 224q0 -72 -46 -124q-45 -50 -110 -50q-64 0 -110 51q-46 50 -46 123t46 125
q45 50 110 50q63 0 110 -51q46 -50 46 -124z" />
    <glyph glyph-name="Scaron" unicode="&#x160;" horiz-adv-x="492" 
d="M407 922h-67l-94 -103l-94 103h-66l124 -190h71zM450 173q0 84 -41 129q-20 23 -57 43.5t-89 39.5q-76 28 -108 55q-29 26 -29 75q0 46 38 81q19 17 41.5 25.5t51.5 8.5q46 0 84 -18q20 -10 38.5 -19.5t44.5 -24.5l-2 87q-20 14 -64 31q-47 18 -107 18q-85 0 -146 -57
q-61 -56 -61 -134q0 -79 43 -122q20 -20 52 -38.5t75 -32.5q80 -28 120 -60q35 -29 35 -84q0 -53 -38 -88q-39 -36 -95 -36q-35 0 -74 17q-20 9 -44.5 24t-64.5 45v-93q15 -12 34.5 -22t44.5 -21q51 -24 113 -24q83 0 144 58q61 57 61 137z" />
    <glyph glyph-name="scaron" unicode="&#x161;" horiz-adv-x="372" 
d="M347 689h-67l-94 -103l-94 103h-67l125 -190h71zM344 116q0 61 -42 94q-39 31 -98 52q-23 8 -40.5 16.5t-30.5 17.5q-22 16 -22 42q0 25 23 45q11 9 26 14t38 5q16 0 30.5 -3.5t29.5 -9.5q15 -7 30.5 -16.5t41.5 -29.5v82q-22 19 -56 32q-36 14 -80 14q-30 0 -56.5 -10
t-49.5 -28q-48 -38 -48 -96q0 -52 34 -85q32 -31 90 -52q38 -14 60 -25t32 -20q17 -17 17 -38q0 -31 -23 -48q-25 -19 -63 -19q-32 0 -70 13q-18 6 -36 14.5t-44 25.5v-78q13 -8 27 -15.5t33 -15.5q35 -17 90 -17q66 0 111 41q46 41 46 98z" />
    <glyph glyph-name="Ydieresis" unicode="&#x178;" horiz-adv-x="612" 
d="M421 764v93h-93v-94zM284 763v94h-93v-94h93zM624 694h-96l-221 -263l-223 264h-96l279 -334v-374h78v374z" />
    <glyph glyph-name="florin" unicode="&#x192;" horiz-adv-x="584" 
d="M568 722q-14 5 -25.5 9t-25.5 6q-27 6 -52 6q-52 0 -92 -31q-20 -17 -32 -44.5t-21 -65.5l-16 -69h-82l-14 -72h82l-108 -497q-5 -21 -8.5 -37.5t-7.5 -28.5q-3 -11 -6 -17t-6 -9q-15 -17 -44 -17q-10 0 -19 1t-17 3q-9 2 -19.5 3.5t-28.5 6.5l-17 -73q14 -4 24 -6.5
t21 -5.5q12 -3 26.5 -5t31.5 -2q60 0 94 31q17 14 29 35t18 50l124 569h107l17 72h-109q1 2 2.5 10.5t2.5 10.5q9 39 16 62.5t15 31.5q7 7 17 11t25 4q22 0 40 -3q9 -2 18.5 -4t26.5 -7z" />
    <glyph glyph-name="circumflex" unicode="&#x2c6;" 
d="M336 500l-126 189h-71l-125 -190h67l93 103l95 -103z" />
    <glyph glyph-name="tilde" unicode="&#x2dc;" 
d="M350 655h-54q-4 -21 -7 -29.5t-7 -11.5q-9 -8 -17 -8q-11 0 -29.5 6t-48.5 18q-58 26 -93 26q-23 0 -41.5 -8t-31.5 -26q-11 -16 -16.5 -36t-5.5 -51h56q2 22 5 30t7 11q11 8 19 8q16 0 76 -24q58 -26 94 -26q23 0 41.5 8.5t30.5 25.5q11 16 16.5 36t5.5 51z" />
    <glyph glyph-name="endash" unicode="&#x2013;" horiz-adv-x="525" 
d="M531 222v57h-537v-58z" />
    <glyph glyph-name="emdash" unicode="&#x2014;" horiz-adv-x="1050" 
d="M1044 222v57h-1038v-58z" />
    <glyph glyph-name="quoteleft" unicode="&#x2018;" horiz-adv-x="186" 
d="M145 645v62q-25 -17 -44 -31.5t-32 -33.5q-24 -39 -24 -103v-82h90v123h-20q1 11 2 19.5t3 14.5q1 3 5 7q4 6 6 8q6 5 14 16z" />
    <glyph glyph-name="quoteright" unicode="&#x2019;" horiz-adv-x="186" 
d="M140 615v82h-90v-123h21q-1 -11 -2 -19.5t-3 -14.5q-1 -3 -5 -7q-2 -3 -7 -8q-3 -3 -6 -7t-8 -9v-62q26 17 45 31.5t31 33.5q13 20 18.5 45.5t5.5 57.5z" />
    <glyph glyph-name="quotesinglbase" unicode="&#x201a;" horiz-adv-x="186" 
d="M138 28v82h-90v-123h20q0 -21 -5 -34q-2 -8 -5.5 -15.5t-9.5 -15.5v-62q27 17 41 32.5t25 32.5q24 39 24 103z" />
    <glyph glyph-name="quotedblleft" unicode="&#x201c;" horiz-adv-x="416" 
d="M370 645v62q-25 -17 -44.5 -31.5t-31.5 -33.5q-24 -39 -24 -103v-82h90v123h-20q0 11 1 19.5t3 14.5q1 3 5 7q2 2 3.5 4t3.5 4q3 3 6 7t8 9zM151 645v62q-25 -17 -44.5 -31.5t-31.5 -33.5q-24 -39 -24 -103v-82h90v123h-20q0 11 1 19.5t3 14.5q1 3 5 7q2 2 3.5 4t3.5 4
q3 3 6 7t8 9z" />
    <glyph glyph-name="quotedblright" unicode="&#x201d;" horiz-adv-x="416" 
d="M365 615v82h-90v-123h20q0 -21 -5 -34q0 -3 -4 -7q-2 -2 -3.5 -4t-3.5 -4q-3 -3 -6.5 -7t-7.5 -9v-62q25 17 44.5 31.5t31.5 33.5q24 39 24 103zM146 615v82h-90v-123h20q0 -21 -5 -34q0 -3 -4 -7q-2 -2 -3.5 -4t-3.5 -4q-3 -3 -6.5 -7t-7.5 -9v-62q25 17 44.5 31.5
t31.5 33.5q24 39 24 103z" />
    <glyph glyph-name="quotedblbase" unicode="&#x201e;" horiz-adv-x="416" 
d="M363 28v82h-90v-123h20q0 -11 -1 -19.5t-3 -13.5q0 -3 -5 -8q-2 -3 -7 -8q-3 -3 -6 -6.5t-8 -9.5v-62q25 17 44 31t31 33q25 41 25 104zM148 28v82h-90v-123h20q0 -11 -1 -19.5t-3 -13.5q0 -3 -5 -8q-2 -3 -7 -8q-3 -3 -6 -6.5t-8 -9.5v-62q25 17 44 31t31 33
q25 41 25 104z" />
    <glyph glyph-name="dagger" unicode="&#x2020;" horiz-adv-x="515" 
d="M488 354v79h-192l3 271h-85l3 -271h-192v-79h192l-6 -597h91l-6 597h192z" />
    <glyph glyph-name="daggerdbl" unicode="&#x2021;" horiz-adv-x="503" 
d="M477 -3v81l-199 -14l13 162l-13 172l199 -14v81l-200 -14l18 253h-88l17 -253l-199 14v-81l199 14l-13 -172l13 -162l-199 14v-81l199 14l-17 -254h88l-18 254z" />
    <glyph glyph-name="bullet" unicode="&#x2022;" horiz-adv-x="525" 
d="M397 341q0 56 -40 96q-39 39 -95 39q-55 0 -95 -40q-39 -39 -39 -95t40 -96q39 -39 95 -39q55 0 95 40q39 39 39 95z" />
    <glyph glyph-name="ellipsis" unicode="&#x2026;" horiz-adv-x="1050" 
d="M902 -13v124h-89v-124h89zM569 -13v124h-89v-124h89zM236 -13v124h-89v-124h89z" />
    <glyph glyph-name="perthousand" unicode="&#x2030;" horiz-adv-x="1105" 
d="M1077 147q0 71 -51 122t-122 51q-70 0 -123 -51q-50 -50 -50 -122q0 -71 50 -121q53 -51 122 -51q72 0 123 51t51 121zM380 531q0 71 -51 122t-123 51q-70 0 -123 -51q-50 -50 -50 -122t51 -123q53 -51 122 -51q71 0 123 52q51 51 51 122zM686 701h-81l-570 -725h83z
M708 147q0 71 -51 122t-122 51q-70 0 -123 -51q-50 -50 -50 -122q0 -71 50 -121q53 -51 122 -51q72 0 123 51t51 121zM1009 145q0 -42 -31 -72q-30 -30 -73 -30q-44 0 -76 32q-30 29 -30 73q0 42 31 73t75 31q41 0 73 -32q31 -30 31 -75zM312 529q0 -41 -32 -73
q-30 -31 -73 -31t-75 32q-31 31 -31 75q0 42 32 73q16 15 34 23t41 8q41 0 73 -32q31 -30 31 -75zM640 145q0 -42 -31 -72q-30 -30 -73 -30q-44 0 -76 32q-30 29 -30 73q0 42 31 73t75 31q41 0 73 -32q31 -30 31 -75z" />
    <glyph glyph-name="guilsinglleft" unicode="&#x2039;" horiz-adv-x="295" 
d="M294 -7l-199 238l197 238h-93l-198 -238l200 -238h93z" />
    <glyph glyph-name="guilsinglright" unicode="&#x203a;" horiz-adv-x="295" 
d="M293 231l-197 238h-94l198 -238l-200 -238h94z" />
    <glyph glyph-name="minus" unicode="&#xe000;" horiz-adv-x="693" 
d="M621 317v69h-549v-70z" />
    <glyph glyph-name="notequal" unicode="&#xe001;" horiz-adv-x="693" 
d="M621 196v69h-271l65 173h206v69h-179l46 122h-71l-46 -123h-299v-69h272l-65 -173h-207v-69h180l-46 -122h71l46 123h298z" />
    <glyph glyph-name="infinity" unicode="&#xe002;" horiz-adv-x="749" 
d="M719 264q0 67 -49 110q-48 43 -105 43q-45 0 -87 -21q-19 -10 -45 -29.5t-58 -50.5q-33 31 -59 50.5t-46 29.5q-41 21 -85 21q-58 0 -107 -44q-48 -43 -48 -109t49 -110q48 -43 106 -43q36 0 79 20q41 17 111 81q68 -64 110 -81q45 -20 80 -20q57 0 106 44q48 42 48 109z
M643 264q0 -37 -21 -56q-11 -10 -24.5 -15.5t-32.5 -5.5q-39 0 -75 25q-33 24 -60 52q14 15 29 28.5t32 24.5q33 24 74 24q35 0 57 -25q21 -24 21 -52zM319 264q-14 -15 -29 -28.5t-32 -24.5q-33 -24 -73 -24q-38 0 -59 21q-20 20 -20 56q0 27 22 53q22 24 57 24
q38 0 74 -25q33 -24 60 -52z" />
    <glyph glyph-name="lessequal" unicode="&#xe003;" horiz-adv-x="693" 
d="M621 131v76l-444 184l444 184v76l-549 -231v-58zM621 -13v61h-549v-61h549z" />
    <glyph glyph-name="greaterequal" unicode="&#xe004;" horiz-adv-x="693" 
d="M621 362v58l-549 231v-76l443 -184l-443 -184v-76zM621 -13v61h-549v-61h549z" />
    <glyph glyph-name="partialdiff" unicode="&#xe005;" horiz-adv-x="875" 
d="M792 -13v50h-185q1 1 4.5 4t4.5 4q12 12 23.5 24t22.5 26q11 11 23 25t23 32q7 11 14.5 22t13.5 25q14 31 14 57q0 51 -42 84q-41 32 -99 32q-19 0 -36 -3.5t-32 -8.5q-25 -10 -46 -27v-64q25 20 38 29t24 14q23 10 49 10q37 0 62 -20q24 -18 24 -46q0 -27 -15 -54
q-8 -15 -17.5 -29.5t-20.5 -28.5q-17 -20 -33 -36t-31 -30q-16 -14 -34 -29.5t-41 -35.5v-26h292zM685 704h-71l-543 -744h69zM225 320l-1 380h-58l1 -381z" />
    <glyph glyph-name="summation" unicode="&#xe006;" horiz-adv-x="875" 
d="M751 125v46h-60v201h-30l-227 -221v-27h200v-137h57v138h60zM698 704h-71l-543 -744h70zM238 320l-1 380h-58l1 -381zM634 170h-112l112 109v-109z" />
    <glyph glyph-name="product" unicode="&#xe007;" horiz-adv-x="875" 
d="M789 125v46h-60v201h-31l-226 -221v-27h200v-137h57v138h60zM730 704h-71l-543 -744h70zM329 432q0 19 -7 34t-20 29q-16 16 -41 25q29 11 41 26q21 25 21 55q0 24 -10.5 42.5t-30.5 32.5q-38 28 -98 28q-20 0 -36.5 -2.5t-30.5 -7.5q-11 -5 -21 -9t-20 -10v-52
q18 9 28 13t22 9q10 4 23 6.5t30 2.5q20 0 35.5 -5t28.5 -13q23 -16 23 -37q0 -11 -5.5 -20.5t-19.5 -17.5t-30.5 -13t-36.5 -5h-16v-50h19q46 0 71 -19q23 -17 23 -46q0 -27 -24 -45q-25 -19 -66 -19q-31 0 -55 6q-11 3 -22.5 6.5t-30.5 9.5v-50q12 -5 23.5 -8t25.5 -7
q29 -7 62 -7q32 0 57 8t46 24q42 33 42 86zM672 170h-112l112 109v-109z" />
    <glyph glyph-name="pi" unicode="&#xe008;" horiz-adv-x="576" 
d="M561 164h-47q0 -26 -4 -39t-11 -21q-16 -16 -32 -16q-15 0 -34 18q-18 16 -18 60q0 39 3 111q1 33 3 61t4 51h128v111h-386q-63 0 -98 -50q-17 -23 -30.5 -51.5t-27.5 -73.5h42q12 23 21.5 35t18.5 17q18 12 39 12h33l-27 -215q-3 -17 -15 -39q-11 -19 -32 -40
q-12 -14 -20 -27t-8 -33q0 -27 19 -47q22 -20 47 -20q36 0 54 27q17 23 23 53l45 341h88q-5 -41 -8 -74t-5 -59q-2 -28 -3.5 -54t-1.5 -50q0 -42 7 -75t23 -57q15 -23 34.5 -36t43.5 -13q53 0 92 50q19 25 29 59t11 84z" />
    <glyph glyph-name="integral" unicode="&#xe009;" horiz-adv-x="288" 
d="M306 860q0 35 -28 53q-12 7 -24.5 11.5t-26.5 4.5q-42 0 -66 -32.5t-33 -88.5q-18 -110 -18 -325q0 -254 3 -315q3 -60 3 -94q0 -46 -6 -70q-4 -19 -11 -23q-5 3 -10 7t-11 10q-14 12 -30 12q-22 0 -39 -17t-17 -40q0 -32 25 -54q24 -19 47 -19q47 0 75.5 34.5t41.5 97.5
q26 125 26 387q0 70 -3 136t-8 127q-5 57 -7.5 95t-2.5 56q1 2 5 5q4 2 11 1q8 -1 18 -8q10 -8 22 -8q31 0 47 20q17 17 17 37z" />
    <glyph glyph-name="Omega" unicode="&#xe00a;" horiz-adv-x="806" 
d="M767 -13v188h-37q-6 -26 -11 -37.5t-9 -16.5q-7 -8 -36 -8h-136q2 1 5.5 8t5.5 8q86 20 140 95q58 81 58 175q0 142 -104 223q-102 79 -239 79q-140 0 -241 -80q-103 -82 -103 -222q0 -108 62 -184q48 -58 125 -84q2 -1 4.5 -8.5t4.5 -9.5h-122q-29 0 -37 9
q-4 4 -8.5 15.5t-10.5 37.5h-38v-188h322l-19 175q-34 9 -58 27.5t-44 47.5q-19 29 -29 69.5t-10 95.5q0 63 14.5 108t41.5 75q54 59 146 59q91 0 146 -61q55 -59 55 -181q0 -109 -40 -165q-21 -29 -45 -47t-56 -29l-18 -174h321z" />
    <glyph glyph-name="radical" unicode="&#xe00b;" horiz-adv-x="576" 
d="M550 923l-60 8l-122 -771l-185 379l-169 -83l27 -56l96 47l255 -526z" />
    <glyph glyph-name="approxequal" unicode="&#xe00c;" horiz-adv-x="693" 
d="M611 514l-63 21q-13 -17 -23.5 -27.5t-22.5 -16.5q-26 -13 -50 -13q-13 0 -100 26q-42 13 -71.5 20t-48.5 7q-42 0 -80 -20q-19 -10 -38.5 -27.5t-42.5 -50.5l64 -25q17 23 28.5 34t21.5 17q18 12 44 12q22 0 107 -28q42 -14 72 -21t47 -7q21 0 42 6t41 17
q21 11 38.5 28.5t34.5 47.5zM611 272l-63 21q-13 -17 -23.5 -27.5t-22.5 -16.5q-26 -13 -50 -13q-13 0 -100 26q-42 13 -71.5 20t-48.5 7q-42 0 -80 -20q-19 -10 -38.5 -27.5t-42.5 -50.5l64 -25q17 23 28.5 34t21.5 17q18 12 44 12q22 0 107 -28q42 -14 72 -21t47 -7
q21 0 42 6t41 17q21 11 38.5 28.5t34.5 47.5z" />
    <glyph glyph-name="Delta" unicode="&#xe00d;" horiz-adv-x="643" 
d="M642 -13l-300 732l-340 -732h640zM481 62h-374l198 424z" />
    <glyph glyph-name="lozenge" unicode="&#xe00e;" horiz-adv-x="519" 
d="M495 377l-201 381h-75l-200 -381l200 -390h75zM407 377l-150 -295l-150 295l150 287z" />
    </font>
</defs>
</svg>
